<?xml version="1.0" encoding="UTF-8"?>
<svg width="409px" height="114px" viewBox="0 0 409 114" version="1.1" xmlns="http://www.w3.org/2000/svg" xmlns:xlink="http://www.w3.org/1999/xlink">
    <defs>
        <polygon id="path-1" points="0 0.614 68.6189482 0.614 68.6189482 68.8979961 0 68.8979961"></polygon>
        <polygon id="path-3" points="0.4889 0.9623 15.5269 0.9623 15.5269 16 0.4889 16"></polygon>
    </defs>
    <g id="Page-1" stroke="none" stroke-width="1" fill="none" fill-rule="evenodd">
        <g id="Group-37" transform="translate(0.000000, -1.000000)">
            <polygon id="Fill-1" fill="#D9ACA4" points="130.2949 57.1696 129.6459 58.7546 144.5019 58.7536 143.5539 56.4396"></polygon>
            <g id="Group-36" transform="translate(0.000000, 0.386000)">
                <g id="Group-4">
                    <mask id="mask-2" fill="white">
                        <use xlink:href="#path-1"></use>
                    </mask>
                    <g id="Clip-3"></g>
                    <path d="M65.1089,51.515 C65.5439,50.669 65.9289,49.813 66.2809,48.95 C67.8709,45.057 68.6259,41.02 68.6189,37.05 L60.1179,37.05 L59.8999,37.05 C59.3289,39.749 58.4229,42.401 57.1559,44.865 C55.4159,48.25 52.1319,52.608 47.8189,56.299 C39.2739,63.611 26.6829,68.301 14.0079,57.594 C1.4219,45.386 7.2019,32.561 11.0919,24.65 C17.1529,12.324 33.7239,4.417 45.7239,7.948 C52.4429,9.875 55.1349,13.139 56.8609,15.646 C58.6929,18.382 59.8939,21.955 60.3859,25.869 L66.6129,25.869 C66.6089,25.858 66.6069,25.851 66.6029,25.841 C64.4709,20.463 61.0119,14.626 55.9669,10.466 C47.1069,3.158 39.5049,1.717 39.4379,1.703 C25.5169,-2.144 10.1269,4.411 3.1389,18.001 C-1.3811,26.794 -0.4111,38.406 2.2369,44.836 C5.0369,51.632 8.4699,57.62 16.5259,62.764 C22.7479,66.734 32.0599,68.517 32.0599,68.517 L32.0609,68.516 C37.3909,69.371 42.8209,68.772 47.8189,66.907 C55.0099,64.223 61.3049,58.913 65.1089,51.515" id="Fill-2" fill="#D9ACA4" mask="url(#mask-2)"></path>
                </g>
                <path d="M280.4365,36.8051 L276.4825,36.8051 L276.4825,48.1461 L294.6725,48.1461 C290.3945,46.3071 285.7295,42.0441 280.4365,36.8051" id="Fill-5" fill="#D9ACA4"></path>
                <path d="M213.5752,1.1181 C213.5732,1.1181 213.5712,1.1191 213.5682,1.1201 C204.0522,1.1111 194.6902,3.6611 183.8342,12.2351 C175.4482,19.5321 171.5382,25.9241 171.5382,25.9241 L183.3402,25.9241 C188.1622,13.0631 198.0972,5.9861 211.8852,3.7181 C215.8532,3.2651 220.9002,3.2941 224.5702,4.2841 C237.5342,7.7821 245.5532,15.8511 257.3462,27.3751 C259.9252,29.8941 262.2042,32.2911 264.2632,34.5561 L264.2632,25.8651 L269.3702,25.8651 C261.3342,18.2271 251.9812,10.5161 240.7832,5.8811 C227.2142,0.2651 213.5752,1.1181 213.5752,1.1181" id="Fill-7" fill="#D9ACA4"></path>
                <g id="Group-11" transform="translate(205.000000, 98.000000)">
                    <mask id="mask-4" fill="white">
                        <use xlink:href="#path-3"></use>
                    </mask>
                    <g id="Clip-10"></g>
                    <path d="M15.5269,8.4823 C15.5269,12.6323 12.1609,16.0003 8.0089,16.0003 C3.8549,16.0003 0.4889,12.6323 0.4889,8.4823 C0.4889,4.3313 3.8549,0.9623 8.0089,0.9623 C12.1609,0.9623 15.5269,4.3313 15.5269,8.4823" id="Fill-9" fill="#D9ACA4" mask="url(#mask-4)"></path>
                </g>
                <polygon id="Fill-12" fill="#D9ACA4" points="157.2559 59.1933 157.2559 59.1933 157.0749 58.7693"></polygon>
                <path d="M130.3188,0.9804 C118.7918,-0.5606 97.1888,5.1844 95.3408,30.0344 C95.3408,30.0344 93.6558,50.7594 117.3998,58.7474 L118.7178,55.6514 C112.0738,53.6184 105.4358,47.3044 104.3918,36.5974 C102.2788,14.9354 120.4588,2.4504 132.7318,4.3374 C145.9698,6.3734 155.5888,20.9334 155.0168,37.6724 C154.8918,41.3454 154.5758,45.7884 153.6308,50.6774 L157.0748,58.7694 L157.2558,59.1934 L160.2228,66.1624 C160.7038,64.8624 161.1788,63.4834 161.5928,62.1224 L162.4028,59.1944 L162.6638,58.2524 C162.9278,57.1754 163.1658,56.0754 163.3888,54.9624 C163.7528,53.1474 164.0678,51.2914 164.3148,49.3784 C167.9648,21.1114 147.8328,3.3214 130.3188,0.9804" id="Fill-14" fill="#D9ACA4"></path>
                <path d="M147.0942,69.1405 C143.5442,75.8145 138.3912,82.8485 130.8892,89.9325 C118.9022,101.2495 106.7732,106.3055 94.9902,105.9955 C69.4082,104.8195 60.6112,90.0195 60.6112,90.0195 L48.5982,90.0195 C74.8282,116.8415 129.2692,115.5575 153.2592,79.8355 L148.8992,69.1405 L147.0942,69.1405 Z" id="Fill-16" fill="#D9ACA4"></path>
                <path d="M264.2617,49.4018 L199.2557,52.9858 C199.2477,53.2108 199.2257,53.4308 199.2257,53.6578 L199.2257,53.8178 C199.2257,54.2048 199.2407,54.5878 199.2617,54.9698 C199.3447,56.4348 199.5957,57.8478 199.9757,59.1998 L264.2617,59.2088 L264.2617,49.4018 Z" id="Fill-18" fill="#D9ACA4"></path>
                <path d="M186.3672,53.9774 L186.3672,53.8174 C186.3672,53.7764 186.3702,53.7364 186.3702,53.6954 L163.3882,54.9624 C163.1652,56.0754 162.9282,57.1754 162.6632,58.2524 L162.4032,59.1944 L186.8232,59.1984 C186.6512,58.2004 186.5242,57.1854 186.4512,56.1524 C186.4012,55.4344 186.3672,54.7104 186.3672,53.9774" id="Fill-20" fill="#D9ACA4"></path>
                <path d="M394.9482,18.7523 C387.6122,10.7363 372.1202,-1.5517 350.8092,1.4553 C337.6042,3.7943 324.1782,13.4923 324.1782,30.6653 C324.1782,40.3353 330.2212,48.9343 339.3832,54.2083 C335.7322,51.6553 333.6512,48.0083 333.6512,42.0773 L333.6512,41.9173 C333.6512,39.7053 334.0402,37.6563 334.7632,35.8053 C334.7652,35.8013 334.7672,35.7973 334.7692,35.7933 C334.6682,34.8833 334.5872,33.9613 334.5222,33.0263 C333.6962,21.0053 343.2072,10.6253 354.8012,6.9763 C360.5462,5.1683 375.5822,3.2443 387.8512,16.8373 C399.4512,29.6903 397.6992,46.4803 397.3172,52.7753 C395.9562,67.0443 392.0042,80.1393 376.8012,94.0343 C363.6842,106.0203 348.1602,106.1443 339.7972,105.8363 C313.3022,102.7953 307.0572,90.1743 307.0572,90.1743 L294.4782,90.1333 C298.2762,95.9433 310.2842,104.9883 328.4272,107.8423 C328.1112,107.9063 327.9272,107.9433 327.9272,107.9433 C328.5972,107.9833 329.3912,108.0423 330.2952,108.1083 C334.0182,108.5943 337.9832,108.8243 342.1782,108.7093 C342.6742,108.6953 343.0852,108.6743 343.4322,108.6473 C360.8442,108.5343 386.6762,104.4993 401.2712,80.3573 C418.6552,51.6063 402.2582,26.7393 394.9482,18.7523" id="Fill-22" fill="#D9ACA4"></path>
                <path d="M65.103,51.5111 C61.299,58.9081 55.004,64.2191 47.813,66.9031 L47.813,81.7711 L60.113,81.7711 L60.113,60.1271 L86.788,60.1271 L86.788,48.9461 L66.275,48.9461 C65.923,49.8081 65.538,50.6651 65.103,51.5111" id="Fill-24" fill="#1D1D1B"></path>
                <path d="M129.645,58.3695 L137.073,40.2405 L144.5,58.3695 L129.645,58.3695 Z M153.645,50.7105 L142.903,25.4645 L131.562,25.4645 L117.481,58.5555 L116.79,60.1785 L107.602,81.7715 L120.141,81.7715 L125.252,69.2315 L147.088,69.2315 L148.893,69.2315 L153.253,79.9265 L154.005,81.7715 L166.863,81.7715 L160.236,66.1975 L153.645,50.7105 Z" id="Fill-26" fill="#1D1D1B"></path>
                <path d="M215.4385,71.3886 C208.4845,71.3886 203.0885,67.1816 200.6495,61.2116 C199.8635,59.2876 199.3855,57.1796 199.2625,54.9696 C199.2405,54.5876 199.2265,54.2046 199.2265,53.8176 L199.2265,53.6576 C199.2265,44.0746 206.0145,36.2466 215.4385,36.2466 C221.0295,36.2466 225.4225,38.6426 229.7355,42.5566 L237.5625,33.5316 C232.3705,28.4196 226.0615,24.9056 215.5185,24.9056 C198.3475,24.9056 186.3675,37.9236 186.3675,53.8176 L186.3675,53.9776 C186.3675,54.7106 186.4015,55.4336 186.4515,56.1526 C186.5835,58.0306 186.8805,59.8546 187.3365,61.6086 C190.5235,73.8736 201.3035,82.7296 215.0395,82.7296 C225.8215,82.7296 232.2105,78.8956 237.9615,72.7456 L230.1345,64.8396 C225.7415,68.8326 221.8285,71.3886 215.4385,71.3886" id="Fill-28" fill="#1D1D1B"></path>
                <polygon id="Fill-30" fill="#1D1D1B" points="276.4814 59.0888 302.8374 59.0888 302.8374 48.1468 294.6714 48.1468 276.4814 48.1468 276.4814 36.8058 280.4354 36.8058 306.4314 36.8058 306.4314 25.8638 269.3684 25.8638 264.2624 25.8638 264.2624 34.5548 264.2624 49.7688 264.2624 58.7108 264.2624 81.7718 306.8314 81.7718 306.8314 70.8288 276.4814 70.8288"></polygon>
                <path d="M357.9307,48.307 C348.2677,45.831 345.8707,44.633 345.8707,40.959 L345.8707,40.799 C345.8707,38.084 348.3467,35.928 353.0597,35.928 C357.7717,35.928 362.6437,38.004 367.5947,41.438 L373.9847,32.173 C368.3137,27.621 361.3657,25.066 353.2187,25.066 C344.2887,25.066 337.3617,29.167 334.7637,35.806 C334.0397,37.657 333.6517,39.705 333.6517,41.917 L333.6517,42.077 C333.6517,48.082 335.7817,51.748 339.5167,54.305 C342.6857,56.475 347.0107,57.849 352.1807,59.169 C361.5257,61.564 363.4427,63.162 363.4427,66.277 L363.4427,66.436 C363.4427,69.711 360.4077,71.708 355.3757,71.708 C348.9867,71.708 343.7147,69.072 338.6837,64.919 L331.4147,73.625 C338.1237,79.615 346.6697,82.569 355.1357,82.569 C367.1957,82.569 375.6607,76.34 375.6607,65.238 L375.6607,65.079 C375.6607,55.335 369.2727,51.262 357.9307,48.307" id="Fill-32" fill="#1D1D1B"></path>
                <path d="M60.3809,25.8642 L47.8139,25.8642 L47.8139,37.0462 L47.8139,56.2952 C52.1269,52.6042 55.4099,48.2462 57.1509,44.8612 C58.4179,42.3962 59.3229,39.7452 59.8949,37.0462 L60.1129,37.0462 L68.6139,37.0462 L90.3819,37.0462 L90.3819,25.8642 L66.6079,25.8642 L60.3809,25.8642 Z" id="Fill-34" fill="#1D1D1B"></path>
            </g>
        </g>
    </g>
</svg>