<svg xmlns="http://www.w3.org/2000/svg" width="40" height="40" viewBox="0 0 68 68" fill="none">
<path d="M11.3332 68H56.6673C59.6724 68 62.5549 66.8062 64.6806 64.6806C66.8064 62.5551 68 59.6724 68 56.6673V17C68 13.9938 66.8062 11.1114 64.6806 8.98559C62.5551 6.8598 59.6724 5.66624 56.6673 5.66624H53.8331V2.83312C53.8331 1.26781 52.5653 0 51 0C49.4357 0 48.1669 1.26786 48.1669 2.83312V5.66624H36.8331V2.83312C36.8331 1.26781 35.5653 0 34 0C32.4347 0 31.1669 1.26786 31.1669 2.83312V5.66624H19.8331V2.83312C19.8331 1.26781 18.5643 0 17 0C15.4347 0 14.1669 1.26786 14.1669 2.83312V5.66624H11.3327C8.3276 5.66624 5.44514 6.86001 3.31935 8.98559C1.19356 11.1112 0 13.9938 0 17V56.6673C0 59.6724 1.19376 62.5549 3.31935 64.6806C5.44494 66.8064 8.3276 68 11.3327 68H11.3332ZM56.6673 62.3338H11.3332C9.83118 62.3338 8.38932 61.7369 7.32706 60.6736C6.26376 59.6113 5.66688 58.1695 5.66688 56.6674V28.3336H62.3344V56.6674C62.3344 58.1694 61.7375 59.6113 60.6742 60.6736C59.6119 61.7369 58.1701 62.3338 56.668 62.3338H56.6673ZM11.3332 11.333H14.1664V14.1661L14.1674 14.1671C14.1674 15.7314 15.4352 17.0002 17.0005 17.0002C18.5648 17.0002 19.8336 15.7314 19.8336 14.1671V11.333H31.1674V14.1671C31.1674 15.7314 32.4352 17.0002 34.0005 17.0002C35.5657 17.0002 36.8336 15.7314 36.8336 14.1671V11.333H48.1674V14.1671C48.1674 15.7314 49.4362 17.0002 51.0005 17.0002C52.5658 17.0002 53.8336 15.7314 53.8336 14.1671V11.333H56.6677C58.1698 11.333 59.6117 11.9308 60.6739 12.9932C61.7372 14.0555 62.3341 15.4973 62.3341 17.0004V22.6666H5.6666V17.0004C5.6666 15.4973 6.26348 14.0554 7.32678 12.9932C8.3891 11.9308 9.83088 11.333 11.333 11.333L11.3332 11.333Z" fill="#4F489E"/>
<path d="M43.0003 43.2503H36.9997V37.7498C36.9997 36.2315 35.6573 35 34 35C32.3427 35 31.0003 36.2315 31.0003 37.7498V43.2493L24.9997 43.2502C23.3434 43.2502 22 44.4808 22 46C22 47.5183 23.3435 48.7497 24.9997 48.7497H30.9992V54.2493H31.0002C31.0002 55.7685 32.3427 57 34 57C35.6573 57 36.9997 55.7685 36.9997 54.2493V48.7497H43.0003C44.6566 48.7497 46 47.5182 46 46C46 44.4807 44.6566 43.2503 43.0003 43.2503Z" fill="#4F489E"/>
</svg>