<svg width="1440" height="454" viewBox="0 0 1440 454" fill="none" xmlns="http://www.w3.org/2000/svg">
<rect x="-5" width="1450" height="454" fill="black"/>
<g opacity="0.2" clip-path="url(#clip0_205_1137)">
<path d="M1563.25 253.062C1587.97 268.343 1644.58 290.461 1618.87 327.055C1602.43 350.379 1574.62 361.371 1549.78 370.218C1484.51 393.139 1416.65 392.871 1349.9 406.008C1306.64 414.452 1267.95 439.251 1226.05 453.326C1187.98 466.06 1149.78 469.813 1110.23 472.092C1059.79 474.907 1017.03 474.639 967.83 459.626C913.689 443.138 860.661 422.227 805.038 421.155C686.745 418.876 584.027 506.005 460.048 478.928C385.759 462.709 314.314 436.168 238.542 427.589C200.224 423.299 147.443 428.661 112.586 407.616C85.1448 391.129 70.4354 378.126 36.6904 371.826C-35.0023 358.422 -109.785 355.607 -179.994 333.891C-194.827 329.334 -215.594 325.715 -203.233 310.299C-187.905 291.131 -123.258 294.08 -101.133 291.131C-67.6348 286.707 -19.9221 288.45 10.9799 271.828C30.1392 261.641 27.667 256.815 12.4632 242.875C0.473251 231.883 -63.8029 210.972 -62.5668 190.195C-60.8363 163.788 30.51 161.241 46.0846 160.705C99.7305 158.828 153.624 168.345 207.146 163.922C312.089 155.209 405.66 86.4437 511.469 76.7925C555.844 72.7711 604.669 90.4651 646.943 70.4924C684.396 52.6643 706.893 28 748.302 28C808.375 28 858.437 75.7201 924.567 69.42C975.246 64.5944 1020.12 58.4283 1071.17 66.471C1116.9 73.5754 1161.89 85.2373 1207.51 93.146C1243.23 99.4461 1279.45 102.395 1315.29 108.293C1345.82 113.387 1374.75 125.049 1405.03 132.153C1437.42 139.794 1470.3 144.887 1502.81 151.724C1527.77 156.952 1581.91 161.107 1597.74 186.307C1571.9 205.476 1526.29 178.131 1496.75 187.246C1478.58 192.876 1481.67 188.854 1490.07 205.61C1499.84 224.912 1546.32 242.74 1563.25 253.062Z" stroke="#E721BB" stroke-width="0.5" stroke-miterlimit="10" stroke-linecap="round" stroke-linejoin="round"/>
<path d="M1548.29 249.309C1572.4 264.188 1634.94 288.584 1608.86 325.178C1592.79 347.832 1562.14 357.617 1538.16 365.258C1473.63 385.901 1406.89 387.107 1341.5 401.182C1298.98 410.297 1259.79 430.27 1218.51 443.942C1178.95 457.079 1139.4 462.709 1098.24 466.06C1051.02 470.081 1012.45 469.277 966.347 454.8C912.083 437.91 859.673 416.865 803.802 415.659C738.784 414.318 674.755 446.891 611.839 465.926C558.934 482.011 511.469 484.826 457.452 473.03C387.985 458.017 320.247 433.353 250.038 422.227C214.315 416.597 173.772 417.804 140.398 401.182C107.024 384.56 81.8075 373.301 43.7362 367.537C-26.5968 356.947 -102.863 355.741 -170.847 332.283C-187.04 326.653 -206.941 322.497 -188.4 308.557C-163.431 289.924 -111.392 293.41 -82.2204 289.522C-54.1613 285.769 -0.391861 288.048 23.9589 269.55C40.7696 256.815 30.2629 250.515 16.2952 239.523C8.26071 233.089 -58.4876 206.012 -53.2961 188.318C-45.2616 160.839 45.8376 162.179 64.8732 161.911C114.687 161.241 165.243 169.954 215.057 164.726C320 153.6 412.459 83.2266 519.504 76.3903C561.407 73.7094 606.029 89.3927 646.202 71.0285C684.026 53.6026 707.017 28.4021 748.302 28.4021C809.241 28.4021 860.291 75.8541 927.534 69.42C978.831 64.4603 1024.32 58.9644 1075.74 67.1412C1121.47 74.3796 1166.72 85.6394 1212.33 93.5481C1278.7 105.076 1342.49 118.749 1408.25 133.225C1441.37 140.598 1474.87 145.826 1508 153.198C1525.8 157.22 1584.02 164.19 1588.84 187.246C1560.78 195.557 1512.08 172.233 1487.23 186.844C1471.16 196.227 1474.87 184.967 1479.32 202.259C1483.77 219.283 1535.93 241.668 1548.29 249.309Z" stroke="#E721BB" stroke-width="0.5" stroke-miterlimit="10" stroke-linecap="round" stroke-linejoin="round"/>
<path d="M1533.83 245.556C1556.95 260.032 1624.56 286.707 1599.47 322.498C1584.26 344.213 1552.87 352.658 1530.12 359.494C1465.23 378.931 1397.74 380.271 1332.35 396.625C1247.68 417.804 1169.43 451.315 1082.29 460.698C1039.15 465.39 1002.93 462.977 961.155 449.438C907.756 432.147 856.459 411.235 801.206 410.029C740.391 408.823 680.441 437.776 622.098 456.811C568.205 474.505 519.256 480.403 463.756 469.411C396.019 455.873 330.012 432.817 262.77 417.402C229.643 409.761 195.774 407.75 164.13 393.676C127.79 377.456 95.0336 369.547 55.479 364.588C-15.1012 355.741 -98.2894 357.617 -165.285 329.736C-186.669 320.889 -188.647 314.723 -166.521 306.144C-134.63 293.678 -95.9408 293.276 -62.6903 288.584C-48.9698 286.707 29.7685 284.429 37.3086 267.405C44.1071 251.856 37.4322 250.515 24.577 240.06C10.8565 228.934 -51.5655 209.497 -41.3061 186.173C-30.7994 162.179 53.1305 164.726 71.0536 164.458C121.115 163.788 172.659 172.903 222.473 166.201C321.483 152.796 409.245 88.0523 510.233 78.6692C554.237 74.5138 601.456 91.2694 643.73 73.3074C682.543 56.8198 706.646 30.0107 748.426 30.0107C807.634 30.0107 858.437 75.5861 923.578 71.0286C970.796 67.6775 1014.06 60.1709 1061.65 66.203C1109.11 72.235 1155.71 84.165 1202.81 92.7439C1265.6 104.138 1326.42 115.8 1388.47 130.545C1423.7 138.855 1459.54 144.217 1494.89 152.126C1519.99 157.756 1564.73 161.509 1581.67 185.235C1563.13 202.795 1511.21 183.761 1487.48 187.514C1435.56 195.02 1518.01 235.636 1533.83 245.556Z" stroke="#E721BB" stroke-width="0.5" stroke-miterlimit="10" stroke-linecap="round" stroke-linejoin="round"/>
<path d="M1519.86 241.802C1541.37 255.341 1609.85 283.892 1591.68 317.538C1579.44 340.191 1540.63 348.636 1519.49 354.4C1454.72 372.228 1387.11 373.569 1322.71 392.067C1238.41 416.329 1155.84 443.406 1069.06 454.8C973.269 467.4 890.451 405.874 797.374 403.863C683.655 401.45 586.005 487.105 467.217 464.854C402.199 452.655 339.53 432.147 276.49 412.308C201.954 388.85 129.149 367.537 51.5235 359.628C13.5758 355.741 -24.3719 351.987 -62.0723 346.76C-89.0189 343.006 -128.573 342.202 -152.924 328.127C-173.69 316.197 -171.342 312.176 -148.351 304.535C-114.853 293.544 -77.2761 291.935 -43.0367 286.841C-21.5289 283.624 81.4366 279.603 35.3308 240.864C25.0714 232.285 -40.4409 208.961 -34.7549 190.061C-27.4621 165.933 50.9054 166.603 69.323 166.067C122.227 164.458 176.986 175.316 229.519 166.201C329.024 148.909 415.673 84.9693 518.638 78.6691C562.272 75.9882 607.142 90.5992 648.674 71.0286C685.262 53.7367 709.242 30.4128 748.796 30.4128C808.87 30.4128 860.785 75.7201 927.039 70.8945C974.875 67.4093 1018.63 60.573 1066.72 66.8732C1114.18 73.0392 1160.91 84.7012 1208.12 93.2801C1270.18 104.406 1330.25 118.078 1391.68 131.617C1427.78 139.66 1464.24 145.022 1500.21 153.734C1519.49 158.426 1565.97 163.52 1573.26 186.307C1543.97 198.372 1509.23 179.739 1479.2 187.38C1465.72 190.731 1460.28 187.112 1464.73 201.589C1469.55 217.406 1508.12 234.43 1519.86 241.802Z" stroke="#E721BB" stroke-width="0.5" stroke-miterlimit="10" stroke-linecap="round" stroke-linejoin="round"/>
<path d="M1506.27 238.049C1525.8 250.649 1598.6 282.82 1582.04 314.455C1569.92 337.51 1526.17 345.285 1505.9 350.245C1442.11 365.794 1374.99 367.537 1312.33 387.777C1229.63 414.452 1144.47 436.168 1058.93 448.768C964.493 462.709 884.147 399.573 792.43 397.697C681.307 395.284 586.623 480.939 470.308 460.43C408.256 449.438 348.801 432.012 290.458 407.616C214.81 375.981 137.308 363.515 56.8388 356.411C16.9134 352.926 -23.012 349.306 -62.6902 343.676C-84.0744 340.593 -131.169 340.996 -147.114 323.57C-160.711 308.289 -137.226 305.474 -124.371 302.122C-91.4908 293.544 -56.6334 290.729 -23.5064 285.501C2.94569 281.345 91.6963 275.179 39.5337 238.049C27.5437 229.47 -31.7882 210.57 -23.8773 189.122C-15.5955 166.603 70.8065 168.077 88.1116 167.943C136.69 167.541 188.481 176.924 236.565 167.139C336.317 146.764 422.471 82.4223 526.797 79.0712C570.059 77.7307 612.58 90.5991 653.618 69.2859C687.734 51.5919 711.714 31.4851 749.044 31.4851C805.162 31.4851 856.459 75.1839 917.645 72.637C965.234 70.6263 1010.23 60.707 1058.19 66.2028C1106.27 71.6987 1153.61 83.3606 1201.2 92.2076C1263.75 103.736 1324.81 118.212 1386.86 131.617C1419 138.587 1451.63 143.681 1483.77 151.053C1504.04 155.611 1553.24 161.643 1565.6 184.431C1546.81 200.784 1500.33 185.771 1477.96 187.514C1424.44 191.535 1487.85 226.119 1506.27 238.049Z" stroke="#E721BB" stroke-width="0.5" stroke-miterlimit="10" stroke-linecap="round" stroke-linejoin="round"/>
<path d="M1493.29 234.43C1512.08 246.762 1583.27 278.665 1573.76 309.227C1566.46 332.685 1514.05 341.13 1496.01 345.285C1431.73 359.896 1364.12 361.505 1301.45 383.756C1219.25 412.978 1131.12 429.6 1045.58 443.138C954.233 457.615 875.495 393.005 786.744 391.129C729.39 389.922 673.519 418.474 619.008 438.581C568.329 457.347 523.212 464.183 470.184 455.202C412.583 445.417 356.835 431.342 305.044 402.656C232.362 362.577 147.814 359.762 68.4579 353.596C27.42 350.513 -13.7414 347.296 -54.6557 341.264C-74.1858 338.449 -115.594 338.985 -130.427 322.765C-144.642 307.216 -117.819 304.401 -105.459 301.05C-72.4552 292.337 -37.227 289.522 -4.10001 283.758C171.423 253.33 -42.1713 230.81 -9.53875 186.576C6.15946 165.262 71.0537 169.82 93.6739 169.552C142.375 168.882 194.909 178.801 243.116 167.139C336.811 144.485 418.887 86.5778 517.031 80.2776C562.272 77.3286 608.378 92.4758 651.517 71.0285C686.251 53.7367 711.591 32.4235 749.538 32.2894C788.969 32.2894 821.107 55.4793 860.167 67.1412C915.42 83.6288 972.156 62.1815 1028.03 64.1922C1081.18 66.2029 1133.46 79.0712 1185.63 89.2587C1232.97 98.5078 1280.56 105.21 1327.28 117.81C1362.76 127.328 1398.36 134.566 1434.33 141.536C1459.17 146.362 1537.04 149.847 1552.62 177.326C1560.04 190.329 1552.62 185.503 1541.62 188.452C1524.19 193.278 1501.45 186.71 1483.52 187.112C1480.31 187.246 1450.77 185.235 1448.17 193.814C1444.09 207.353 1487.11 230.408 1493.29 234.43Z" stroke="#E721BB" stroke-width="0.5" stroke-miterlimit="10" stroke-linecap="round" stroke-linejoin="round"/>
<path d="M1480.93 230.944C1496.5 241.534 1571.41 276.52 1565.35 303.865C1560.28 326.653 1509.36 335.098 1493.66 338.851C1426.04 354.668 1355.46 355.07 1289.95 380.003C1208.25 411.101 1118.14 424.104 1032.6 437.91C943.356 452.387 867.584 387.241 780.44 384.694C674.632 381.477 587.117 468.473 476.488 451.315C421.235 442.736 366.477 431.342 319.506 398.367C248.431 348.1 148.309 356.009 67.8398 350.379C29.8921 347.698 -8.17913 344.883 -45.8796 339.253C-56.8807 337.645 -112.257 333.623 -115.224 319.682C-120.539 294.348 -2.98759 285.769 15.3064 282.284C58.5692 274.107 102.821 264.59 46.0848 231.347C33.4768 223.974 -11.5165 210.302 -4.59448 190.999C3.68725 167.943 95.2808 171.294 112.833 171.294C157.95 171.428 205.168 178.801 249.42 167.005C343.733 141.938 425.685 84.0309 525.684 81.0819C568.205 79.8755 610.355 91.1353 650.899 72.1008C686.622 55.3452 711.467 33.3618 750.156 33.3618C806.398 33.2277 858.931 75.9882 920.241 73.7094C967.83 71.9668 1013.19 62.3155 1061.03 67.5433C1108.62 72.7711 1155.71 83.8968 1202.81 92.8779C1263.75 104.54 1323.45 120.625 1384.27 132.957C1416.03 139.392 1448.05 144.351 1479.57 152.126C1496.25 156.281 1542.24 163.118 1549.03 184.833C1523.32 195.288 1493.41 184.431 1466.46 187.648C1422.21 192.608 1459.42 216.334 1480.93 230.944Z" stroke="#E721BB" stroke-width="0.5" stroke-miterlimit="10" stroke-linecap="round" stroke-linejoin="round"/>
<path d="M1469.18 227.593C1483.89 238.049 1559.91 274.375 1555.09 300.246C1550.64 323.838 1497 331.344 1481.42 334.696C1413.56 349.307 1343.35 349.307 1278.21 376.116C1198.48 408.957 1108.5 418.072 1024.57 431.878C934.95 446.623 861.156 380.539 774.136 377.858C671.418 374.641 587.241 462.307 479.825 446.355C427.292 438.581 376.118 429.466 334.339 393.541C267.837 336.304 152.017 352.792 73.5256 347.698C34.8363 345.151 -4.22383 342.604 -42.5423 336.036C-50.8241 334.562 -95.8174 330.138 -98.2895 317.136C-102.245 296.225 21.8575 282.954 34.3419 280.407C170.311 251.588 -14.4833 231.481 8.01336 190.061C20.1269 167.809 104.18 173.037 121.238 173.037C165.614 173.037 212.337 179.873 255.724 167.139C350.16 139.392 433.225 81.35 534.46 81.4841C574.015 81.6181 612.58 89.9289 650.281 73.0392C686.498 56.8197 711.961 34.1661 750.898 34.1661C808.128 34.032 861.403 76.6584 924.072 74.1116C972.65 72.1009 1017.77 62.9858 1066.59 68.4817C1110.23 73.4414 1153.37 83.2266 1196.5 91.6715C1255.22 103.065 1312.7 119.151 1371.16 130.947C1415.29 139.928 1512.2 139.66 1541.37 182.42C1523.82 197.165 1487.6 185.637 1465.97 187.38C1422.58 190.597 1441.87 208.157 1469.18 227.593Z" stroke="#E721BB" stroke-width="0.5" stroke-miterlimit="10" stroke-linecap="round" stroke-linejoin="round"/>
<path d="M1458.06 224.376C1472.77 234.43 1548.79 272.096 1544.21 297.163C1540.14 320.085 1488.1 326.519 1472.77 329.736C1403.55 343.811 1332.23 343.274 1266.47 372.228C1186.12 407.616 1090.94 416.463 1005.53 427.991C921.353 439.385 849.537 373.703 767.338 371.022C666.226 367.805 585.51 456.811 479.084 440.859C430.259 433.487 383.906 426.785 348.554 388.85C330.383 369.279 308.258 363.381 283.165 358.422C218.889 345.687 151.275 349.307 86.1339 345.687C71.4246 344.883 -80.7369 341.13 -78.512 314.187C-76.5342 290.997 33.8477 282.82 52.3889 278.397C173.03 249.443 -15.7191 223.84 21.2397 189.122C43.3655 168.345 101.461 174.377 128.655 174.377C172.66 174.377 218.518 180.275 261.286 166.469C351.768 137.515 432.731 83.2267 530.134 82.2884C570.554 81.8862 609.985 90.8673 648.921 73.9776C685.633 58.0262 711.961 35.1044 751.145 34.9704C789.216 34.8363 820.86 55.0772 858.808 67.0072C910.847 83.3607 962.02 67.1413 1014.55 66.0689C1111.09 64.3263 1215.54 91.1354 1308.62 117.408C1344.71 127.596 1381.55 133.628 1418.38 140.598C1439.89 144.619 1512.08 149.713 1525.3 173.305C1538.78 197.299 1500.46 186.978 1482.53 187.112C1448.54 187.648 1409.73 191.133 1458.06 224.376Z" stroke="#E721BB" stroke-width="0.5" stroke-miterlimit="10" stroke-linecap="round" stroke-linejoin="round"/>
<path d="M1447.68 221.427C1462.01 231.615 1537.54 269.818 1533.34 294.348C1529.5 316.465 1478.95 322.363 1465.23 325.044C1394.4 339.387 1322.21 337.377 1255.22 368.609C1178.58 404.265 1086.74 410.297 1004.66 421.825C916.285 434.157 843.356 364.32 761.033 364.588C669.934 364.856 588.106 449.438 489.59 437.24C440.271 431.074 395.03 425.578 362.892 384.426C345.834 362.577 321.854 357.885 296.02 353.596C229.395 342.47 159.928 347.43 92.6849 343.677C76.3686 342.738 -59.8474 341.934 -58.2405 312.042C-57.1281 292.471 56.3441 280.273 70.1882 276.52C117.901 263.384 104.428 247.164 66.1091 227.593C50.0401 219.417 10.8563 209.765 30.7572 190.999C53.5011 169.418 119.755 175.986 147.443 176.12C187.739 176.388 228.406 179.739 267.343 166.469C354.487 136.711 431.865 85.6395 526.178 83.3607C567.834 82.4224 607.883 91.9396 648.056 75.184C686.003 59.3666 711.837 36.1768 751.886 36.1768C790.205 36.0428 822.467 56.4176 861.032 68.0796C909.116 82.5565 956.334 70.0903 1005.04 67.8115C1103.06 63.1199 1208 91.1354 1302.68 117.676C1336.06 127.06 1369.93 132.689 1403.92 138.99C1436.43 145.022 1486.12 146.898 1512.45 169.82C1539.64 193.546 1499.71 187.246 1482.04 187.514C1456.45 187.782 1399.47 186.978 1447.68 221.427Z" stroke="#E721BB" stroke-width="0.5" stroke-miterlimit="10" stroke-linecap="round" stroke-linejoin="round"/>
<path d="M1437.91 218.612C1454.23 230.676 1520.11 262.579 1521.35 287.78C1522.46 311.774 1473.14 317.27 1457.69 320.219C1385.38 334.427 1312.2 331.747 1244.46 364.722C1167.46 402.254 1071.04 408.286 988.225 418.206C905.408 427.991 832.479 357.617 755.224 357.885C667.215 358.287 588.477 443.138 493.051 432.146C464.374 428.795 423.831 426.114 398.615 409.091C386.254 400.78 385.265 391.129 376.736 379.735C361.161 359.092 340.519 354.132 316.415 350.245C245.464 338.717 171.423 345.419 99.8541 341.666C91.9432 341.264 -39.4521 338.181 -36.98 312.578C-34.755 290.327 72.2895 279.469 87.7405 274.375C131.127 260.434 107.147 243.545 76.7394 227.861C60.5468 219.551 20.2506 211.24 41.5111 191.401C64.3786 169.954 124.699 177.46 152.758 177.46C193.673 177.46 234.34 179.873 273.771 165.933C363.881 134.164 443.361 81.484 541.876 84.1649C579.948 85.2373 616.288 89.7948 652.382 73.7094C688.599 57.4899 715.051 36.981 753.246 36.8469C789.463 36.7129 819.747 54.4069 855.964 66.3369C902.688 81.6181 948.423 72.637 996.012 68.7497C1094.78 60.8411 1202.56 88.8565 1297.49 117.274C1330.99 127.328 1365.23 132.421 1399.47 138.721C1428.27 143.949 1482.16 147.3 1505.28 169.686C1529.5 193.144 1492.05 186.978 1473.26 187.246C1453.36 187.514 1396.63 187.782 1437.91 218.612Z" stroke="#E721BB" stroke-width="0.5" stroke-miterlimit="10" stroke-linecap="round" stroke-linejoin="round"/>
<path d="M1428.89 215.931C1446.69 229.738 1501.94 255.073 1508.61 280.407C1515.41 306.412 1472.52 311.238 1455.22 314.991C1380.56 331.076 1304.41 325.849 1234.45 361.237C1159.92 398.903 1068.2 403.193 987.731 412.978C902.07 423.299 829.142 351.317 749.909 351.719C663.012 352.255 586.87 438.983 491.939 426.919C466.352 423.702 431.124 421.825 408.627 406.008C395.772 396.893 397.008 387.777 389.221 375.579C371.916 348.1 335.698 346.894 307.639 345.017C238.295 340.325 168.58 344.079 99.1127 339.655C81.8076 338.583 -24.0009 334.83 -12.8762 307.216C-4.10002 285.367 85.3922 276.788 103.933 272.365C150.534 261.105 94.1684 232.285 81.0659 225.851C61.9067 216.602 26.4311 208.961 56.2207 190.731C83.1672 174.243 130.138 179.203 160.051 178.935C200.966 178.533 240.273 180.275 279.457 165.396C365.364 132.555 443.114 83.7628 537.427 85.2373C579.824 85.9076 618.266 90.5991 658.315 71.9668C692.06 56.2835 718.018 38.3215 753.864 38.1874C789.711 38.0534 820.118 55.2112 856.088 66.8731C901.947 81.7521 946.94 74.1116 993.664 70.0902C1091.69 61.6454 1197.49 88.4544 1291.44 117.274C1324.32 127.462 1358.06 132.287 1391.81 138.319C1422.58 143.815 1468.94 147.166 1495.14 167.943C1543.35 206.146 1374.75 173.841 1428.89 215.931Z" stroke="#E721BB" stroke-width="0.5" stroke-miterlimit="10" stroke-linecap="round" stroke-linejoin="round"/>
<path d="M1420.48 213.385C1437.66 228.13 1490.69 251.856 1497.37 277.324C1504.41 304.401 1456.82 308.557 1440.14 311.908C1366.96 326.251 1292.92 322.229 1224.81 357.215C1155.22 392.871 1071.04 397.563 995.765 406.544C902.935 417.67 829.636 344.749 745.335 345.285C660.787 345.821 587.611 432.683 495.029 421.691C472.532 419.01 435.079 418.072 416.167 401.182C405.166 391.397 407.638 382.818 400.84 370.888C386.254 345.285 350.655 344.079 325.809 342.47C252.881 337.779 179.581 343.006 106.652 337.779C92.4375 336.706 -1.62821 332.953 7.27157 307.753C14.5644 287.244 104.057 274.509 119.384 269.952C158.939 258.29 94.786 228.13 85.6391 223.84C66.6034 214.725 38.668 208.961 64.7493 192.608C91.0778 175.986 137.802 180.409 167.097 180.141C207.393 179.739 246.7 179.873 285.142 164.86C368.083 132.689 441.383 85.6395 532.853 85.9076C575.992 86.0416 616.412 91.2694 657.45 72.9052C692.307 57.2219 718.265 39.1258 754.606 38.9917C790.699 38.8577 821.848 56.2836 858.189 67.6774C905.037 82.2884 951.266 74.1116 998.855 70.3583C1094.03 62.9858 1194.4 88.8566 1285.5 117.14C1318.63 127.462 1352.5 132.019 1386.37 138.185C1413.81 143.145 1466.59 145.558 1488.22 167.943C1507.38 187.782 1489.21 185.905 1468.19 186.844C1459.67 187.112 1388.96 186.173 1420.48 213.385Z" stroke="#E721BB" stroke-width="0.5" stroke-miterlimit="10" stroke-linecap="round" stroke-linejoin="round"/>
<path d="M1412.69 211.106C1428.76 228.13 1478.21 249.175 1485.62 273.571C1493.66 299.71 1455.71 302.793 1438.03 306.546C1363 322.497 1286.24 317.27 1216.16 353.462C1145.08 390.19 1055.96 398.099 978.336 403.863C892.923 410.029 820.365 338.851 742.121 339.521C658.315 340.191 586.375 429.197 493.916 416.463C473.768 413.648 439.158 413.246 423.584 396.222C415.178 387.107 417.403 376.652 411.594 366.598C396.637 340.728 359.307 341.398 334.709 340.191C264.376 336.84 193.92 342.068 123.463 336.706C106.652 335.366 23.9587 334.83 31.6224 304.937C35.8251 288.316 119.013 273.705 134.093 267.539C166.85 254 100.225 226.387 92.4376 222.768C72.5367 213.653 48.9276 208.157 75.9977 193.01C103.562 177.594 146.825 181.616 176.862 181.08C216.046 180.409 253.746 179.069 290.828 164.056C372.533 130.947 444.72 85.7735 535.325 86.8458C577.97 87.248 617.895 91.1353 658.439 73.1732C693.049 57.758 719.501 40.064 755.595 39.93C791.441 39.7959 822.59 56.6857 858.684 67.8114C904.542 82.0202 950.03 75.3179 996.754 71.4306C1091.19 63.656 1189.71 88.0522 1279.82 116.872C1312.33 127.327 1345.58 131.751 1378.95 137.649C1407.26 142.609 1454.85 144.887 1478.21 165.933C1524.31 207.353 1377.47 173.573 1412.69 211.106Z" stroke="#E721BB" stroke-width="0.5" stroke-miterlimit="10" stroke-linecap="round" stroke-linejoin="round"/>
<path d="M1405.65 208.961C1418.75 227.459 1467.7 246.628 1474.62 270.756C1481.54 294.75 1448.79 298.235 1432.23 302.123C1357.07 319.683 1278.95 312.846 1208.37 349.575C1141.75 384.158 1063.01 391.531 990.203 397.965C898.98 406.008 822.961 333.087 740.267 333.891C660.664 334.696 590.578 421.825 503.434 412.308C483.904 410.163 445.339 408.823 431.124 390.995C424.202 382.282 426.427 371.022 420.617 362.175C402.076 333.891 354.858 338.717 327.911 338.181C265.365 336.84 202.943 340.594 140.398 335.902C132.61 335.366 35.578 330.808 54.6137 301.855C68.9522 280.139 131.003 278.799 147.938 264.858C179.705 238.719 40.1515 225.717 83.538 194.484C109.866 175.584 164.254 182.554 194.291 181.75C229.766 180.812 263.264 177.326 296.515 162.85C379.579 126.925 452.137 87.3821 544.349 88.0523C583.78 88.3204 620.368 90.197 657.697 73.9775C692.555 58.8304 720.367 40.8684 756.707 40.6003C792.677 40.4662 824.939 57.3559 861.156 68.4817C908.127 82.8245 954.356 75.1839 1002.19 71.5647C1092.67 64.7284 1188.1 87.5161 1274.25 116.202C1334.57 136.309 1409.23 128.668 1465.11 161.911C1528.15 199.712 1382.53 176.254 1405.65 208.961Z" stroke="#E721BB" stroke-width="0.5" stroke-miterlimit="10" stroke-linecap="round" stroke-linejoin="round"/>
<path d="M1399.22 206.95C1408.86 226.923 1455.46 243.277 1463.13 267.137C1470.91 291.399 1439.15 294.75 1422.34 298.771C1349.16 316.331 1269.93 308.691 1201.57 345.821C1137.17 380.807 1057.45 390.19 986.495 393.676C897.373 398.099 821.354 327.993 740.391 328.932C662.147 329.87 594.534 414.721 508.75 407.616C491.321 406.142 453.373 403.997 440.271 387.778C433.102 378.931 434.708 367.269 428.528 358.019C411.594 332.685 362.892 337.108 338.294 336.84C270.557 336.036 202.202 341.666 134.835 332.953C121.239 331.21 62.8955 325.58 75.6272 301.318C87.8643 277.994 149.421 279.067 161.164 262.445C177.109 239.792 43.7363 216.736 98.6182 193.814C163.018 166.871 236.688 190.865 302.448 162.313C387.614 125.183 458.936 86.5778 553.743 89.3928C589.219 90.4651 623.582 89.2587 657.079 75.318C692.555 60.439 721.355 42.0748 757.943 41.9408C793.543 41.8067 825.928 58.1602 861.898 69.0179C907.88 82.9586 953.368 76.6585 1000.22 72.9052C1090.08 65.8008 1183.53 86.98 1268.94 116.202C1328.15 136.577 1399.84 129.07 1455.34 160.571C1519.25 196.763 1386.24 179.873 1399.22 206.95Z" stroke="#E721BB" stroke-width="0.5" stroke-miterlimit="10" stroke-linecap="round" stroke-linejoin="round"/>
<path d="M1393.29 205.074C1402.44 235.368 1494.77 270.086 1424.44 292.471C1349.65 316.331 1267.21 304.669 1195.52 341.8C1131.86 374.775 1059.18 385.767 988.967 389.252C900.958 393.541 823.332 323.436 743.605 324.374C667.462 325.312 598.242 410.163 514.188 403.193C495.523 401.584 460.295 399.439 446.822 382.014C440.394 373.703 441.507 362.041 434.585 353.864C413.942 329.334 358.566 336.036 331.99 336.17C275.007 336.438 217.282 339.923 160.422 333.087C145.713 331.344 79.5824 325.446 100.843 297.431C116.665 276.654 166.973 275.716 173.401 259.764C180.57 241.936 55.4788 215.395 109.866 194.216C173.524 169.552 243.857 190.195 308.134 161.241C392.311 123.306 462.149 87.7842 556.215 90.331C591.32 91.2693 625.312 89.1246 658.315 75.452C693.667 60.8411 722.839 43.013 759.179 42.745C794.655 42.6109 828.523 59.0985 864.493 69.6881C906.273 82.0202 947.558 77.7308 990.079 74.6477C1083.53 67.9455 1174.5 85.2373 1263.38 115.8C1320.61 135.504 1387.6 129.606 1442.11 157.086C1514.8 194.082 1386 181.214 1393.29 205.074Z" stroke="#E721BB" stroke-width="0.5" stroke-miterlimit="10" stroke-linecap="round" stroke-linejoin="round"/>
<path d="M1387.97 203.331C1391.68 230.408 1480.56 268.075 1414.55 289.254C1341.62 312.712 1261.28 303.865 1190.7 337.779C1129.26 367.268 1066.47 380.271 998.855 384.158C909.487 389.386 830.748 319.548 750.156 320.621C672.777 321.693 600.714 406.678 514.683 397.965C496.389 396.088 467.959 393.943 454.115 378.26C446.946 370.083 447.564 357.751 439.529 349.709C416.661 326.787 354.61 335.634 327.911 335.768C274.265 336.036 218.147 340.996 165.119 330.138C144.229 325.848 100.596 318.208 125.688 292.471C142.005 275.716 182.548 271.962 184.526 256.949C186.38 242.74 143.241 229.202 124.576 221.293C101.955 211.776 92.314 204.94 120.868 194.618C183.537 171.83 250.903 189.39 313.572 160.169C396.761 121.429 465.363 89.1246 558.316 91.1352C592.927 91.8055 626.672 88.9905 659.304 75.586C694.532 61.2431 723.951 43.8173 760.168 43.6832C795.397 43.5492 829.142 59.5005 864.864 69.9561C905.655 81.8861 946.198 78.669 987.854 75.72C1080.68 69.1518 1169.56 84.433 1257.69 115.531C1313.69 135.236 1378.46 129.606 1432.1 155.745C1505.28 191.401 1385.13 183.492 1387.97 203.331Z" stroke="#E721BB" stroke-width="0.5" stroke-miterlimit="10" stroke-linecap="round" stroke-linejoin="round"/>
<path d="M1383.03 201.723C1380.93 228.264 1467.7 261.507 1407.63 284.965C1337.17 312.444 1257.32 302.793 1187.23 333.757C1123.7 361.773 1060.78 379.601 990.821 379.869C908.869 380.271 834.086 316.465 759.303 317.404C682.543 318.342 610.479 397.161 525.931 393.273C506.772 392.469 476.117 390.056 461.037 374.373C452.384 365.258 451.519 353.462 440.765 346.089C411.594 325.983 355.97 335.366 323.708 335.634C273.894 336.036 219.383 341.264 170.805 326.921C88.606 302.525 196.392 276.386 194.909 254.134C193.673 237.513 148.803 228.398 130.138 220.087C104.057 208.559 109.743 201.723 135.33 193.814C196.516 175.048 259.309 188.184 319.135 158.694C397.75 120.089 465.981 89.9289 554.114 91.6715C589.837 92.3417 624.694 89.9289 658.439 76.6584C694.285 62.5837 724.693 44.8897 761.405 44.6216C796.262 44.4876 830.007 59.7687 865.482 70.0902C905.284 81.6181 944.962 79.4734 985.753 76.6584C1077.96 70.2242 1164.86 83.6288 1252.38 115.129C1307.01 134.834 1369.8 129.472 1422.58 154.271C1495.64 188.854 1384.51 182.42 1383.03 201.723Z" stroke="#E721BB" stroke-width="0.5" stroke-miterlimit="10" stroke-linecap="round" stroke-linejoin="round"/>
<path d="M1378.33 200.248C1371.53 224.376 1449.28 252.392 1404.41 279.737C1371.04 299.978 1317.89 299.71 1280.93 306.412C1248.79 312.176 1215.42 317.136 1184.89 330.004C1124.44 355.339 1067.95 373.971 1001.58 375.311C919.87 376.92 845.334 314.053 770.799 314.991C691.566 315.929 614.187 395.686 526.673 388.582C507.885 387.107 481.927 385.365 467.094 371.022C457.082 361.371 454.486 349.977 441.631 343.274C411.841 327.725 365.241 335.634 333.968 335.902C287.491 336.304 234.587 340.996 189.594 326.251C110.114 300.112 211.473 273.839 205.045 251.722C199.977 234.564 158.815 230.006 137.802 219.953C112.092 207.755 122.846 201.455 146.331 194.484C206.034 176.522 266.849 187.246 324.945 157.89C402.571 118.749 469.566 91.6715 556.833 92.7439C592.185 93.146 626.672 89.9289 660.046 77.0606C695.769 63.2539 726.547 45.9621 763.012 45.828C798.24 45.694 832.603 61.1092 868.573 71.1626C903.925 81.0819 940.142 80.9479 976.359 78.5351C1070.3 71.9669 1158.19 81.4841 1247.31 114.861C1301.45 135.102 1364.12 129.204 1416.03 154.673C1482.78 187.38 1383.52 181.616 1378.33 200.248Z" stroke="#E721BB" stroke-width="0.5" stroke-miterlimit="10" stroke-linecap="round" stroke-linejoin="round"/>
<path d="M1373.76 198.908C1362.63 222.634 1441 252.794 1390.69 278.397C1327.53 310.567 1249.16 300.112 1183.4 325.849C1123.95 349.038 1071.91 369.95 1006.52 370.352C927.781 370.888 856.088 312.042 783.777 312.712C702.691 313.516 621.851 390.19 532.853 383.89C512.705 382.416 488.478 380.137 471.667 366.598C460.048 357.215 455.475 346.089 440.765 340.594C365.982 312.846 278.097 356.009 202.82 323.302C133.228 293.008 227.912 272.767 214.068 249.041C203.685 231.213 167.221 230.677 144.848 219.551C119.632 206.95 135.453 200.784 156.343 194.618C214.686 177.326 273.524 185.771 329.889 156.549C406.649 116.872 472.532 92.878 558.811 93.4141C593.792 93.6822 627.784 89.7949 660.911 77.1947C696.51 63.6561 727.536 46.9004 763.877 46.7664C798.858 46.6324 833.097 61.5114 868.696 71.2967C903.306 80.8139 938.658 81.3501 974.257 79.2054C1067.33 73.4414 1153.24 80.6798 1241.62 114.459C1294.53 134.7 1355.22 129.204 1406.14 153.332C1472.52 184.565 1382.29 180.678 1373.76 198.908Z" stroke="#E721BB" stroke-width="0.5" stroke-miterlimit="10" stroke-linecap="round" stroke-linejoin="round"/>
<path d="M1369.43 197.567C1354.6 220.087 1423.33 245.689 1385.13 273.035C1359.3 291.533 1319 293.41 1289.21 298.503C1253.61 304.535 1217.15 308.825 1182.78 321.291C1122.59 343.14 1071.41 367.403 1005.04 365.928C932.354 364.319 865.729 310.165 797.992 310.701C714.557 311.372 630.256 384.694 539.281 379.333C517.896 378.126 494.164 375.177 475.623 362.443C462.396 353.328 455.722 342.872 439.653 338.449C368.331 318.61 284.154 358.421 216.046 320.219C158.073 287.646 244.105 270.354 222.968 246.762C208.011 230.14 175.626 232.285 153.871 219.819C132.239 207.487 141.51 202.795 163.389 195.691C220.99 177.192 279.58 184.431 335.575 155.477C364.993 140.196 392.558 123.306 423.954 112.448C472.162 95.5587 517.649 95.0226 567.834 94.2183C638.414 93.0119 700.466 48.1067 765.483 47.8386C833.097 47.5705 899.227 83.8968 972.774 80.0095C1064.86 75.0498 1149.04 80.0095 1236.43 114.057C1288.1 134.164 1346.81 129.338 1396.87 152.126C1461.89 181.482 1381.3 179.739 1369.43 197.567Z" stroke="#E721BB" stroke-width="0.5" stroke-miterlimit="10" stroke-linecap="round" stroke-linejoin="round"/>
<path d="M1365.23 196.361C1348.17 217.54 1405.9 239.792 1376.73 269.147C1356.33 289.79 1307.13 291.801 1281.67 295.688C1248.17 300.916 1214.3 305.34 1181.92 316.197C1159.42 323.704 1139.64 337.108 1117.27 344.749C1086.86 355.07 1052.87 360.164 1021.1 360.968C947.805 362.711 881.057 308.289 812.949 308.557C728.277 308.825 642.988 374.909 551.889 374.641C527.414 374.507 499.726 371.022 478.095 357.349C463.756 348.234 455.104 339.923 438.169 336.304C372.781 322.497 285.39 359.628 226.8 315.125C188.852 286.305 256.095 263.249 231.497 244.349C214.562 231.347 109.125 216.334 173.772 195.691C230.013 177.729 286.997 182.956 341.261 154.137C370.185 138.855 397.255 122.368 428.281 111.778C475.87 95.5588 520.987 95.961 570.306 94.6205C640.145 92.7439 702.443 48.9111 767.09 48.643C833.591 48.3749 899.351 83.7629 971.414 80.5458C1062.51 76.3904 1144.96 79.3394 1231.36 113.521C1281.79 133.494 1338.53 129.472 1387.85 150.92C1398.6 155.611 1421.47 165.128 1414.43 179.471C1409.85 188.586 1371.04 189.122 1365.23 196.361Z" stroke="#E721BB" stroke-width="0.5" stroke-miterlimit="10" stroke-linecap="round" stroke-linejoin="round"/>
<path d="M1360.9 195.289C1340.51 214.859 1394.15 240.06 1365.23 267.137C1344.46 286.573 1308.74 287.378 1283.15 291.265C1248.91 296.627 1213.93 300.112 1180.56 310.836C1157.07 318.342 1136.93 332.551 1114.06 341.13C1084.39 352.121 1050.15 356.143 1019 356.009C951.884 355.607 891.069 306.68 827.782 306.814C740.268 306.948 651.641 369.279 558.069 369.95C531.864 370.084 503.929 366.33 480.443 353.06C465.116 344.481 454.609 337.108 436.933 334.428C380.197 325.581 287.491 359.494 240.52 312.176C215.551 286.975 265.86 257.754 239.284 242.472C219.383 230.945 117.53 217.138 183.537 195.825C238.543 177.997 293.795 181.616 346.7 153.064C375.129 137.783 401.829 121.832 432.484 111.644C479.455 95.961 524.324 97.4355 572.779 95.5589C641.876 93.012 704.298 50.2516 768.574 50.1175C834.086 49.8494 899.351 84.2991 970.055 81.6181C1059.92 78.267 1140.88 79.2053 1226.17 113.521C1275.49 133.36 1330.25 130.277 1378.7 150.383C1387.85 154.137 1413.44 164.592 1407.38 178.801C1403.42 187.112 1366.84 189.525 1360.9 195.289Z" stroke="#E721BB" stroke-width="0.5" stroke-miterlimit="10" stroke-linecap="round" stroke-linejoin="round"/>
<path d="M1356.45 194.216C1336.06 210.033 1374.99 238.317 1356.95 262.177C1341.99 281.882 1304.54 283.49 1283.65 286.573C1248.79 291.801 1213.44 295.152 1179.32 305.072C1122.09 321.693 1078.34 353.998 1015.79 351.049C955.098 348.1 900.216 304.535 841.873 304.535C751.639 304.535 659.551 363.247 563.755 364.588C535.573 364.99 508.75 360.7 483.039 348.234C466.599 340.325 454.115 333.757 435.697 331.881C387.243 327.055 289.716 356.545 253.746 308.557C237.059 286.439 273.4 251.856 246.453 240.06C225.934 231.213 126.43 217.004 192.931 195.02C246.701 177.326 300.47 179.471 352.015 151.053C379.95 135.772 406.279 120.223 436.439 110.438C482.792 95.4247 527.291 97.5694 575.004 95.2907C643.482 92.0736 705.904 50.5195 769.933 50.2515C836.435 49.9834 902.936 83.8968 974.752 81.0819C1061.15 77.7307 1138.9 79.6074 1220.73 112.314C1269.56 131.751 1324.93 128.534 1372.4 149.579C1379.07 152.528 1405.4 164.592 1400.09 176.388C1395.64 186.844 1363.5 188.72 1356.45 194.216Z" stroke="#E721BB" stroke-width="0.5" stroke-miterlimit="10" stroke-linecap="round" stroke-linejoin="round"/>
<path d="M1352 193.144C1329.63 207.084 1362.26 237.513 1347.06 258.96C1332.23 280.005 1295.14 279.737 1273.64 282.686C1241.5 287.244 1209.11 290.327 1177.59 298.771C1121.1 314.053 1078.83 349.306 1017.52 345.419C960.908 341.934 909.982 302.257 855.223 302.123C760.663 301.854 663.136 359.896 563.014 359.628C516.414 359.494 480.444 332.953 435.697 329.468C392.682 326.117 298.493 352.524 268.332 307.082C253.87 285.233 283.165 248.773 253.376 238.317C232.239 230.944 135.454 217.138 202.078 194.752C254.735 177.058 307.145 177.997 357.454 149.847C384.895 134.566 410.852 119.553 440.642 110.304C486.377 95.9609 530.628 98.7759 577.476 96.095C645.213 92.2077 707.882 51.8601 771.417 51.592C836.929 51.4579 902.812 84.165 973.269 82.0202C1058.43 79.4734 1134.82 79.4734 1215.54 112.18C1263.25 131.483 1316.53 129.338 1363.38 149.043C1371.41 152.394 1394.9 162.447 1392.42 175.45C1390.69 184.431 1357.57 189.659 1352 193.144Z" stroke="#E721BB" stroke-width="0.5" stroke-miterlimit="10" stroke-linecap="round" stroke-linejoin="round"/>
<path d="M1347.18 192.071C1323.2 204.94 1350.77 237.647 1334.57 257.485C1321.23 273.973 1290.32 274.911 1272.4 277.324C1239.77 281.614 1206.76 284.026 1174.63 292.069C1121.6 305.34 1078.21 342.068 1021.85 340.459C968.077 338.851 919.128 299.844 866.719 299.71C769.81 299.308 669.44 353.864 567.216 354.534C520.245 354.802 481.432 329.736 435.574 327.323C396.514 325.178 305.538 348.636 280.075 304.133C265.984 279.603 295.65 248.37 259.68 237.111C237.925 230.274 144.106 217.272 210.731 194.618C262.399 176.924 313.449 176.79 362.769 148.909C389.592 133.628 415.302 119.285 444.844 110.304C489.838 96.7652 533.966 99.9823 580.072 96.8993C647.191 92.4758 709.86 53.2005 773.147 53.0665C837.671 52.9324 902.936 84.7011 971.909 83.0926C1055.72 81.216 1130.99 79.7415 1210.47 112.18C1257.2 131.349 1308.37 130.411 1354.6 148.775C1362.14 151.724 1386.86 161.911 1384.64 174.646C1382.78 184.163 1353.36 188.854 1347.18 192.071Z" stroke="#E721BB" stroke-width="0.5" stroke-miterlimit="10" stroke-linecap="round" stroke-linejoin="round"/>
<path d="M1342.24 191.133C1316.9 202.929 1339.02 234.162 1324.81 252.66C1313.07 267.941 1285.75 269.416 1269.43 271.694C1236.8 276.252 1204.04 277.994 1171.78 285.233C1119 297.163 1070.55 339.119 1015.05 334.83C994.282 333.221 976.853 323.57 957.941 315.259C930.624 303.329 904.172 296.627 876.113 296.493C777.721 296.091 675.373 346.894 571.913 348.77C524.571 349.575 483.286 326.117 436.439 324.374C400.84 323.034 313.82 343.543 291.694 300.514C277.603 273.303 306.65 246.896 265.736 235.368C242.622 228.934 152.635 216.468 219.878 193.68C270.557 176.522 320 174.78 368.084 147.166C394.412 132.019 419.875 118.078 448.923 109.634C493.175 96.7653 537.179 100.25 582.42 96.8993C649.045 91.9397 711.59 53.8708 774.507 53.7368C840.019 53.6027 906.397 84.8353 976.482 83.2267C1056.46 81.3501 1129.39 79.6075 1205.03 111.51C1249.9 130.411 1297.25 131.751 1342.49 147.032C1349.9 149.579 1378.08 159.498 1376.23 172.635C1374.99 183.895 1349.66 187.648 1342.24 191.133Z" stroke="#E721BB" stroke-width="0.5" stroke-miterlimit="10" stroke-linecap="round" stroke-linejoin="round"/>
<path d="M1337.05 190.195C1310.22 201.455 1328.89 229.47 1315.54 248.102C1305.77 261.641 1279.94 264.054 1266.1 266.064C1233.34 270.756 1200.34 271.158 1167.7 277.726C1116.65 288.182 1068.82 329.2 1016.28 328.127C995.642 327.725 981.303 319.548 962.762 311.238C935.692 299.174 910.97 293.007 882.911 292.873C784.396 292.337 681.059 340.057 577.599 343.14C529.516 344.615 486.006 322.631 438.046 321.291C406.155 320.353 321.607 337.913 302.942 296.895C289.345 267.003 315.303 245.019 271.175 234.028C245.835 227.727 160.793 215.127 229.395 192.742C278.962 176.522 326.551 172.769 373.275 145.692C443.979 104.674 506.525 103.736 584.769 97.3014C650.775 91.8055 713.197 54.9431 775.99 54.809C840.514 54.675 906.026 84.9692 974.876 83.7628C1053.49 82.4224 1125.31 79.4734 1199.72 110.974C1243.35 129.472 1288.96 132.019 1333.34 146.362C1341.37 148.909 1368.69 157.622 1368.07 171.294C1367.58 183.09 1344.59 186.978 1337.05 190.195Z" stroke="#E721BB" stroke-width="0.5" stroke-miterlimit="10" stroke-linecap="round" stroke-linejoin="round"/>
<path d="M1331.61 189.256C1304.66 199.846 1317.89 225.851 1304.41 244.751C1295.89 256.949 1270.3 258.826 1258.19 260.435C1226.54 264.858 1194.65 264.322 1163.01 270.086C1111.71 279.335 1063.75 319.548 1012.08 320.353C992.799 320.621 980.067 313.65 962.885 306.01C936.928 294.348 913.566 288.718 886.619 288.584C789.093 288.182 686.251 333.623 583.903 337.511C535.202 339.387 489.714 319.012 440.889 317.94C411.223 317.27 331.619 331.613 314.191 293.276C300.099 262.043 322.72 242.472 276.614 232.821C264.871 230.408 219.136 229.336 212.09 217.272C203.067 201.589 227.294 195.557 239.779 191.669C288.109 176.254 333.721 170.624 378.838 144.217C448.182 103.736 510.975 104.54 587.612 97.5695C653.124 91.6716 715.422 55.8815 777.844 55.7474C839.525 55.6134 902.688 84.031 968.077 84.165C1047.68 84.2991 1119 79.0713 1194.65 110.572C1236.18 127.864 1278.58 132.153 1320.98 144.753C1330.62 147.568 1360.78 155.477 1359.67 171.563C1359.05 182.286 1338.65 186.442 1331.61 189.256Z" stroke="#E721BB" stroke-width="0.5" stroke-miterlimit="10" stroke-linecap="round" stroke-linejoin="round"/>
<path d="M1325.8 188.318C1297 199.176 1309.11 224.912 1292.3 242.606C1266.47 269.952 1190.45 257.351 1157.82 262.445C1106.64 270.622 1061.28 306.278 1010.72 311.506C991.562 313.516 979.325 308.691 961.897 301.452C935.939 290.729 913.195 284.026 886.619 283.758C791.935 282.954 690.453 327.591 590.331 332.015C541.135 334.159 493.917 315.259 444.597 314.187C416.909 313.516 341.384 324.91 324.944 289.656C320.124 279.201 326.057 267.271 322.472 256.681C316.292 238.719 297.503 234.832 281.558 231.883C270.186 229.738 225.44 228.934 219.012 216.736C210.607 200.918 239.408 193.948 250.409 190.463C297.38 175.718 340.643 168.345 384.276 142.877C452.508 103.199 515.177 105.344 590.331 97.8376C655.225 91.4034 717.523 56.8197 779.575 56.6857C840.39 56.5516 902.688 84.0309 966.964 84.5671C1044.96 85.2373 1115.42 78.9372 1189.58 110.036C1229.76 126.925 1270.55 132.019 1311.83 144.083C1345.45 154.003 1367.45 172.635 1325.8 188.318Z" stroke="#E721BB" stroke-width="0.5" stroke-miterlimit="10" stroke-linecap="round" stroke-linejoin="round"/>
<path d="M1319.74 187.38C1290.57 198.103 1300.21 222.5 1281.79 238.987C1254.35 263.652 1184.27 250.247 1151.51 254.537C1099.23 261.507 1055.22 294.348 1004.42 302.525C964.863 308.825 921.601 280.005 883.776 279.603C794.284 278.531 697.128 319.683 602.074 325.849C550.529 329.2 500.592 311.104 448.923 309.897C422.595 309.227 349.419 318.342 334.215 284.563C330.136 275.448 335.451 263.92 331.743 254.671C324.45 236.709 301.953 233.491 286.008 230.811C274.76 228.934 232.362 228.398 226.305 215.529C218.889 199.846 251.645 191.937 261.163 188.988C306.403 174.78 347.688 165.933 389.592 141.536C456.34 102.529 519.504 106.014 592.927 98.2398C657.327 91.4034 719.378 58.0262 781.182 57.8921C839.154 57.7581 898.98 83.7629 959.919 85.1033C1037.79 86.8459 1109.98 77.8649 1184.14 109.634C1223.82 126.657 1264.37 131.885 1305.03 144.351C1335.07 153.466 1359.67 172.635 1319.74 187.38Z" stroke="#E721BB" stroke-width="0.5" stroke-miterlimit="10" stroke-linecap="round" stroke-linejoin="round"/>
<path d="M1313.44 186.441C1284.76 196.629 1290.32 218.076 1271.78 235.502C1260.9 245.689 1235.32 243.277 1222.59 243.679C1196.5 244.751 1170.55 244.081 1144.47 246.762C1091.07 252.392 1048.42 281.882 997.372 293.41C958.806 302.122 915.173 276.922 878.585 276.52C791.194 275.582 695.768 317.001 602.815 320.755C553.248 322.765 504.3 306.948 454.486 305.206C427.539 304.267 361.038 312.176 344.227 282.016C339.407 273.303 344.845 261.239 340.519 252.66C331.866 235.502 306.156 232.419 290.087 229.872C278.962 228.13 240.273 227.459 234.463 214.189C227.912 199.176 263.758 190.061 272.287 187.38C315.797 173.707 354.858 163.654 395.03 140.062C460.419 101.859 523.953 106.416 595.77 98.3737C659.675 91.2693 721.479 58.9644 783.036 58.8304C840.266 58.6963 899.227 83.7628 959.054 85.3713C1035.32 87.5161 1106.27 78.2669 1179.08 109.097C1217.39 125.317 1256.33 131.349 1295.64 143.413C1321.72 151.59 1354.23 171.965 1313.44 186.441Z" stroke="#E721BB" stroke-width="0.5" stroke-miterlimit="10" stroke-linecap="round" stroke-linejoin="round"/>
<path d="M1307.26 185.369C1294.65 189.659 1282.54 195.825 1274.62 208.157C1269.19 216.602 1270.67 224.912 1262.39 231.883C1251.14 241.4 1226.42 238.183 1213.69 238.317C1188.1 238.585 1162.51 237.245 1136.93 239.121C1082.54 243.277 1041.01 269.416 990.079 284.16C951.637 295.286 908.498 274.509 871.663 274.241C788.104 273.571 697.499 311.774 608.996 315.393C559.676 317.404 510.233 302.525 460.666 300.112C434.461 298.905 369.443 306.546 352.756 278.128C347.936 269.818 352.756 257.62 347.936 249.711C338.665 234.162 308.505 231.347 293.672 228.934C284.278 227.459 245.465 225.583 242.992 211.91C240.149 195.959 276.737 187.782 286.502 184.699C327.293 171.965 363.016 160.705 400.593 138.721C462.644 102.127 525.19 106.685 593.421 99.178C658.563 92.0736 721.974 59.9028 784.766 59.7687C842.739 59.6347 902.688 84.299 963.38 85.7735C1036.06 87.6501 1104.54 79.7415 1173.88 108.695C1209.85 123.708 1246.07 130.947 1283.03 141.804C1304.17 148.105 1350.15 170.624 1307.26 185.369Z" stroke="#E721BB" stroke-width="0.5" stroke-miterlimit="10" stroke-linecap="round" stroke-linejoin="round"/>
<path d="M1301.08 184.163C1289.46 187.782 1275.61 193.814 1267.21 204.806C1261.15 212.848 1262.26 221.561 1253.74 228.129C1226.79 248.907 1159.67 230.274 1129.01 231.749C1074.13 234.162 1033.09 257.217 982.415 275.045C943.603 288.718 901.205 272.498 863.257 272.364C784.89 272.096 701.454 305.742 619.255 310.031C569.07 312.712 518.144 297.565 467.712 294.616C442.372 293.141 379.085 301.318 361.285 275.447C355.723 267.405 360.049 255.207 354.858 247.432C344.969 232.955 312.336 230.14 297.627 227.593C289.469 226.253 252.634 223.438 252.757 209.631C252.881 193.412 287.12 186.173 297.998 182.688C336.811 170.222 370.432 158.158 406.279 137.247C467.094 101.591 530.01 106.953 596.635 99.312C661.282 91.9395 724.322 60.841 786.744 60.841C845.581 60.707 906.397 84.9692 968.077 86.3096C1037.3 87.9181 1102.81 80.5457 1168.69 108.293C1204.29 123.172 1240.01 130.679 1276.48 141.804C1292.55 146.764 1341 171.696 1301.08 184.163Z" stroke="#E721BB" stroke-width="0.5" stroke-miterlimit="10" stroke-linecap="round" stroke-linejoin="round"/>
<path d="M1294.65 182.956C1283.65 186.442 1269.8 191.937 1261.03 201.589C1254.23 209.095 1254.23 218.478 1245.58 224.51C1216.78 244.215 1152.62 224.51 1120.98 224.913C1065.73 225.449 1024.81 245.69 974.505 266.199C934.827 282.284 893.418 271.024 853.616 271.158C777.968 271.426 698.488 303.195 619.873 305.206C571.914 306.412 523.336 291.801 475.252 288.986C447.811 287.378 387.49 297.565 367.837 270.622C362.645 263.384 365.859 252.526 360.173 245.422C348.554 231.079 317.405 229.336 301.954 226.387C293.425 224.779 264.995 222.5 262.646 209.497C260.05 194.216 298.493 184.565 306.774 181.75C344.475 168.882 376.736 156.147 411.717 136.041C470.184 102.395 530.505 107.221 594.534 100.116C660.417 92.744 725.064 61.9136 788.722 61.7795C845.087 61.6455 903.307 84.1651 962.02 86.4438C1031.36 88.9907 1097.49 80.6799 1163.75 107.891C1197 121.564 1230 130.009 1264.24 140.062C1276.6 143.949 1333.96 170.758 1294.65 182.956Z" stroke="#E721BB" stroke-width="0.5" stroke-miterlimit="10" stroke-linecap="round" stroke-linejoin="round"/>
<path d="M1288.22 181.75C1277.84 184.967 1264.24 190.061 1255.59 198.64C1248.3 205.744 1246.57 214.993 1238.16 221.025C1210.47 240.596 1143.97 219.685 1113.69 219.015C1057.94 217.674 1017.03 235.234 966.717 257.754C925.927 276.118 885.507 269.684 843.357 270.22C773.147 271.024 701.207 297.163 629.267 299.978C579.948 301.854 530.876 286.037 481.309 283.758C452.261 282.418 394.659 293.008 372.904 266.064C366.106 257.62 369.691 249.577 360.173 241.132C347.194 229.604 321.854 228.264 306.28 224.913C256.713 214.323 279.086 193.546 315.303 180.678C351.767 167.675 383.164 154.405 417.156 134.968C475.499 101.457 538.663 108.025 602.321 99.8483C665.979 91.6715 728.525 63.1199 790.329 62.9859C845.829 62.8518 903.183 84.4331 960.908 86.8459C1028.52 89.7949 1093.66 81.216 1158.31 107.623C1190.32 120.625 1221.84 129.606 1254.72 139.392C1264.61 142.475 1325.18 170.49 1288.22 181.75Z" stroke="#E721BB" stroke-width="0.5" stroke-miterlimit="10" stroke-linecap="round" stroke-linejoin="round"/>
<path d="M1281.42 180.409C1259.3 188.854 1250.77 203.733 1232.85 216.468C1204.66 236.44 1138.41 215.529 1107.75 213.653C1049.41 210.302 1007.76 226.655 955.469 251.185C914.926 270.22 875.495 268.343 832.479 269.147C765.236 270.354 697.499 294.214 629.267 294.884C581.307 295.42 534.213 279.737 485.882 278.665C458.441 278.128 399.727 288.584 378.59 263.383C371.174 254.537 373.522 247.432 363.634 239.121C350.655 228.13 327.169 226.923 311.348 223.036C260.792 210.838 300.717 187.916 329.518 177.46C362.892 165.396 391.322 151.054 422.471 133.628C478.095 102.395 539.404 107.891 599.972 100.518C664.99 92.6098 729.019 64.0582 792.059 63.9241C844.963 63.7901 899.722 83.7628 954.604 86.9799C1021.85 90.8672 1088.35 80.8138 1152.75 107.221C1184.14 120.089 1215.66 129.07 1247.8 139.392C1257.69 142.475 1314.3 167.943 1281.42 180.409Z" stroke="#E721BB" stroke-width="0.5" stroke-miterlimit="10" stroke-linecap="round" stroke-linejoin="round"/>
<path d="M1274.38 179.069C1254.97 188.318 1243.97 201.723 1226.79 212.848C1197.25 232.151 1134.7 211.642 1103.06 209.363C1043.73 205.074 1001.45 217.674 948.176 243.813C906.273 264.456 867.46 267.137 821.849 268.209C759.921 269.684 698.982 289.12 637.055 289.924C587.735 290.595 539.157 275.045 489.343 274.241C459.183 273.839 406.155 283.892 382.299 258.29C375.5 251.051 375.995 243.947 366.848 236.977C353.622 226.789 332.237 224.644 317.157 220.891C268.579 208.693 323.708 181.616 343.486 174.243C373.893 162.984 399.604 148.105 428.157 132.421C484.028 101.457 547.81 108.293 608.501 100.116C671.047 91.6715 732.975 65.1306 793.913 64.9965C847.559 64.8625 903.183 84.5671 958.806 87.5161C1022.84 91.0013 1086.12 82.4224 1147.43 106.819C1176.73 118.481 1205.78 128.132 1235.56 137.649C1243.72 140.196 1304.41 164.86 1274.38 179.069Z" stroke="#E721BB" stroke-width="0.5" stroke-miterlimit="10" stroke-linecap="round" stroke-linejoin="round"/>
<path d="M1266.96 177.729C1252.62 187.514 1237.17 199.444 1221.35 209.229C1190.82 227.996 1131.86 208.425 1099.6 205.878C1039.89 201.052 995.518 210.168 941.749 237.111C898.362 258.692 859.302 265.93 811.837 267.405C753.741 269.147 695.398 286.305 637.055 285.233C588.353 284.429 540.888 270.89 491.692 270.622C461.284 270.488 411.717 279.871 386.872 256.145C378.714 248.37 378.22 239.657 366.353 233.089C353.622 225.851 337.305 222.902 324.079 218.88C281.311 206.28 338.665 178.801 352.633 173.171C381.557 161.509 406.279 146.362 433.843 131.617C487.365 102.797 548.675 108.829 606.524 101.189C670.429 92.7439 733.716 66.337 796.015 66.2029C847.312 66.0689 900.34 83.7628 953.244 87.6501C1016.9 92.2077 1080.93 82.4224 1142.12 106.685C1158.8 113.253 1292.8 159.901 1266.96 177.729Z" stroke="#E721BB" stroke-width="0.5" stroke-miterlimit="10" stroke-linecap="round" stroke-linejoin="round"/>
<path d="M1259.05 176.254C1247.93 185.637 1230.87 196.629 1216.28 205.342C1185.38 223.84 1129.63 205.476 1097 202.795C1037.42 197.701 989.956 204.001 935.815 230.811C891.069 252.928 851.02 264.188 802.442 265.93C750.28 267.673 696.881 280.675 643.977 280.139C593.421 279.469 543.731 267.539 492.804 267.271C461.902 267.137 413.571 276.386 388.85 251.588C370.432 233.089 355.723 225.449 331.372 216.602C296.267 203.867 350.037 176.79 361.409 171.965C388.85 160.169 412.953 144.753 439.405 130.813C493.051 102.395 556.833 109.231 614.805 100.787C676.362 91.8056 737.548 67.5434 797.621 67.4093C849.66 67.2753 903.554 84.9693 957.323 88.4544C1017.77 92.3417 1078.58 84.4331 1136.55 106.551C1154.35 112.985 1280.06 158.694 1259.05 176.254Z" stroke="#E721BB" stroke-width="0.5" stroke-miterlimit="10" stroke-linecap="round" stroke-linejoin="round"/>
<path d="M1250.77 174.779C1242.73 183.492 1224.32 193.814 1211.58 201.454C1180.56 219.953 1128.4 203.063 1095.39 200.382C1036.56 195.422 985.382 199.31 931.118 225.18C885.012 247.164 844.098 262.177 794.284 263.92C747.313 265.662 698.364 275.582 650.404 275.045C597.624 274.375 545.585 264.188 492.557 263.92C462.149 263.786 416.538 272.498 392.064 248.772C375.006 232.285 361.903 224.778 339.777 213.519C309.246 197.969 365.488 172.635 374.882 168.345C399.357 157.085 420.988 141.67 444.844 129.472C496.389 103.333 557.204 108.963 612.58 101.323C675.497 92.6097 738.043 68.2135 799.476 68.0794C849.043 67.9454 900.093 84.0308 951.143 88.0522C1011.22 92.7438 1073.02 83.7627 1130.75 105.88C1148.54 112.582 1268.07 156.013 1250.77 174.779Z" stroke="#E721BB" stroke-width="0.5" stroke-miterlimit="10" stroke-linecap="round" stroke-linejoin="round"/>
<path d="M1241.99 173.171C1236.92 180.409 1218.01 191.401 1207.26 197.165C1174.87 214.591 1129.39 200.918 1094.9 198.237C1036.68 193.546 982.539 196.361 927.905 220.087C880.068 240.864 838.907 259.362 787.857 261.239C742.987 262.847 696.016 270.086 649.91 269.415C597.129 268.745 544.72 261.507 491.815 261.105C460.79 260.837 420.617 267.807 395.03 246.36C388.973 241.266 385.636 232.017 378.467 226.521C369.691 219.819 357.701 217.004 349.295 210.57C326.551 193.278 434.09 136.979 451.025 128.534C503.064 102.797 566.104 108.963 621.727 100.652C682.172 91.5374 742.245 69.1519 801.454 69.0178C851.762 68.8838 903.677 84.8352 955.593 88.5884C1012.58 92.7438 1070.67 85.5054 1125.68 105.478C1145.7 112.985 1255.1 154.405 1241.99 173.171Z" stroke="#E721BB" stroke-width="0.5" stroke-miterlimit="10" stroke-linecap="round" stroke-linejoin="round"/>
<path d="M1232.72 171.697C1217.39 205.342 1144.71 200.382 1094.9 196.629C1036.93 192.339 981.179 194.886 926.05 216.334C877.225 235.502 834.951 256.145 783.283 257.888C738.784 259.496 692.431 264.456 646.82 264.59C594.41 264.724 542.124 259.362 489.714 258.558C461.037 258.156 421.359 264.724 397.626 243.813C392.434 239.255 389.221 229.47 383.411 223.974C376.242 217.272 364.87 214.055 359.307 207.219C343.856 188.318 437.922 136.309 456.34 127.596C506.277 104.138 566.351 109.231 619.379 101.457C681.183 92.4758 742.74 70.0902 803.184 69.9562C854.358 69.8221 907.138 85.6395 959.795 89.2587C1013.19 93.012 1068.08 86.5778 1119.5 105.21C1142.98 113.789 1242.24 150.785 1232.72 171.697Z" stroke="#E721BB" stroke-width="0.5" stroke-miterlimit="10" stroke-linecap="round" stroke-linejoin="round"/>
<path d="M1222.96 170.088C1213.44 200.65 1138.41 197.969 1095.27 195.423C1039.03 192.205 983.528 193.68 929.264 212.044C878.461 229.202 834.21 251.99 781.058 253.732C684.52 256.949 586.128 259.228 487.365 256.547C455.722 255.743 419.999 261.507 397.997 235.904C389.715 226.253 375.006 213.921 370.309 204.001C360.173 182.42 442.743 136.041 462.273 127.059C512.829 104.004 574.633 109.231 628.279 100.921C687.487 91.6715 746.695 71.4307 804.915 71.1626C856.83 71.0286 910.599 86.5778 964.122 90.063C1014.31 93.2801 1065.48 88.4544 1113.93 105.076C1140.39 114.191 1229.51 148.909 1222.96 170.088Z" stroke="#E721BB" stroke-width="0.5" stroke-miterlimit="10" stroke-linecap="round" stroke-linejoin="round"/>
<path d="M1212.82 168.345C1208 196.897 1131.36 195.825 1096.38 194.35C1039.77 191.937 983.528 193.546 928.646 209.899C878.214 224.912 832.479 247.03 780.44 248.773C683.037 251.99 583.78 258.022 484.275 254.536C455.722 253.464 419.628 258.826 401.705 233.491C395.648 224.913 384.276 208.693 382.422 200.382C377.478 177.595 445.462 136.309 467.835 126.523C519.751 103.87 583.038 109.231 637.796 100.25C694.533 91.0013 751.021 72.503 806.769 72.369C852.874 72.2349 900.34 84.9692 947.682 89.3927C1000.83 94.3524 1056.33 87.7842 1107.88 105.076C1135.44 114.191 1216.78 145.156 1212.82 168.345Z" stroke="#E721BB" stroke-width="0.5" stroke-miterlimit="10" stroke-linecap="round" stroke-linejoin="round"/>
<path d="M1202.31 166.603C1202.56 195.423 1120.12 193.948 1097.99 193.412C1042.74 192.071 987.484 193.68 933.467 206.95C880.81 219.819 831.49 242.204 778.092 244.081C680.812 247.432 581.679 258.022 481.927 252.526C455.475 251.051 420.617 255.877 406.032 230.945C402.571 225.047 395.525 202.393 395.401 196.495C394.783 170.624 451.148 135.37 474.387 125.853C524.077 105.478 583.656 109.366 635.819 101.055C693.791 91.8056 751.763 73.3073 808.746 73.1733C855.594 73.0393 904.048 85.6395 952.132 89.7949C1002.07 94.2184 1053.98 89.2587 1102.56 104.674C1131.86 114.057 1202.07 138.453 1202.31 166.603Z" stroke="#E721BB" stroke-width="0.5" stroke-miterlimit="10" stroke-linecap="round" stroke-linejoin="round"/>
<path d="M1191.31 164.86C1195.39 193.412 1114.43 192.607 1099.1 192.607C1043.35 192.742 987.731 194.35 932.849 206.012C879.203 217.406 827.782 238.183 773.765 239.925C676.857 243.143 578.341 258.022 478.96 250.783C454.733 249.041 419.505 253.732 411.099 227.325C408.998 220.891 407.885 198.64 408.874 192.742C413.695 165.53 454.609 135.37 479.825 125.585C527.167 107.221 583.903 110.036 633.594 102.261C692.926 93.0119 752.258 74.5136 810.724 74.2455C856.83 74.1115 904.295 85.9075 951.39 90.1969C999.597 94.6204 1049.78 90.1969 1096.75 104.54C1126.42 113.789 1186.86 133.359 1191.31 164.86Z" stroke="#E721BB" stroke-width="0.5" stroke-miterlimit="10" stroke-linecap="round" stroke-linejoin="round"/>
<path d="M1180.06 162.984C1187.98 191.267 1110.72 191.267 1099.97 191.535C1043.73 193.412 987.731 194.752 932.107 205.074C877.102 215.261 823.332 234.028 768.203 235.904C672.159 239.121 575.004 257.888 476.859 248.907C449.418 246.36 420.37 251.319 418.516 220.891C418.021 212.714 420.864 195.959 423.213 188.586C431.866 160.437 458.565 135.37 486.377 125.317C535.449 107.623 592.185 109.768 643.235 101.457C699.848 92.2076 756.707 75.586 812.578 75.3179C859.426 75.1839 907.756 86.8458 955.716 91.0012C1000.46 94.8885 1046.69 91.5374 1090.33 104.54C1120.98 113.655 1170.55 128.668 1180.06 162.984Z" stroke="#E721BB" stroke-width="0.5" stroke-miterlimit="10" stroke-linecap="round" stroke-linejoin="round"/>
<path d="M1168.45 160.973C1178.33 189.793 1111.22 189.525 1099.6 190.329C1037.17 194.618 975.246 196.227 913.319 207.353C862.516 216.602 812.331 230.408 761.404 232.017C666.721 235.1 571.048 257.351 474.757 246.628C469.071 245.958 430.629 243.947 425.067 235.368C419.505 226.923 425.314 226.387 426.056 218.21C426.797 209.229 434.461 192.205 437.675 184.297C449.171 156.013 460.913 135.504 491.692 125.049C542.495 107.623 600.714 109.366 653 100.519C706.893 91.4034 760.91 76.5244 814.061 76.2563C858.437 76.1223 904.048 86.3097 949.536 90.7332C994.158 95.0227 1040.76 91.8056 1084.39 104.406C1115.29 113.387 1156.33 125.719 1168.45 160.973Z" stroke="#E721BB" stroke-width="0.5" stroke-miterlimit="10" stroke-linecap="round" stroke-linejoin="round"/>
<path d="M1156.7 158.962C1167.58 183.492 1107.26 187.648 1098.36 188.586C1035.81 195.288 973.268 196.495 911.094 206.28C858.684 214.591 806.645 226.789 753.988 228.398C662.023 231.213 568.452 256.949 475.499 244.081C449.17 240.462 429.64 242.875 434.832 215.663C436.686 205.61 448.305 189.39 452.879 180.007C467.341 150.517 462.149 136.577 498.614 124.915C546.821 109.365 601.208 109.768 650.899 101.725C706.152 92.7438 761.528 77.5967 815.915 77.3286C857.819 77.1946 900.587 86.1756 943.355 90.7332C987.978 95.4247 1034.21 92.4757 1077.72 104.406C1108.37 112.717 1143.72 129.472 1156.7 158.962Z" stroke="#E721BB" stroke-width="0.5" stroke-miterlimit="10" stroke-linecap="round" stroke-linejoin="round"/>
<path d="M1144.84 156.817C1153.98 178.399 1104.79 184.967 1095.76 186.442C1033.71 195.825 970.426 196.495 908.127 205.342C854.11 212.982 800.341 223.572 745.953 225.047C657.079 227.593 565.733 255.743 476.488 241.534C417.403 232.151 451.643 211.106 468.206 175.852C482.174 145.96 464.374 136.979 504.423 125.049C550.9 111.242 600.961 110.572 648.427 102.931C705.039 93.9503 761.899 78.6691 817.77 78.401C860.414 78.267 904.172 87.248 947.682 91.5375C989.09 95.6929 1031.36 93.8162 1072.03 104.406C1099.47 111.644 1134.45 132.421 1144.84 156.817Z" stroke="#E721BB" stroke-width="0.5" stroke-miterlimit="10" stroke-linecap="round" stroke-linejoin="round"/>
<path d="M1132.97 154.673C1139.89 174.645 1103.55 181.08 1091.44 183.626C1030.38 196.093 966.47 196.227 904.79 204.001C849.166 210.972 793.79 220.087 737.919 221.561C653.866 223.974 563.755 254.804 479.825 238.049C423.831 226.923 473.027 201.052 483.781 171.428C494.04 143.145 466.352 137.113 511.84 124.781C559.553 111.912 610.355 109.902 658.933 101.993C712.703 93.1459 766.596 79.7414 819.748 79.4733C863.134 79.3392 907.88 88.3203 952.255 92.4757C990.079 96.0949 1028.89 94.8885 1065.97 104.406C1090.33 110.84 1125.31 132.555 1132.97 154.673Z" stroke="#E721BB" stroke-width="0.5" stroke-miterlimit="10" stroke-linecap="round" stroke-linejoin="round"/>
<path d="M1121.23 152.26C1125.68 170.356 1100.58 176.656 1086.12 180.007C1028.03 193.546 966.47 194.752 907.509 201.589C848.301 208.425 789.093 216.468 729.884 218.076C653 220.221 561.901 254.134 485.511 233.491C436.068 220.221 494.535 191.267 499.232 167.005C503.805 142.877 472.78 136.845 518.391 124.781C567.711 111.778 619.75 109.499 669.934 101.055C720.614 92.4757 771.54 80.6797 821.725 80.4117C862.639 80.2776 904.666 87.9182 946.322 92.2076C984.27 96.095 1023.21 95.1566 1060.54 104.54C1082.17 110.036 1116.16 132.019 1121.23 152.26Z" stroke="#E721BB" stroke-width="0.5" stroke-miterlimit="10" stroke-linecap="round" stroke-linejoin="round"/>
<path d="M1109.73 149.713C1111.46 167.273 1096.01 172.099 1077.35 176.254C963.503 202.125 836.805 211.24 722.097 214.457C680.194 215.663 638.538 222.098 596.511 227.996C566.104 232.285 521.728 242.606 491.939 229.068C452.755 211.24 514.312 183.627 513.447 162.85C512.581 141.402 478.095 136.711 525.189 124.781C573.767 112.449 624.57 109.5 673.89 101.323C723.704 93.0119 773.765 81.8862 823.085 81.6181C863.134 81.484 904.172 88.5884 944.962 92.7438C981.427 96.4971 1018.63 95.9609 1054.48 104.674C1073.39 109.365 1107.75 129.74 1109.73 149.713Z" stroke="#E721BB" stroke-width="0.5" stroke-miterlimit="10" stroke-linecap="round" stroke-linejoin="round"/>
<path d="M1099.1 147.3C1097.62 165.396 1090.82 168.613 1066.59 173.439C952.008 196.495 829.76 207.621 715.052 210.838C672.036 212.044 629.144 219.417 585.758 225.047C564.991 227.727 521.852 238.183 502.569 223.84C470.431 199.98 533.719 181.75 526.549 158.962C519.874 137.649 480.814 137.247 532.977 124.513C578.465 113.387 625.559 110.036 671.541 102.529C722.715 94.0843 774.013 82.8245 824.692 82.5564C853.863 82.4224 1102.32 107.221 1099.1 147.3Z" stroke="#E721BB" stroke-width="0.5" stroke-miterlimit="10" stroke-linecap="round" stroke-linejoin="round"/>
<path d="M1088.72 145.022C1082.04 164.592 1086.74 165.664 1054.97 171.16C940.883 190.865 822.467 203.733 708.995 206.95C665.114 208.157 621.109 216.602 576.858 221.561C567.834 222.5 523.088 229.604 513.323 219.149C490.456 194.618 552.754 176.924 538.91 155.477C525.437 134.7 487.613 137.247 539.899 124.513C582.296 114.191 626.177 110.706 669.069 103.87C721.603 95.4248 774.507 83.8969 826.422 83.6288C894.407 83.2266 975.37 88.0523 1043.35 104.942C1058.56 108.695 1096.88 121.296 1088.72 145.022Z" stroke="#E721BB" stroke-width="0.5" stroke-miterlimit="10" stroke-linecap="round" stroke-linejoin="round"/>
<path d="M1078.83 142.877C1063.75 164.86 1083.03 163.386 1042.61 169.418C930.5 186.039 815.174 199.444 704.297 202.795C666.844 204.001 629.02 209.899 591.073 214.725C585.139 215.529 532.977 226.387 526.673 214.189C513.817 189.391 569.441 171.697 550.282 152.26C541.877 143.815 525.313 142.341 513.57 136.04C539.899 112.449 601.085 114.995 633.47 110.17C698.241 100.518 764 84.9692 828.029 84.7011C893.665 84.4331 972.156 88.8566 1037.67 105.21C1052.13 108.695 1096.01 117.81 1078.83 142.877Z" stroke="#E721BB" stroke-width="0.5" stroke-miterlimit="10" stroke-linecap="round" stroke-linejoin="round"/>
<path d="M1069.31 141C1051.14 160.973 1066.84 163.386 1030.13 168.211C920.982 182.286 809.117 195.02 701.084 198.372C665.361 199.444 629.267 204.404 593.297 209.229C587.611 210.034 547.81 219.953 541.258 209.229C530.134 190.731 590.578 166.871 560.789 149.445C548.551 142.341 531.617 142.877 519.627 135.102C557.08 117.006 603.68 115.532 643.73 109.5C705.657 100.116 768.326 85.9076 829.636 85.6395C893.294 85.3714 969.066 89.3928 1032.48 105.344C1045.83 108.561 1090.2 118.078 1069.31 141Z" stroke="#E721BB" stroke-width="0.5" stroke-miterlimit="10" stroke-linecap="round" stroke-linejoin="round"/>
<path d="M1060.29 139.124C1038.29 157.488 1054.36 162.984 1016.78 167.273C911.712 179.471 804.049 189.927 699.971 193.412C697.005 193.546 559.429 212.983 557.946 203.733C555.968 191.133 602.815 156.818 570.43 146.898C557.575 143.011 538.415 142.073 526.673 134.834C564.62 117.81 609.614 115.532 649.663 109.5C710.231 100.25 771.417 86.8459 831.367 86.5778C893.047 86.3098 966.099 89.7949 1027.78 105.478C1039.65 108.427 1084.15 119.285 1060.29 139.124Z" stroke="#E721BB" stroke-width="0.5" stroke-miterlimit="10" stroke-linecap="round" stroke-linejoin="round"/>
<path d="M1051.64 137.515C1028.52 153.198 1038.66 163.118 1003.8 166.871C903.306 177.863 799.599 185.101 700.836 188.854C693.667 189.122 577.228 210.033 572.778 199.712C567.092 186.307 624.447 157.086 579.082 144.887C564.497 141 548.551 139.392 533.224 136.175C562.766 117.006 608.748 116.738 642.493 111.51C705.904 101.859 770.057 87.9182 832.85 87.6501C892.676 87.3821 962.885 90.5991 1022.46 105.746C1033.47 108.427 1077.59 119.821 1051.64 137.515Z" stroke="#E721BB" stroke-width="0.5" stroke-miterlimit="10" stroke-linecap="round" stroke-linejoin="round"/>
<path d="M1043.48 136.04C1020.24 149.177 1023.82 162.984 991.686 166.603C896.384 177.326 797.374 181.75 703.927 185.369C674.013 186.576 645.213 190.865 615.176 195.423C605.164 196.897 597.129 200.248 588.971 195.288C605.411 171.428 618.761 154.137 586.746 143.279C572.902 138.587 555.35 139.258 540.022 136.04C571.048 117.81 614.311 116.872 648.797 111.644C710.601 102.127 773.023 89.1246 834.457 88.8565C892.429 88.5884 960.042 91.4034 1017.64 106.148C1028.4 108.695 1070.8 120.491 1043.48 136.04Z" stroke="#E721BB" stroke-width="0.5" stroke-miterlimit="10" stroke-linecap="round" stroke-linejoin="round"/>
<path d="M1035.69 134.566C1012.58 145.558 1009.61 162.85 979.202 166.335C889.709 176.79 796.385 179.337 708.624 182.688C675.126 183.895 639.898 193.278 605.905 194.216C613.816 164.86 634.335 152.528 593.545 141.804C579.577 138.185 561.283 140.062 547.068 135.102C579.577 117.944 623.828 116.202 658.81 110.84C717.771 101.725 777.35 89.7949 835.94 89.6609C892.058 89.3928 957.323 91.5375 1013.07 106.148C1023.33 108.829 1063.63 121.296 1035.69 134.566Z" stroke="#E721BB" stroke-width="0.5" stroke-miterlimit="10" stroke-linecap="round" stroke-linejoin="round"/>
<path d="M1028.27 133.36C1005.41 142.609 997.001 162.313 968.201 166.201C884.765 177.326 797.004 177.997 714.804 180.812C684.767 181.884 651.146 190.999 620.491 190.329C633.347 159.498 636.066 148.641 599.354 140.866C586.005 138.051 566.598 140.598 554.237 134.834C587.488 118.749 629.515 116.336 664.99 110.84C722.344 101.993 780.317 90.8672 837.3 90.5991C891.564 90.331 954.357 92.2077 1008.37 106.416C1018.76 109.097 1056.83 121.832 1028.27 133.36Z" stroke="#E721BB" stroke-width="0.5" stroke-miterlimit="10" stroke-linecap="round" stroke-linejoin="round"/>
<path d="M1021.48 132.287C998.855 140.196 985.011 161.777 957.323 165.933C880.192 177.728 798.487 177.192 722.221 179.471C696.016 180.275 662.024 189.659 635.201 186.441C649.91 153.6 635.324 145.424 603.804 140.196C590.578 137.917 575.374 139.123 561.654 135.772C586.252 117.81 630.38 117.14 659.551 112.582C719.13 103.199 779.575 91.6714 838.907 91.5374C891.316 91.4033 951.514 93.0119 1003.55 106.684C1013.94 109.499 1050.03 122.368 1021.48 132.287Z" stroke="#E721BB" stroke-width="0.5" stroke-miterlimit="10" stroke-linecap="round" stroke-linejoin="round"/>
<path d="M1015.17 131.349C992.551 138.319 974.628 160.571 947.929 165.665C877.225 178.935 800.712 176.924 730.255 178.801C708.5 179.337 671.665 189.122 649.168 183.224C662.271 149.043 633.347 143.681 607.265 140.062C594.781 138.319 581.06 138.855 568.452 135.772C595.399 118.883 635.819 117.676 666.226 112.851C724.075 103.736 782.541 93.012 840.143 92.7439C890.822 92.6098 948.671 93.8162 998.855 107.087C1009.36 109.768 1043.48 122.636 1015.17 131.349Z" stroke="#E721BB" stroke-width="0.5" stroke-miterlimit="10" stroke-linecap="round" stroke-linejoin="round"/>
<path d="M1009.36 130.545C986.371 136.979 965.11 159.364 939.029 164.994C874.629 178.801 803.925 176.924 739.031 178.131C723.086 178.399 673.766 187.782 662.889 175.316C662.023 174.243 661.158 158.56 657.574 153.869C647.685 141 624.694 141.268 610.726 139.66C599.478 138.319 586.252 139.392 575.745 134.968C604.175 119.151 645.089 117.14 675.867 112.314C730.873 103.602 786.62 93.9503 841.379 93.6822C889.833 93.5481 946.198 94.0843 994.529 107.355C1004.42 109.902 1037.42 122.502 1009.36 130.545Z" stroke="#E721BB" stroke-width="0.5" stroke-miterlimit="10" stroke-linecap="round" stroke-linejoin="round"/>
<path d="M1003.8 129.74C980.561 135.772 957.199 157.488 931.489 163.922C872.899 178.667 807.386 176.79 747.807 177.595C726.794 177.863 689.712 185.235 674.261 171.697C670.8 168.748 668.328 156.281 662.394 151.188C650.034 140.464 628.897 140.866 614.064 139.258C604.299 138.319 591.196 139.392 583.532 134.432C612.951 119.821 651.393 117.14 682.79 112.18C735.941 103.736 789.834 94.7546 842.862 94.6205C889.709 94.4865 943.726 94.7546 990.326 107.623C999.721 110.17 1031.24 122.636 1003.8 129.74Z" stroke="#E721BB" stroke-width="0.5" stroke-miterlimit="10" stroke-linecap="round" stroke-linejoin="round"/>
<path d="M998.608 129.07C974.505 135.236 949.907 154.673 924.196 162.447C871.415 178.399 810.23 176.656 756.336 176.924C731.244 177.058 702.814 183.358 683.902 167.943C678.587 163.52 676.362 154.941 669.316 150.115C655.967 141 631.863 140.196 617.277 138.989C608.501 138.319 599.354 137.783 590.702 135.504C613.198 119.285 652.382 118.212 678.711 113.923C733.592 104.942 789.216 95.8269 843.974 95.5588C888.844 95.4248 941.007 95.6929 985.382 107.891C994.9 110.572 1025.93 122.1 998.608 129.07Z" stroke="#E721BB" stroke-width="0.5" stroke-miterlimit="10" stroke-linecap="round" stroke-linejoin="round"/>
<path d="M993.664 128.534C969.189 134.566 943.726 151.322 918.139 160.437C870.427 177.326 813.443 176.12 764.495 176.12C737.548 176.12 713.074 180.409 691.689 164.458C668.698 147.3 650.157 140.062 620.738 138.721C612.951 138.319 605.04 137.649 597.995 134.7C621.851 119.553 661.653 117.676 688.105 113.521C740.267 105.21 793.048 96.7652 845.087 96.6311C888.35 96.4971 938.287 96.4971 981.056 108.293C990.079 110.706 1020.12 121.966 993.664 128.534Z" stroke="#E721BB" stroke-width="0.5" stroke-miterlimit="10" stroke-linecap="round" stroke-linejoin="round"/>
<path d="M988.967 127.998C963.874 134.566 938.411 148.105 912.824 157.89C868.82 174.78 816.904 175.048 771.664 174.914C742.987 174.78 721.108 176.522 697.252 160.839C673.89 145.424 650.404 138.319 624.447 138.319C618.637 138.319 610.479 137.113 605.906 134.164C631.369 120.223 667.71 117.81 695.274 113.387C745.459 105.344 796.138 97.7035 846.323 97.5694C888.473 97.4354 935.444 97.1673 977.1 108.561C986.865 111.242 1014.06 121.429 988.967 127.998Z" stroke="#E721BB" stroke-width="0.5" stroke-miterlimit="10" stroke-linecap="round" stroke-linejoin="round"/>
<path d="M984.64 127.462C916.162 145.558 851.638 173.439 777.968 173.037C747.684 172.903 727.165 171.429 700.713 157.22C677.351 144.619 653.865 139.124 628.526 138.051C623.458 137.783 618.019 136.979 613.322 134.834C634.953 121.027 669.811 118.749 694.162 114.727C744.965 106.283 796.509 98.776 847.312 98.5079C887.732 98.3738 932.602 97.9717 972.651 108.829C981.921 111.376 1008.62 121.162 984.64 127.462Z" stroke="#E721BB" stroke-width="0.5" stroke-miterlimit="10" stroke-linecap="round" stroke-linejoin="round"/>
<path d="M980.438 126.925C914.431 147.032 850.897 170.758 782.789 170.356C730.131 170.088 685.633 141.536 633.223 137.515C628.773 137.113 624.817 136.711 621.356 134.164C644.471 121.295 676.609 118.749 701.825 114.593C750.527 106.55 799.846 99.5801 848.424 99.4461C886.619 99.312 930.253 98.3737 968.077 109.231C976.853 111.778 1003.92 119.821 980.438 126.925Z" stroke="#E721BB" stroke-width="0.5" stroke-miterlimit="10" stroke-linecap="round" stroke-linejoin="round"/>
<path d="M976.359 126.523C914.06 146.496 849.29 167.139 785.755 166.871C735.323 166.603 688.105 144.485 638.291 137.113C633.965 136.443 630.874 136.711 629.762 133.226C692.06 102.797 783.16 100.653 849.413 100.384C886.125 100.25 927.534 99.3121 963.751 109.5C971.909 111.778 998.361 119.419 976.359 126.523Z" stroke="#E721BB" stroke-width="0.5" stroke-miterlimit="10" stroke-linecap="round" stroke-linejoin="round"/>
<path d="M972.403 126.121C916.903 137.917 847.435 162.447 786.62 162.313C739.155 162.179 689.588 140.062 643.853 136.577C641.504 136.443 639.156 135.772 637.302 134.164C655.349 121.161 687.858 119.285 708.747 115.8C755.595 107.757 803.184 101.591 850.031 101.457C882.54 101.323 953.862 92.7439 980.685 119.955C979.325 123.574 976.111 125.317 972.403 126.121Z" stroke="#E721BB" stroke-width="0.5" stroke-miterlimit="10" stroke-linecap="round" stroke-linejoin="round"/>
<path d="M968.571 125.585C915.173 137.381 846.323 157.756 787.733 157.488C742.863 157.354 690.824 137.649 650.281 135.772C648.179 135.638 646.449 135.102 645.831 132.957C702.814 103.199 789.834 102.395 851.02 102.127C882.787 101.993 949.288 93.8163 975.864 119.419C974.875 123.172 972.032 124.915 968.571 125.585Z" stroke="#E721BB" stroke-width="0.5" stroke-miterlimit="10" stroke-linecap="round" stroke-linejoin="round"/>
<path d="M964.74 125.049C915.914 147.166 846.323 153.466 790.329 153.332C747.56 153.198 676.115 151.054 657.326 135.102C653.247 131.617 700.589 119.687 707.882 118.347C755.471 109.5 804.049 103.467 851.762 103.199C883.158 103.065 919.87 101.323 951.019 110.438C958.436 112.583 979.078 118.615 964.74 125.049Z" stroke="#E721BB" stroke-width="0.5" stroke-miterlimit="10" stroke-linecap="round" stroke-linejoin="round"/>
<path d="M961.031 124.647C921.724 148.641 847.065 149.981 794.408 149.713C753.37 149.579 671.789 144.887 665.114 134.164C660.664 126.925 832.108 104.138 852.504 104.138C882.54 104.004 916.533 102.663 946.198 110.84C954.975 113.253 971.414 118.212 961.031 124.647Z" stroke="#E721BB" stroke-width="0.5" stroke-miterlimit="10" stroke-linecap="round" stroke-linejoin="round"/>
</g>
<defs>
<clipPath id="clip0_205_1137">
<rect width="1450" height="451" fill="white" transform="translate(-5)"/>
</clipPath>
</defs>
</svg>
