<svg width="880" height="41" viewBox="0 0 880 41" fill="none" xmlns="http://www.w3.org/2000/svg">
<path d="M273.414 26.6687L267.432 24.3551L273.464 22.0538L267.296 19.7648L273.507 17.5069L267.339 15.2303L273.322 12.9534L267.278 10.6214L275.036 7.93146L275.264 8.71503L270.627 10.6955L275.345 12.5094C275.382 12.7253 275.425 12.9412 275.462 13.1263L270.762 15.1746L276.134 17.5253L270.633 19.7278L275.382 21.7146C275.382 21.949 275.419 22.1897 275.431 22.4303L270.577 24.2813L275.338 26.2183C275.338 26.4281 275.394 26.6379 275.419 26.8353L270.731 28.8839L275.357 30.8149L275.412 31.4626L270.731 33.4247L275.116 35.3621C275.061 35.5904 275.012 35.8186 274.956 36.0468L267.993 33.9121C267.993 33.727 267.95 33.542 267.931 33.3569L273.427 31.2469L267.438 28.9763L273.408 26.675" fill="white"/>
<path d="M16.5639 13.6816V34.5292H0.0412598V13.694C0.0412598 9.12836 8.29949 5.42657 8.29949 5.42657C8.29949 5.42657 16.5639 9.12836 16.5639 13.694" fill="white"/>
<path d="M420.027 25.6819L422.013 24.5218C422.562 24.7994 423.191 25.1081 423.802 25.4536C423.946 25.5678 424.044 25.7296 424.079 25.91C424.119 26.1137 424.119 26.3232 424.079 26.527C423.937 27.4586 424.209 27.9892 425.171 28.4149C426.941 29.1923 427.083 30.7966 425.43 31.5432C424.159 32.117 423.937 32.9066 424.079 34.0665C424.094 34.1812 424.094 34.2974 424.079 34.412L422.032 35.5966L420.046 34.412C420.046 34.412 420.046 34.3504 420.046 34.2702C420.206 32.993 420.003 32.0797 418.584 31.4627C417.166 30.8458 417.159 29.2479 418.584 28.6186C420.009 27.9893 420.188 27.138 420.021 25.8856C420.008 25.8245 420.008 25.7613 420.021 25.7003" fill="white"/>
<path d="M422.018 21.116L420.032 19.9502C420.032 20.0119 420.032 19.9501 420.032 19.9007C420.199 18.5681 419.971 17.6056 418.497 16.9578C417.023 16.3099 417.152 14.7923 418.571 14.163C419.989 13.5337 420.199 12.7069 420.02 11.4421C420.005 11.3687 420.005 11.2934 420.02 11.22L422.03 10.0662L424.06 11.2324C424.016 11.1337 424.06 11.1583 424.06 11.183C423.893 12.6267 424.251 13.6506 425.749 14.3293C426.983 14.9031 426.903 16.3777 425.601 16.9761C424.3 17.5746 423.875 18.346 424.078 19.6664C424.072 19.7689 424.042 19.8685 423.991 19.9574C423.939 20.0463 423.868 20.1221 423.782 20.1785C423.202 20.524 422.592 20.7952 422.03 21.116" fill="white"/>
<path d="M440.065 25.6874C440.83 25.2432 441.465 24.8731 442.106 24.4905L444.08 25.6814C444.08 25.6135 444.117 25.7244 444.08 25.8293C443.926 27.1126 444.129 28.0196 445.572 28.6304C447.016 29.2412 446.985 30.8453 445.523 31.4746C444.061 32.1039 443.907 32.9432 444.086 34.2019C444.098 34.2692 444.098 34.3379 444.086 34.4052L442.069 35.5837L440.065 34.3498C440.101 33.8177 440.101 33.284 440.065 32.7519C440.001 32.451 439.827 32.1848 439.578 32.0054C439.171 31.6969 438.646 31.5303 438.252 31.2095C438.057 31.0785 437.898 30.9017 437.787 30.6946C437.677 30.4875 437.619 30.2563 437.619 30.0216C437.619 29.787 437.677 29.556 437.787 29.3489C437.898 29.1418 438.057 28.965 438.252 28.8341C438.419 28.6425 438.631 28.4942 438.868 28.4021C440.102 28.1429 440.238 27.304 440.102 26.2737C440.086 26.0683 440.086 25.8621 440.102 25.6567" fill="white"/>
<path d="M440.103 11.2202L442.089 10.054C442.706 10.4119 443.366 10.7945 444.081 11.2202C444.081 11.177 444.081 11.2201 444.081 11.288C443.902 12.633 444.174 13.5769 445.629 14.2309C447.085 14.8849 446.974 16.4458 445.481 17.0628C444.131 17.6304 443.946 18.4634 444.094 19.6542C444.106 19.7401 444.106 19.8273 444.094 19.9132C444.094 19.9626 444.057 20.0182 444.094 19.9503L442.101 21.1348L440.109 19.9563C440.146 20.055 440.109 19.9563 440.109 19.8946C440.288 18.5434 440.011 17.5996 438.555 16.9579C438.259 16.8704 437.999 16.6896 437.814 16.4422C437.629 16.1947 437.53 15.894 437.53 15.5851C437.53 15.2762 437.629 14.9757 437.814 14.7283C437.999 14.4809 438.259 14.2997 438.555 14.2123C439.998 13.5953 440.251 12.6639 440.085 11.3497C440.085 11.2695 440.116 11.1832 440.085 11.2202" fill="white"/>
<path d="M430.08 32.2768C429.529 32.0319 428.993 31.7537 428.476 31.4438C427.243 30.6109 427.169 29.2351 428.526 28.6428C429.882 28.0505 430.265 27.1373 430.061 25.8046C430.061 25.7244 430.092 25.6381 430.061 25.6751L432.053 24.4905L434.015 25.6814C433.971 25.5765 434.015 25.632 434.015 25.6814C433.86 27.0511 434.095 28.0318 435.612 28.6858C437.006 29.3028 436.944 30.8329 435.507 31.4746C434.956 31.6419 434.493 32.0187 434.216 32.5239C433.939 33.029 433.872 33.6225 434.027 34.1771C434.045 34.2564 434.045 34.3383 434.027 34.4176L432.047 35.5837L430.08 34.3868V32.2768Z" fill="white"/>
<path d="M427.053 28.3596L425.03 27.1257C425.063 26.5915 425.063 26.0557 425.03 25.5215C424.958 25.2258 424.783 24.9654 424.536 24.7873C424.148 24.4973 423.654 24.3493 423.303 24.0532C422.335 23.2819 422.341 22.2579 423.346 21.5175C423.896 21.1623 424.469 20.8427 425.061 20.561V18.488L427.09 17.2972C427.602 17.5748 428.2 17.8771 428.773 18.2226C428.849 18.2736 428.915 18.3392 428.966 18.4154C429.016 18.4917 429.052 18.5771 429.069 18.667C429.116 18.982 429.116 19.3021 429.069 19.6172C428.971 20.339 429.15 20.8509 429.945 20.999C430.139 21.0604 430.32 21.1544 430.482 21.2768C431.98 22.2022 432.073 23.6399 430.482 24.3062C429.1 24.8923 428.952 25.7561 429.076 26.9531C429.084 27.033 429.084 27.1135 429.076 27.1935L427.053 28.3596Z" fill="white"/>
<path d="M430.08 11.238L432.06 10.0472L434.064 11.2811C434.028 11.8152 434.028 12.3512 434.064 12.8853C434.156 13.1738 434.322 13.4334 434.545 13.6382C434.631 13.7369 434.81 13.7492 434.94 13.8171C435.723 14.2181 436.556 14.6439 436.537 15.668C436.519 16.6922 435.742 17.1487 434.94 17.4078C434.781 17.4378 434.63 17.5005 434.496 17.5919C434.362 17.6832 434.249 17.8015 434.163 17.9389C434.077 18.0763 434.021 18.2299 433.998 18.3902C433.974 18.5505 433.984 18.7139 434.027 18.8701C434.051 19.2419 434.051 19.615 434.027 19.9868L432.023 21.1651L430.061 19.9868C430.061 20.0485 430.018 19.9375 430.031 19.8326C430.166 18.5987 430.031 17.6422 428.557 17.0375C427.083 16.4329 427.089 14.8165 428.557 14.2057C430.024 13.5949 430.191 12.6878 430.037 11.4107C430.027 11.3638 430.027 11.3156 430.037 11.2688" fill="white"/>
<path d="M435.082 27.1686V25.0709C434.499 24.7953 433.933 24.4863 433.386 24.1455C432.276 23.3496 432.306 22.2636 433.386 21.4492C433.488 21.3463 433.613 21.2685 433.75 21.2212C435.094 20.962 435.218 19.9872 435.063 18.9075C435.002 18.4756 435.156 18.2905 435.606 18.1116C436.107 17.8822 436.582 17.6008 437.025 17.2723C437.561 17.5623 438.159 17.8893 438.739 18.2101C438.892 18.3105 439.002 18.4647 439.048 18.6421C439.088 18.8976 439.088 19.1578 439.048 19.4133C438.949 20.2277 439.048 20.8755 440.04 21.0729C440.368 21.1834 440.665 21.3719 440.904 21.6221C441.102 21.7476 441.266 21.9204 441.38 22.1249C441.495 22.3294 441.557 22.5593 441.56 22.7937C441.564 23.0281 441.509 23.2596 441.401 23.4676C441.293 23.6756 441.135 23.8536 440.941 23.9852C440.818 24.1024 440.688 24.2628 440.534 24.2937C439.054 24.6392 438.881 25.6941 439.041 26.9465C439.061 27.0235 439.061 27.104 439.041 27.1809L437.062 28.3594L435.07 27.1686" fill="white"/>
<path d="M449.989 25.6875L451.982 24.5276C452.53 24.8115 453.16 25.1136 453.764 25.4591C453.907 25.5744 454.005 25.736 454.041 25.9158C454.08 26.1197 454.08 26.329 454.041 26.5328C453.942 26.923 454.001 27.3368 454.206 27.6836C454.41 28.0304 454.744 28.2821 455.133 28.3837C456.897 29.1611 457.039 30.7651 455.386 31.5117C454.115 32.0855 453.893 32.8754 454.035 34.0353C454.046 34.1523 454.046 34.2699 454.035 34.3869L451.988 35.5654L449.996 34.3869C449.984 34.3382 449.984 34.2873 449.996 34.2387C450.15 32.9677 449.952 32.0547 448.528 31.4315C447.103 30.8084 447.103 29.2166 448.528 28.5934C449.952 27.9703 450.131 27.1067 449.965 25.8604C449.956 25.797 449.956 25.7326 449.965 25.6691" fill="white"/>
<path d="M451.988 21.1282L450.002 19.9624C450.002 20.0179 450.002 19.9623 450.002 19.913C450.175 18.5741 449.94 17.6178 448.466 16.97C446.992 16.3222 447.128 14.7981 448.546 14.1749C449.965 13.5518 450.175 12.7127 449.996 11.4479C449.981 11.3747 449.981 11.2992 449.996 11.2259L452.006 10.0784L454.036 11.2383C453.999 11.1396 454.036 11.1705 454.036 11.1952C453.869 12.6327 454.227 13.6628 455.725 14.3415C456.959 14.9153 456.879 16.3839 455.577 16.9823C454.276 17.5808 453.844 18.3581 454.054 19.6723C454.047 19.7753 454.016 19.8752 453.964 19.9642C453.911 20.0531 453.839 20.1286 453.752 20.1844C453.178 20.5361 452.568 20.8321 452.006 21.1282" fill="white"/>
<path d="M460.042 32.2897C459.463 31.9874 458.92 31.7714 458.445 31.4567C457.212 30.6176 457.138 29.2417 458.494 28.6556C459.851 28.0695 460.227 27.1441 460.03 25.8115C460.03 25.7313 460.03 25.6449 460.03 25.6819L462.016 24.4974L463.983 25.6879C463.94 25.5892 463.983 25.6448 463.983 25.6879C463.835 27.0515 464.064 28.0387 465.581 28.6927C466.975 29.3097 466.913 30.8396 465.482 31.4751C464.931 31.6425 464.468 32.0192 464.191 32.5244C463.914 33.0295 463.846 33.6231 464.002 34.1777C464.018 34.2571 464.018 34.3386 464.002 34.4181L462.022 35.5906L460.049 34.3873L460.042 32.2897Z" fill="white"/>
<path d="M457.019 28.3593L454.996 27.1254C455.032 26.5933 455.032 26.0595 454.996 25.5275C454.93 25.2311 454.756 24.9697 454.509 24.7933C454.12 24.5034 453.621 24.3552 453.276 24.0528C453.053 23.9236 452.868 23.7372 452.741 23.513C452.614 23.2888 452.549 23.035 452.553 22.7773C452.557 22.5197 452.629 22.2675 452.763 22.0471C452.896 21.8267 453.086 21.6458 453.313 21.5232C453.864 21.1657 454.439 20.8463 455.033 20.567V18.4877L457.056 17.2908C457.568 17.5685 458.166 17.877 458.746 18.2163C458.897 18.322 459.003 18.4804 459.042 18.6603C459.085 18.9756 459.085 19.2953 459.042 19.6105C458.943 20.3324 459.122 20.8446 459.918 20.9927C460.111 21.0552 460.292 21.1488 460.454 21.2701C461.953 22.2018 462.046 23.6334 460.454 24.3059C459.073 24.8859 458.919 25.7558 459.042 26.9527C459.057 27.0323 459.057 27.1136 459.042 27.1931L457.093 28.3777" fill="white"/>
<path d="M460.049 11.2507C460.807 10.788 461.436 10.4116 462.029 10.0599L464.027 11.2568C463.991 11.7909 463.991 12.3269 464.027 12.861C464.122 13.1494 464.29 13.4087 464.514 13.6138C464.594 13.7125 464.773 13.7249 464.903 13.7927C465.686 14.1938 466.525 14.6257 466.506 15.6437C466.488 16.6617 465.704 17.1245 464.909 17.3898C464.749 17.4181 464.598 17.4794 464.464 17.5699C464.329 17.6604 464.216 17.7783 464.13 17.9154C464.044 18.0526 463.987 18.2062 463.964 18.3664C463.941 18.5267 463.952 18.6899 463.996 18.8457C464.02 19.2176 464.02 19.5906 463.996 19.9625L461.991 21.1407L460.03 19.9625C460.03 20.0304 459.987 19.9192 460.03 19.8143C460.166 18.5803 460.03 17.6241 458.556 17.0195C457.082 16.4149 457.095 14.7922 458.556 14.1814C460.018 13.5706 460.191 12.6636 460.036 11.3926C460.036 11.3063 460.036 11.2199 460.036 11.2507" fill="white"/>
<path d="M218.252 22.0783L218.573 21.7451L218.567 21.0914L219.22 21.0851L219.541 20.7582L218.881 20.1102L219.547 19.4315L220.226 20.0978L219.578 20.7582L219.905 21.079L220.559 21.0727L220.565 21.7267L220.898 22.0476L221.539 21.3935L222.199 22.0352L221.558 22.6953L220.898 22.0476L220.571 22.3808L220.577 23.0285L219.924 23.0408L219.603 23.368L220.263 24.0157L219.597 24.6944L218.918 24.028L219.566 23.368L219.239 23.0471L218.585 23.0532L218.579 22.3991L218.252 22.0783Z" fill="white"/>
<path d="M229.374 21.3135L230.034 21.9612L229.386 22.6215L228.726 21.9735L228.405 22.3067L228.412 22.9547L227.758 22.9608L227.437 23.2939L228.091 23.9416L227.431 24.6204L226.753 23.954L227.4 23.2939L227.067 22.9731H226.42L226.413 22.3254L226.08 21.9982L226.407 21.6714L226.395 21.0174L227.049 21.011L227.376 20.6842L226.716 20.0362L227.382 19.3577L228.06 20.0241L227.413 20.6842L227.739 21.005L228.393 20.9987L228.399 21.6527L228.726 21.9735L229.374 21.3135Z" fill="white"/>
<path d="M224.438 17.1178L224.444 17.7718L224.771 18.0927L225.418 17.4387L226.06 18.062L225.394 18.7407L224.74 18.099L224.413 18.4259L224.419 19.0799L223.765 19.0862L223.463 19.3947L223.149 19.0922L222.501 19.0986L222.495 18.4445L222.162 18.1174L221.514 18.7777L220.842 18.1174L221.471 17.4757L222.125 18.1237L222.452 17.7905L222.446 17.1365L223.099 17.1302L223.42 16.8033L222.76 16.1556L223.426 15.4769L224.105 16.1432L223.457 16.8033L223.784 17.1241L224.438 17.1178Z" fill="white"/>
<path d="M240.098 16.9702L240.104 17.6242L240.437 17.945L241.085 17.2847L241.72 17.914L241.06 18.5927L240.4 17.945L240.073 18.2782L240.079 18.9323L239.432 18.9383L239.123 19.2468L238.815 18.9383L238.161 18.9446L238.155 18.2966L237.828 17.9697L237.181 18.6298L236.502 17.9634L237.131 17.3217L237.791 17.9697L238.112 17.6426L238.106 16.9885L238.759 16.9825L239.08 16.6554L238.42 16.0076L239.086 15.3289L239.765 15.9953L239.117 16.6493L239.45 16.9762L240.098 16.9702Z" fill="white"/>
<path d="M232.272 17.0439L232.278 17.6979L232.605 18.0188L233.253 17.3647L233.894 17.9877L233.228 18.6665L232.568 18.0188L232.247 18.3517L232.253 19.0057L231.6 19.012L231.298 19.3205L230.983 19.018L230.329 19.0244L230.323 18.3703L229.996 18.0432L229.349 18.7035L228.67 18.0371L229.299 17.4018L229.959 18.0432L230.28 17.7163L230.274 17.0623L230.927 17.0562L231.254 16.7291L230.594 16.0814L231.254 15.4026L231.933 16.069L231.291 16.7291L231.618 17.0499L232.272 17.0439Z" fill="white"/>
<path d="M237.206 21.2393L237.866 21.887L237.218 22.5473L236.558 21.8993L236.237 22.2265L236.244 22.8805L235.59 22.8865L235.263 23.2197L235.923 23.8677L235.257 24.5401L234.585 23.8801L235.232 23.2197L234.899 22.8929L234.245 22.8989L234.239 22.2512L233.912 21.924L234.233 21.5972L234.227 20.9431L234.881 20.9371L235.201 20.6099L234.548 19.9622L235.208 19.2835L235.886 19.9499L235.238 20.6099L235.571 20.9308L236.225 20.9248L236.231 21.5785L236.558 21.8993L237.206 21.2393Z" fill="white"/>
<path d="M255.762 16.8219L255.768 17.4699L256.095 17.7968L256.743 17.1367L257.384 17.7661L256.718 18.4448L256.058 17.7968L255.737 18.1239L255.743 18.778L255.09 18.784L254.787 19.0988L254.473 18.7903L253.819 18.7964L253.813 18.1423L253.486 17.8215L252.838 18.4818L252.166 17.8155L252.789 17.1738L253.449 17.8215L253.776 17.4946L253.764 16.8406L254.417 16.8343L254.744 16.5011L254.084 15.8597L254.75 15.181L255.423 15.8473L254.781 16.5011L255.108 16.8282L255.762 16.8219Z" fill="white"/>
<path d="M252.864 21.0916L253.524 21.7393L252.876 22.3994L252.216 21.7517L251.896 22.0785L251.902 22.7326L251.248 22.7389L250.927 23.0658L251.587 23.7138L250.921 24.3922L250.243 23.7261L250.89 23.0721L250.557 22.7449L249.904 22.7512L249.897 22.0972L249.571 21.7764L249.897 21.4492L249.891 20.7955L250.539 20.7892L250.866 20.456L250.206 19.8143L250.872 19.1356L251.55 19.7959L250.903 20.456L251.23 20.7831L251.883 20.7768L251.89 21.4245L252.216 21.7517L252.864 21.0916Z" fill="white"/>
<path d="M245.038 21.165L245.692 21.8131L245.044 22.4731L244.39 21.8254L244.063 22.1523L244.07 22.8063L243.416 22.8123L243.095 23.1455L243.755 23.7872L243.089 24.4659L242.41 23.7995L243.058 23.1455L242.731 22.8186L242.077 22.8247L242.071 22.177L241.744 21.8501L242.065 21.5229L242.059 20.8689L242.713 20.8629L243.033 20.5297L242.373 19.888L243.04 19.2093L243.718 19.8757L243.07 20.5297L243.403 20.8566L244.051 20.8505L244.057 21.5046L244.39 21.8254L245.038 21.165Z" fill="white"/>
<path d="M247.93 16.8959L247.936 17.55L248.263 17.8708L248.91 17.2108L249.552 17.8401L248.886 18.5185L248.232 17.8708L247.905 18.204L247.911 18.8517L247.258 18.858L246.955 19.1725L246.647 18.8641L245.993 18.8704L245.987 18.2164L245.654 17.8955L245.013 18.5556L244.334 17.8892L244.963 17.2478L245.617 17.8955L245.944 17.5684L245.938 16.9146L246.592 16.9083L246.912 16.5751L246.252 15.9334L246.918 15.2547L247.597 15.9211L246.949 16.5751L247.276 16.9023L247.93 16.8959Z" fill="white"/>
<path d="M235.059 3.61847L237.02 4.24779L237.693 6.20355H237.699L237.68 6.22223L237.045 8.18401L235.108 8.85039L233.166 8.22107L232.493 6.27164L232.475 6.25296L233.11 4.28485L235.059 3.61847Z" fill="white"/>
<path d="M227.227 3.69269L229.194 4.32201L229.867 6.27777L229.848 6.29645L229.213 8.25823L227.282 8.92461L225.334 8.29529L224.661 6.34555L224.643 6.32718L225.278 4.35907L227.227 3.69269Z" fill="white"/>
<path d="M242.891 3.53839L244.852 4.17374L245.525 6.1298L245.506 6.14215L244.871 8.11026L242.94 8.77634L240.991 8.14732L240.319 6.19126L240.307 6.17891L240.936 4.2108L242.891 3.53839Z" fill="white"/>
<path d="M217.444 4.43931L219.399 3.76691L221.36 4.39623L222.032 6.35199L222.014 6.37037L221.378 8.33245L219.448 8.99883L217.499 8.36951" fill="white"/>
<path d="M250.725 3.46417L252.687 4.09982L253.359 6.04926L253.34 6.06793L252.705 8.03604L250.775 8.70242L248.826 8.0731L248.154 6.11734L248.135 6.10499L248.77 4.13688L250.719 3.46417H250.725Z" fill="white"/>
<path d="M224.02 10.9239L223.403 12.8303L222.749 10.936L220.782 10.3006L220.776 10.2883L222.7 9.62823L223.335 7.66012L223.354 7.64777L223.372 7.66012L224.038 9.61588L225.981 10.2389L225.969 10.2512L224.02 10.9239Z" fill="white"/>
<path d="M229.922 14.1316L227.973 14.798L227.356 16.7106L226.702 14.8103L224.741 14.181L224.729 14.1686L226.653 13.5086L227.288 11.5405L227.307 11.5218L227.319 11.5405L227.991 13.4962L229.928 14.1192L229.922 14.1316Z" fill="white"/>
<path d="M231.846 10.8434L231.229 12.756L230.581 10.8557L228.614 10.2204L228.608 10.214L230.532 9.55399L231.161 7.58588L231.179 7.5672L231.198 7.58588L231.87 9.54164L233.807 10.1646L233.801 10.177L231.846 10.8434Z" fill="white"/>
<path d="M216.897 14.2427L218.821 13.5823L219.456 11.6142L219.475 11.6019L219.493 11.6142L220.165 13.57L222.102 14.1933L222.09 14.2056L220.141 14.878L219.524 16.7847L218.87 14.8844L216.909 14.255" fill="white"/>
<path d="M253.414 13.9036L251.465 14.5763L250.848 16.4887L250.195 14.5886L248.233 13.953L248.221 13.947L250.145 13.2806L250.78 11.3185L250.799 11.3001L250.817 11.3185L251.484 13.2682L253.426 13.8975L253.414 13.9036Z" fill="white"/>
<path d="M255.338 10.6212L254.727 12.5339L254.073 10.6336L252.106 9.9982L252.1 9.99187L254.024 9.32549L254.659 7.36371L254.672 7.34503L254.69 7.36371L255.362 9.31314L257.299 9.94247L257.293 9.94879L255.338 10.6212Z" fill="white"/>
<path d="M237.754 14.0518L235.799 14.7242L235.182 16.6369L234.534 14.7366L232.567 14.1012L232.561 14.0949L234.485 13.4348L235.114 11.4667L235.133 11.4481L235.151 11.4667L235.823 13.4162L237.76 14.0455L237.754 14.0518Z" fill="white"/>
<path d="M239.68 10.7696L239.063 12.682L238.409 10.7817L236.448 10.1463L236.436 10.1403L238.366 9.47996L238.995 7.51185L239.014 7.49347L239.032 7.51185L239.705 9.4676L241.641 10.0909L241.629 10.0969L239.68 10.7696Z" fill="white"/>
<path d="M247.512 10.6954L246.895 12.6081L246.241 10.7078L244.274 10.0721L244.268 10.0661L246.192 9.40574L246.827 7.43763L246.846 7.41925L246.864 7.43763L247.537 9.38736L249.473 10.0167L249.461 10.0227L247.512 10.6954Z" fill="white"/>
<path d="M245.582 13.9778L243.633 14.6502L243.016 16.5629L242.363 14.6625L240.401 14.0272L240.389 14.0209L242.313 13.3608L242.948 11.3927L242.967 11.3743L242.985 11.3927L243.658 13.3424L245.594 13.9718L245.582 13.9778Z" fill="white"/>
<path d="M232.715 29.7727L234.67 29.1003L235.287 27.1937L235.935 29.088L237.902 29.7233L237.908 29.7296L235.984 30.3957L235.355 32.3578L235.337 32.3762L235.318 32.3578L234.646 30.4081L232.709 29.7787L232.715 29.7727Z" fill="white"/>
<path d="M240.547 29.6977L242.496 29.0253L243.113 27.1126L243.767 29.0129L245.728 29.6483L245.74 29.6546L243.816 30.321L243.181 32.2828L243.162 32.3015L243.144 32.2828L242.478 30.3333L240.541 29.704L240.547 29.6977Z" fill="white"/>
<path d="M239.302 36.2383L239.937 34.2763L241.862 33.6099L241.855 33.6039L239.888 32.9685L239.24 31.0682L238.624 32.9809L236.669 33.6533L236.662 33.6593L238.599 34.2886L239.271 36.2383" fill="white"/>
<path d="M231.476 36.3124L232.105 34.3503L234.029 33.6839L234.023 33.6779L232.062 33.0422L231.408 31.1419L230.792 33.0546L228.836 33.7273L228.83 33.7333L230.767 34.3626L231.439 36.3124" fill="white"/>
<path d="M254.968 36.0899L255.597 34.1218L257.528 33.4617L257.515 33.4554L255.554 32.8201L254.901 30.9197L254.284 32.8324L252.335 33.4988L252.323 33.5111L254.259 34.1341L254.931 36.0899" fill="white"/>
<path d="M247.136 36.1641L247.772 34.196L249.696 33.536L249.683 33.5296L247.722 32.8943L247.068 30.994L246.452 32.9066L244.503 33.573L244.49 33.5854L246.427 34.2084L247.099 36.1641" fill="white"/>
<path d="M224.89 29.8465L226.838 29.1737L227.455 27.2674L228.109 29.1614L230.07 29.797L230.076 29.8094L228.158 30.4695L227.523 32.4315L227.505 32.4499L227.486 32.4315L226.814 30.4818L224.877 29.8588L224.89 29.8465Z" fill="white"/>
<path d="M248.382 29.624L250.331 28.9516L250.947 27.0389L251.601 28.9392L253.562 29.5749L253.575 29.5809L251.65 30.2409L251.015 32.2093L250.997 32.2277L250.978 32.2093L250.306 30.2533L248.369 29.6303L248.382 29.624Z" fill="white"/>
<path d="M223.644 36.3858L224.279 34.424L226.204 33.7577L226.191 33.7516L224.23 33.116L223.576 31.222L222.96 33.1283L221.011 33.8007L220.998 33.8071L222.935 34.4364L223.607 36.3858" fill="white"/>
<path d="M217.057 29.9199L219.006 29.2475L219.623 27.3411L220.277 29.2351L222.238 29.8708L222.251 29.8831L220.326 30.5432L219.691 32.5053L219.673 32.5236L219.654 32.5113L218.982 30.5555L217.045 29.9322" fill="white"/>
<path d="M254.781 23.1135L254.155 23.7523L254.793 24.3785L255.419 23.7398L254.781 23.1135Z" fill="white"/>
<path d="M254.687 19.264L254.061 19.9026L254.699 20.529L255.325 19.8904L254.687 19.264Z" fill="white"/>
<path d="M256.904 20.844L256.256 21.5047L256.912 22.1484L257.56 21.4877L256.904 20.844Z" fill="white"/>
<path d="M253.865 26.6317L253.859 25.9777L253.526 25.6568L252.878 26.3169L252.237 25.6876L252.903 25.0088L253.563 25.6568L253.889 25.3236L253.883 24.6696L254.531 24.6633L254.839 24.3548L255.148 24.6633L255.801 24.6512L255.808 25.305L256.134 25.6321L256.782 24.9718L257.46 25.6382L256.831 26.2738L256.171 25.6321L255.851 25.959L255.857 26.613L255.203 26.6193L254.882 26.9462L255.536 27.5939L254.876 28.2726L254.198 27.6063L254.845 26.9462L254.512 26.6254L253.865 26.6317Z" fill="white"/>
<path d="M254.675 20.5956L253.401 21.8948L254.7 23.1695L255.974 21.8702L254.675 20.5956Z" fill="white"/>
<path d="M246.945 23.1887L246.319 23.8275L246.957 24.4539L247.583 23.8152L246.945 23.1887Z" fill="white"/>
<path d="M231.195 19.4877L230.569 20.1263L231.207 20.7529L231.833 20.1142L231.195 19.4877Z" fill="white"/>
<path d="M233.42 21.0721L232.772 21.7327L233.428 22.3766L234.076 21.7159L233.42 21.0721Z" fill="white"/>
<path d="M231.183 20.8172L229.908 22.1165L231.207 23.391L232.481 22.0917L231.183 20.8172Z" fill="white"/>
<path d="M230.373 26.8539L230.366 26.2059L230.033 25.879L229.386 26.5391L228.744 25.9097L229.41 25.2313L230.07 25.879L230.391 25.5522L230.385 24.8981L231.039 24.8918L231.347 24.5833L231.655 24.8858L232.309 24.8794L232.315 25.5335L232.642 25.8543L233.29 25.1943L233.968 25.8606L233.339 26.5023L232.679 25.8543L232.359 26.1815L232.365 26.8352L231.711 26.8415L231.39 27.1747L232.05 27.8224L231.384 28.4951L230.706 27.8348L231.353 27.1747L231.02 26.8476L230.373 26.8539Z" fill="white"/>
<path d="M223.352 20.8973L222.078 22.1966L223.377 23.4713L224.651 22.172L223.352 20.8973Z" fill="white"/>
<path d="M223.453 23.4094L222.826 24.0482L223.465 24.6744L224.091 24.0357L223.453 23.4094Z" fill="white"/>
<path d="M231.281 23.3342L230.655 23.973L231.293 24.5992L231.919 23.9605L231.281 23.3342Z" fill="white"/>
<path d="M223.359 19.5619L222.733 20.2005L223.371 20.8269L223.997 20.1882L223.359 19.5619Z" fill="white"/>
<path d="M238.198 26.7798L238.192 26.1321L237.865 25.805L237.218 26.4653L236.576 25.836L237.243 25.1573L237.902 25.805L238.223 25.4718L238.217 24.8241L238.871 24.8177L239.173 24.5032L239.487 24.8117L240.135 24.8057L240.141 25.4594L240.474 25.7803L241.122 25.1202L241.794 25.7866L241.171 26.4283L240.511 25.7803L240.184 26.1074L240.191 26.7615L239.543 26.7675L239.216 27.0946L239.876 27.7423L239.21 28.4211L238.538 27.7547L239.179 27.1007L238.852 26.7738L238.198 26.7798Z" fill="white"/>
<path d="M239.119 23.259L238.492 23.8978L239.131 24.5242L239.757 23.8855L239.119 23.259Z" fill="white"/>
<path d="M246.03 26.7056L246.024 26.0516L245.691 25.731L245.05 26.3911L244.408 25.7618L245.075 25.083L245.728 25.731L246.055 25.3979L246.049 24.7499L246.703 24.7438L247.005 24.429L247.313 24.7375L247.967 24.7315L247.973 25.3855L248.306 25.7063L248.954 25.046L249.626 25.7124L248.997 26.348L248.343 25.7063L248.016 26.0332L248.023 26.6872L247.369 26.6933L247.048 27.0204L247.708 27.6681L247.042 28.3469L246.364 27.6805L247.011 27.0265L246.684 26.6996L246.03 26.7056Z" fill="white"/>
<path d="M249.078 20.9197L248.43 21.5804L249.086 22.2243L249.734 21.5636L249.078 20.9197Z" fill="white"/>
<path d="M246.852 20.6688L245.578 21.9681L246.877 23.2427L248.151 21.9435L246.852 20.6688Z" fill="white"/>
<path d="M239.027 19.4076L238.401 20.0462L239.039 20.6728L239.665 20.0341L239.027 19.4076Z" fill="white"/>
<path d="M241.248 20.994L240.6 21.6546L241.256 22.2985L241.904 21.6378L241.248 20.994Z" fill="white"/>
<path d="M239.015 20.7435L237.74 22.0428L239.039 23.3174L240.313 22.0182L239.015 20.7435Z" fill="white"/>
<path d="M246.855 19.3382L246.229 19.9769L246.867 20.6032L247.493 19.9646L246.855 19.3382Z" fill="white"/>
<path d="M225.588 21.1522L224.94 21.8128L225.596 22.4567L226.244 21.796L225.588 21.1522Z" fill="white"/>
<path d="M222.538 26.9341L222.532 26.2801L222.199 25.9532L221.558 26.6133L220.916 25.984L221.582 25.3052L222.236 25.9532L222.563 25.6261L222.557 24.972L223.211 24.966L223.513 24.6575L223.821 24.96L224.475 24.9537L224.481 25.6077L224.814 25.9285L225.456 25.2685L226.134 25.9346L225.505 26.5762L224.845 25.9285L224.524 26.2617L224.53 26.9094L223.877 26.9158L223.556 27.2489L224.216 27.8966L223.55 28.569L222.871 27.909L223.519 27.2489L223.192 26.9281L222.538 26.9341Z" fill="white"/>
<path d="M743.055 15.3225L740.872 12.651L738.762 15.2424L736.702 12.7435L734.673 15.2114L732.515 12.5522L730.362 15.1743L728.216 12.5338L725.94 15.3102L723.763 12.6323L721.642 15.2361L719.594 12.7188L717.571 15.1867L715.4 12.5275L713.254 15.1496L711.101 12.5091L708.832 15.2855C708.085 14.3724 707.376 13.5024 706.642 12.6139L704.527 15.2053L702.529 12.7374L702.393 12.867L704.527 15.5262L706.648 12.9164C707.395 13.8357 708.104 14.6994 708.838 15.594L711.095 12.8113L713.26 15.4644L715.4 12.8299L717.565 15.4952L719.594 13.0273L721.642 15.5322L723.769 12.9408L725.946 15.6187L728.204 12.8299L730.368 15.4828L732.515 12.8546L734.679 15.5075C735.383 14.6437 736.036 13.854 736.715 13.0396L738.756 15.5509L740.872 12.9348L743.055 15.631L745.318 12.8423L747.483 15.4952L749.623 12.867C750.376 13.7801 751.066 14.6376 751.794 15.5322L753.823 13.0089L753.681 12.873L751.788 15.193L749.623 12.5275L747.483 15.162L745.318 12.5151L743.055 15.2915" fill="white"/>
<path d="M737.54 15.5819L736.664 14.6995L735.881 15.5819H737.54Z" fill="white"/>
<path d="M741.783 15.5879L741.037 14.7859L740.106 15.5695L741.783 15.5879Z" fill="white"/>
<path d="M748.789 15.588H750.529L749.702 14.7737L748.789 15.588Z" fill="white"/>
<path d="M728.3 14.7859L727.498 15.5819H729.083L728.3 14.7859Z" fill="white"/>
<path d="M719.635 14.7366L718.858 15.5696H720.455L719.635 14.7366Z" fill="white"/>
<path d="M710.26 15.5575H711.962L711.099 14.6751L710.26 15.5575Z" fill="white"/>
<path d="M731.686 15.557H733.388L732.5 14.681L731.686 15.557Z" fill="white"/>
<path d="M722.979 15.5753H724.669L723.824 14.761L722.979 15.5753Z" fill="white"/>
<path d="M725.914 13.4902L726.654 12.6448H725.069L725.914 13.4902Z" fill="white"/>
<path d="M752.588 12.6575H750.905L751.787 13.5399L752.57 12.6575" fill="white"/>
<path d="M715.441 14.7239C715.478 14.8103 715.515 14.9028 715.546 14.9954L714.522 15.5753H716.286L715.441 14.7239Z" fill="white"/>
<path d="M707.571 15.594L706.733 14.7674L705.912 15.594H707.571Z" fill="white"/>
<path d="M743.905 12.6326H742.178L743.029 13.4903L743.905 12.6326Z" fill="white"/>
<path d="M746.254 15.6126L745.329 14.6995L745.421 14.9219L744.459 15.6126H746.254Z" fill="white"/>
<path d="M721.511 13.3978L722.344 12.639H720.783L721.511 13.3978Z" fill="white"/>
<path d="M703.651 12.6204L704.378 13.3606L705.359 12.6204H703.651Z" fill="white"/>
<path d="M707.955 12.639L708.769 13.4656L709.528 12.639H707.955Z" fill="white"/>
<path d="M713.149 13.4102L713.982 12.639H712.397L713.149 13.4102Z" fill="white"/>
<path d="M716.694 12.639L717.446 13.4102L718.272 12.639H716.694Z" fill="white"/>
<path d="M729.51 12.639L730.281 13.4349L731.07 12.639H729.51Z" fill="white"/>
<path d="M739.577 12.6448H737.893L738.762 13.5335L739.577 12.6448Z" fill="white"/>
<path d="M747.353 13.404L748.142 12.6575H746.631L747.353 13.404Z" fill="white"/>
<path d="M735.486 12.6512H733.783L734.647 13.5149L735.486 12.6512Z" fill="white"/>
<path d="M715.795 31.3641C715.925 31.6109 716.03 31.8082 716.178 32.0735C716.313 31.8082 716.424 31.6109 716.554 31.3641H715.795Z" fill="white"/>
<path d="M720.834 32.0609C720.976 31.8079 721.087 31.6043 721.204 31.3821H720.451L720.834 32.0609Z" fill="white"/>
<path d="M730.146 32.061L730.504 31.3763H729.764L730.146 32.061Z" fill="white"/>
<path d="M725.866 31.3763H725.108L725.484 32.0794C725.632 31.8141 725.731 31.6231 725.866 31.3763Z" fill="white"/>
<path d="M706.498 31.3704C706.622 31.611 706.733 31.8147 706.868 32.0739L707.245 31.3704H706.498Z" fill="white"/>
<path d="M711.889 31.3821H711.143L711.525 32.0792L711.889 31.3821Z" fill="white"/>
<path d="M712.191 31.2282L712.561 30.5247H711.815L712.191 31.2282Z" fill="white"/>
<path d="M719.815 30.5189L720.197 31.2223C720.333 30.957 720.438 30.7595 720.567 30.5189H719.815Z" fill="white"/>
<path d="M721.88 30.5189H721.127C721.257 30.7595 721.362 30.963 721.503 31.216L721.88 30.5189Z" fill="white"/>
<path d="M705.34 29.6673L705.716 30.3584C705.858 30.0993 705.957 29.9079 706.092 29.6673H705.34Z" fill="white"/>
<path d="M706.498 29.68L706.874 30.3708L707.245 29.68H706.498Z" fill="white"/>
<path d="M708.103 30.3703C708.245 30.0988 708.343 29.9014 708.467 29.6732H707.733C707.862 29.9138 707.961 30.105 708.109 30.3703" fill="white"/>
<path d="M711.521 30.383L711.891 29.6859H711.151L711.521 30.383Z" fill="white"/>
<path d="M712.377 29.6732L712.76 30.3642L713.123 29.6732H712.377Z" fill="white"/>
<path d="M715.799 29.6859C715.935 29.9326 716.04 30.1238 716.175 30.383L716.539 29.6859H715.799Z" fill="white"/>
<path d="M720.838 30.3646C720.967 30.1116 721.072 29.9143 721.195 29.6922H720.455L720.838 30.3646Z" fill="white"/>
<path d="M724.343 30.3587L724.707 29.68H723.967C724.097 29.9206 724.208 30.1119 724.343 30.3587Z" fill="white"/>
<path d="M725.108 29.6732L725.49 30.3766C725.638 30.099 725.737 29.9076 725.866 29.6732H725.108Z" fill="white"/>
<path d="M726.34 29.6732L726.722 30.3582L727.092 29.6732H726.34Z" fill="white"/>
<path d="M728.993 30.3704C729.135 30.099 729.24 29.9079 729.37 29.6673H728.623C728.747 29.9079 728.851 30.099 728.993 30.3704Z" fill="white"/>
<path d="M730.139 30.383C730.275 30.1177 730.386 29.9205 730.503 29.6922H729.776L730.139 30.383Z" fill="white"/>
<path d="M731.378 30.3647L731.742 29.68H731.002L731.378 30.3647Z" fill="white"/>
<path d="M706.227 31.2282L706.609 30.5247H705.881L706.251 31.2282" fill="white"/>
<path d="M707.155 30.5189L707.537 31.2223C707.673 30.957 707.784 30.7595 707.907 30.5189H707.155Z" fill="white"/>
<path d="M710.89 31.2225L711.248 30.5374H710.514C710.65 30.778 710.754 30.9695 710.89 31.2225Z" fill="white"/>
<path d="M715.904 30.5433H715.164L715.547 31.2157C715.689 30.9565 715.787 30.7592 715.904 30.5433Z" fill="white"/>
<path d="M716.847 31.2282C716.989 30.9567 717.094 30.7653 717.223 30.5247H716.471L716.847 31.2282Z" fill="white"/>
<path d="M724.855 31.2282L725.225 30.5311H724.479C724.608 30.7655 724.713 30.9567 724.855 31.2282Z" fill="white"/>
<path d="M726.16 31.2282L726.53 30.5311H725.783L726.16 31.2282Z" fill="white"/>
<path d="M729.504 31.2285L729.881 30.5374H729.147C729.264 30.7719 729.363 30.957 729.504 31.2285Z" fill="white"/>
<path d="M730.818 31.2345C730.954 30.963 731.058 30.7592 731.182 30.5247H730.442L730.818 31.2345Z" fill="white"/>
<path d="M722.438 29.6732H721.698C721.827 29.9199 721.932 30.1235 722.068 30.3703L722.438 29.6732Z" fill="white"/>
<path d="M717.773 29.6985H717.045L717.409 30.3589L717.773 29.6985Z" fill="white"/>
<path d="M715.03 30.3646L715.388 29.6922H714.666C714.79 29.9266 714.888 30.1116 715.03 30.3646Z" fill="white"/>
<path d="M710.372 30.3642C710.502 30.1113 710.613 29.9076 710.736 29.6732H710.002L710.372 30.3642Z" fill="white"/>
<path d="M719.311 29.68L719.681 30.3647C719.817 30.1118 719.921 29.9268 720.051 29.68H719.311Z" fill="white"/>
<path d="M748.104 31.3577C748.233 31.6045 748.344 31.8019 748.486 32.0672L748.862 31.3577H748.104Z" fill="white"/>
<path d="M738.803 31.3641C738.926 31.6047 739.037 31.8081 739.173 32.0672L739.549 31.3641H738.803Z" fill="white"/>
<path d="M744.202 31.3821H743.455L743.838 32.0732L744.202 31.3821Z" fill="white"/>
<path d="M734.525 32.0609L734.889 31.3821H734.143L734.525 32.0609Z" fill="white"/>
<path d="M744.502 31.2223L744.872 30.5189H744.119L744.496 31.2223" fill="white"/>
<path d="M733.371 30.3521L733.748 29.6673H733.02L733.396 30.3521" fill="white"/>
<path d="M734.518 30.3706C734.66 30.1115 734.765 29.9141 734.895 29.6859H734.155C734.278 29.9265 734.383 30.1176 734.518 30.3706Z" fill="white"/>
<path d="M735.759 30.3524C735.888 30.1056 735.993 29.9144 736.123 29.68H735.389L735.759 30.3524Z" fill="white"/>
<path d="M737.651 29.6673C737.786 29.9079 737.891 30.1053 738.027 30.3521C738.169 30.0929 738.267 29.9017 738.403 29.6673H737.651Z" fill="white"/>
<path d="M738.803 29.6732L739.179 30.3642L739.549 29.6732H738.803Z" fill="white"/>
<path d="M740.421 30.3644C740.563 30.0929 740.662 29.8956 740.785 29.6673H740.045C740.175 29.9017 740.273 30.0991 740.421 30.3644Z" fill="white"/>
<path d="M743.831 30.3771L744.201 29.68H743.461C743.591 29.9144 743.689 30.1056 743.831 30.3771Z" fill="white"/>
<path d="M744.69 29.6673L745.072 30.3584L745.436 29.6673H744.69Z" fill="white"/>
<path d="M748.112 29.68C748.247 29.9268 748.352 30.118 748.488 30.3771C748.636 30.0933 748.735 29.9021 748.858 29.68H748.112Z" fill="white"/>
<path d="M733.514 30.5189L733.89 31.2099L734.266 30.5189H733.514Z" fill="white"/>
<path d="M734.807 30.5189L735.195 31.216L735.565 30.5189H734.807Z" fill="white"/>
<path d="M738.571 31.2223L738.954 30.5189H738.201L738.571 31.2223Z" fill="white"/>
<path d="M739.463 30.513L739.846 31.2161C739.981 30.957 740.092 30.7536 740.216 30.513H739.463Z" fill="white"/>
<path d="M743.203 31.2158L743.56 30.5311H742.826C742.962 30.7717 743.067 30.969 743.203 31.2158Z" fill="white"/>
<path d="M748.215 30.5374H747.475L747.857 31.2101C747.999 30.951 748.098 30.7534 748.215 30.5374Z" fill="white"/>
<path d="M749.16 31.2223C749.302 30.9508 749.406 30.7595 749.536 30.5189H748.783L749.16 31.2223Z" fill="white"/>
<path d="M750.085 29.6922H749.358L749.722 30.3523L750.085 29.6922Z" fill="white"/>
<path d="M747.339 30.3586L747.696 29.6859H746.975C747.098 29.9203 747.197 30.1056 747.339 30.3586Z" fill="white"/>
<path d="M742.685 30.3582C742.814 30.1053 742.925 29.9076 743.049 29.6732H742.315L742.685 30.3582Z" fill="white"/>
<path d="M751.619 29.6732L751.989 30.3582C752.125 30.1053 752.23 29.9199 752.359 29.6732H751.619Z" fill="white"/>
<path d="M755.451 28.5443H703.811V29.6426H755.451V28.5443Z" fill="white"/>
<path d="M755.832 15.3724H703.323V16.0942H755.832V15.3724Z" fill="white"/>
<path d="M703.046 22.1405C704.279 23.1154 704.279 23.2141 703.786 24.9293L703.046 22.1405ZM702.392 25.3302C705.698 27.94 700.048 25.7251 703.323 28.3781C703.449 28.5243 703.606 28.6417 703.781 28.7221C703.957 28.8025 704.148 28.8441 704.341 28.8441C704.534 28.8441 704.725 28.8025 704.9 28.7221C705.076 28.6417 705.232 28.5243 705.358 28.3781C708.726 25.6819 712.143 23.0785 715.572 20.4502C715.899 20.1911 716.262 19.9812 716.62 19.7468C717.052 21.2522 716.484 22.0728 715.436 22.7638C714.387 23.4548 713.475 24.2752 712.5 25.0465L712.741 25.3796L716.614 22.4737C717.348 25.429 714.468 25.429 713.832 27.2429L716.781 25.0588V29.7418H717.218V25.1884L720.012 27.2616C719.352 25.5032 716.602 25.4104 717.385 22.5539L719.383 24.0839C720 24.5467 720.617 25.0095 721.196 25.4661C721.264 25.3489 721.338 25.2318 721.412 25.1145L718.6 22.8687C717.009 21.6039 717.009 21.6039 717.49 19.7838C721.048 22.5972 724.625 25.3365 728.098 28.2178C729.128 29.0754 729.775 28.9705 730.75 28.2178C734.302 25.3797 737.923 22.6651 741.605 19.7962C741.981 21.0918 741.808 21.9495 740.784 22.6343C739.649 23.3932 738.613 24.3122 737.534 25.1636L737.75 25.5032L741.654 22.5662C742.394 25.5153 739.508 25.5403 738.527 27.5824L741.827 25.1947V29.7726H742.197V25.2007L745.064 27.2923L745.268 26.9591C744.534 26.3422 743.788 25.787 743.06 25.1947C742.061 24.3864 742.049 24.3062 742.443 22.6403L746.181 25.4721C745.268 23.2449 741.802 23.2821 742.271 19.6543L754.445 29.2544L766.626 19.8456C767.002 21.1967 766.78 22.0728 765.701 22.7638C764.621 23.4548 763.647 24.3679 762.617 25.1823L762.839 25.5155L766.651 22.6219C767.465 25.5217 764.572 25.5711 763.567 27.5577L766.903 25.1823V29.822H767.323V25.2748L770.061 27.3294C769.395 25.5525 766.607 25.4784 767.446 22.6033L771.547 25.7806C770.37 23.2757 766.897 23.3127 767.391 19.7281L779.504 29.2851L786.553 23.8065L786.319 23.4486L779.904 28.329C779.43 26.5397 779.972 25.4847 781.311 24.6271C782.649 23.7695 783.889 22.6711 785.171 21.6778L784.931 21.3199L779.904 25.1206C779.534 23.7756 779.787 22.8995 780.848 22.2146C781.909 21.5298 782.945 20.6167 783.987 19.8085L783.747 19.4506L779.917 22.3258C779.047 19.3952 782.038 19.4381 782.877 17.4638L779.664 19.7715V15.027H779.257V19.7344L776.457 17.5934C777.123 19.3394 779.849 19.4444 779.084 22.3071L775.279 19.4319C775.211 19.543 775.143 19.6542 775.069 19.7591C776.124 20.6044 777.135 21.5299 778.252 22.2641C779.368 22.9983 779.411 23.8743 779.041 25.1329C775.34 22.2085 771.683 19.3889 768.106 16.4953C767.261 15.8043 766.749 15.8783 765.941 16.4953C762.611 19.1483 759.225 21.7272 755.851 24.3246C755.512 24.5899 755.142 24.7998 754.766 25.0528C754.559 24.5166 754.554 23.923 754.753 23.3835C754.951 22.8441 755.34 22.3957 755.845 22.1222C756.924 21.425 757.899 20.5425 758.929 19.7404L758.682 19.4075L754.797 22.3318C754.094 19.3642 756.931 19.352 757.615 17.5319L754.599 19.7281V15.1008H754.254V19.6479L751.053 17.3653C752.089 19.3767 754.865 19.4074 754.137 22.3442L750.276 19.3642C751.176 21.6346 754.593 21.61 754.223 25.2501L742.018 15.6316L729.843 25.0341C729.566 23.066 729.566 23.0661 730.836 22.0851L733.92 19.716L733.655 19.3518L729.849 22.2577C728.992 19.3209 731.946 19.3148 732.859 17.3219L729.775 19.5494C729.707 17.8651 729.646 16.4336 729.59 15.0023L729.134 15.0393V19.5738L726.402 17.4949L726.174 17.8464C726.868 18.4604 727.595 19.0369 728.351 19.5738C729.368 20.1908 729.263 21.1164 729.122 22.2948L724.952 19.1174C726.087 21.5853 729.64 21.5113 729.128 25.1453L716.978 15.5698L704.742 25.0034C704.359 23.498 704.742 22.6588 705.802 21.9863C706.863 21.3138 707.801 20.4377 708.794 19.6479L708.572 19.3147L704.754 22.2083C703.866 19.2777 706.919 19.284 707.788 17.2171L704.495 19.685V15.0083H704.082V19.5494C702.978 18.7103 703.249 18.0439 702.41 17.4084C703.027 19.21 704.779 19.2595 703.946 22.1839" fill="white"/>
<path d="M156.935 5.34668C157.329 7.62331 159.698 8.67836 159.173 11.6954L156.91 8.6105C157.048 9.36349 157.36 10.0735 157.823 10.6834C158.277 11.248 158.672 11.8578 159.001 12.5033C159.187 13.1717 159.299 13.8589 159.334 14.5519L159.025 14.6444L156.978 11.7014L156.682 12.0159L158.402 14.595C159.42 16.088 159.42 16.088 159.069 17.7723L156.959 14.7679C156.867 14.8728 156.768 14.9713 156.676 15.07C157.237 15.9338 157.78 16.816 158.372 17.6551C158.964 18.4942 159.605 19.4382 159.13 20.9313L156.947 17.8835C157.299 20.1231 159.722 21.1534 159.204 24.1334L156.941 21.0485C157.379 23.2572 159.648 24.2382 159.198 27.3107C156.842 23.7384 154.665 20.4378 152.506 17.174L154.048 14.7555L153.765 14.4961C153.253 15.1872 152.741 15.8783 152.056 16.7914C151.094 14.0336 153.826 13.4041 153.906 11.0904L151.47 14.5519C151.026 11.467 153.37 10.4735 153.752 8.19687L151.483 11.436C150.971 8.40047 153.376 7.41964 153.752 5.11833L151.606 8.12909L151.291 7.93176V4.22992H150.86V8.36979L148.609 5.19244L148.313 5.50695C148.929 6.34622 149.502 7.21734 150.027 8.11674C150.431 8.99617 150.783 9.89842 151.082 10.819L150.607 11.1028L148.578 8.23392C148.892 10.4489 151.298 11.4362 150.761 14.4347L148.609 11.3498C148.504 11.4609 148.399 11.5658 148.288 11.6707C148.831 12.4789 149.367 13.2871 149.91 14.0892C150.928 15.6007 150.928 15.6006 150.052 16.4582L148.547 14.5209C148.473 14.5949 148.405 14.6753 148.331 14.7555L149.824 17.2234L143.039 27.3231C142.423 24.2999 144.988 23.3314 145.506 20.6599L143.002 24.2322C142.521 21.1473 144.945 20.1786 145.272 17.8835L143.046 21.0672C142.429 18.0625 145.013 17.1062 145.512 14.4223L143.046 18.0007C142.515 14.9158 144.988 14.0028 145.512 11.3375L142.996 14.9098C142.546 11.8619 144.933 10.8501 145.26 8.57344L143.021 11.7815C142.484 8.69666 144.939 7.65417 145.26 5.35903L143.175 8.36347L142.854 8.18452V4.20522H142.484V8.72136L140.11 5.39579C140.505 7.68476 142.947 8.72144 142.386 11.7384L140.091 8.60417C140.474 10.8746 142.91 11.8681 142.367 14.9098L140.147 11.7198L139.838 12.0346C140.448 12.8729 141.014 13.7418 141.534 14.638C142.003 15.5203 142.324 16.5262 142.712 17.4702L142.238 17.7847L140.104 14.811C140.011 14.9097 139.912 15.0022 139.814 15.0947C140.444 15.9605 141.028 16.8583 141.565 17.7847C141.993 18.7053 142.37 19.6486 142.694 20.6105L142.25 20.9006L140.079 17.9452C140.548 20.1972 142.867 21.2028 142.392 24.2075L140.104 21.0548L139.832 21.357C140.448 22.1993 141.02 23.0726 141.547 23.9731C141.984 24.9047 142.373 25.8581 142.712 26.8296L142.225 27.1381L135.682 17.2358L137.199 14.7679L136.952 14.5395L135.349 16.6125C134.115 15.3785 135.268 14.7615 135.675 14.0705C136.15 13.2376 136.699 12.4664 137.217 11.6643L136.921 11.3869L134.633 14.626C134.22 11.5411 136.57 10.5416 136.934 8.2526L134.633 11.5224C134.171 8.43757 136.576 7.46889 136.94 5.16141C136.224 6.17324 135.515 7.18518 134.8 8.19085L134.46 7.97484V4.273H134.208C134.164 5.50695 134.115 6.79034 134.06 8.36979C133.165 7.13584 132.462 6.16093 131.765 5.18611C132.112 6.20321 132.585 7.17325 133.171 8.07366C133.64 8.9621 133.973 9.95533 134.362 10.9055L133.881 11.2203L131.765 8.27731C132.117 10.5169 134.534 11.5532 134.035 14.5332L131.765 11.4483C132.027 12.3923 132.462 13.2795 133.048 14.0644C134.078 15.5884 134.078 15.5884 133.239 16.5323L131.759 14.5703L131.531 14.811L133.011 17.2789C130.754 20.6229 128.577 23.8619 126.393 27.101L126.054 26.8974C126.148 26.1791 126.307 25.471 126.529 24.7814C126.872 24.1426 127.268 23.5336 127.713 22.9612C128.059 22.4244 128.385 21.8753 128.718 21.3262L128.41 21.0855L126.27 24.1334C125.752 21.1287 128.182 20.1908 128.737 17.5934C127.781 18.9199 127.096 19.8763 126.313 20.956C125.659 18.0439 128.237 17.1183 128.706 14.5209L126.264 17.8711C125.69 14.959 128.114 13.9656 128.435 11.7445L126.276 14.7308C125.659 11.8002 128.188 10.8561 128.422 8.59182L126.295 11.6396C125.616 8.65348 128.145 7.67873 128.694 5.08127L126.387 8.28333L126.054 8.14777V4.26698H125.629V8.69063L123.291 5.36506C123.692 7.6602 126.153 8.67811 125.524 11.7445L123.291 8.56109C123.667 10.8686 126.066 11.8372 125.536 14.8851C124.722 13.7128 124.019 12.7193 123.322 11.7198C123.649 13.9964 126.079 14.9527 125.542 17.9266L123.254 14.8046C123.698 17.0813 126.073 18.0686 125.542 21.1226L123.297 17.8651C123.643 20.1726 126.079 21.1718 125.524 24.2135L123.31 21.0054C123.63 23.2882 126.054 24.2382 125.524 27.3107C123.205 23.8063 121.04 20.5242 118.838 17.2234C119.381 16.3658 119.881 15.5638 120.38 14.7555L120.121 14.5272L118.511 16.6065C118.289 16.3041 117.969 15.9892 118.006 15.909C118.733 14.4468 119.498 13.0216 120.257 11.5902C120.195 11.5162 120.127 11.4484 120.066 11.3806L117.827 14.5826C117.377 11.5409 119.77 10.5169 120.38 7.94412L117.845 11.3869C117.358 8.39456 119.831 7.4258 120.374 4.79749L117.993 8.09836L117.66 7.92544V4.26698H117.296V8.45625L114.94 5.14906C115.298 7.41335 117.728 8.42519 117.21 11.473C116.353 10.2391 115.656 9.23357 114.953 8.2279C115.347 10.5045 117.71 11.5656 117.235 14.5456L114.94 11.3869L114.675 11.6767C115.187 12.4602 115.73 13.2067 116.199 14.0211C116.667 14.8355 117.814 15.4093 116.476 16.5754L114.922 14.4901L114.681 14.7739L116.223 17.1924L109.439 27.2676C108.964 24.1828 111.289 23.2387 111.653 20.9867L109.445 24.1581C108.884 21.1657 111.357 20.1476 111.635 17.8895C110.944 18.8767 110.259 19.8701 109.439 21.0485C108.964 18.0191 111.289 17.0382 111.628 14.7739L109.464 17.9019C108.896 14.9219 111.277 13.9288 111.641 11.683L109.451 14.7679C108.946 11.7632 111.302 10.8069 111.647 8.54874L109.482 11.6336C108.816 8.62894 111.332 7.62333 111.641 5.35903L109.285 8.67828V4.16816H108.847V8.71533L106.485 5.31565C106.836 7.61696 109.328 8.62893 108.687 11.6213C107.879 10.523 107.163 9.54193 106.442 8.56711C106.774 9.61552 107.274 10.6033 107.922 11.4917C108.909 12.9725 108.915 12.9663 108.576 14.5766L106.46 11.646L106.195 11.9421L107.361 13.7126C107.81 14.2889 108.201 14.909 108.526 15.5635C108.71 16.2279 108.82 16.911 108.853 17.5997L108.539 17.7045L106.497 14.7432C106.867 17.0322 109.254 18.0129 108.699 20.9867L106.466 17.8588L106.189 18.1673C106.762 19.0434 107.311 19.9503 107.922 20.7894C108.532 21.6285 109.124 22.5911 108.619 24.0225L106.491 20.9744L106.201 21.2705C106.762 22.1404 107.385 22.9551 107.866 23.8806C108.296 24.7962 108.679 25.733 109.013 26.6877L108.52 27.0146L102.05 17.1924L103.574 14.7245L103.315 14.4531L101.828 16.489L101.446 16.4582C101.446 15.9276 101.279 15.2613 101.477 14.8911C102.094 13.7374 102.871 12.6948 103.58 11.6089L103.302 11.3188L101.119 14.4037C100.595 11.399 103.037 10.4735 103.302 8.23392L101.156 11.3188C100.502 8.36966 103.068 7.44434 103.549 4.83454L101.082 8.30201C101.002 6.74724 100.94 5.49459 100.872 4.2483L100.441 4.29168V8.3945L98.1156 5.18611C98.5103 7.43807 100.903 8.46854 100.385 11.4917L98.1464 8.24628C98.5041 10.5229 100.903 11.5596 100.379 14.5766L97.912 11.035C98.1834 13.3857 100.589 14.12 99.9411 16.9149C99.1332 15.8908 98.609 15.2306 98.0909 14.5642L97.8812 14.8233L99.3737 17.2481L92.5895 27.2984C92.0468 24.2505 94.4398 23.2882 94.7975 21.0178L92.5649 24.2198C92.0653 21.1349 94.4829 20.1723 94.8036 17.8895L92.5772 21.0855C92.0159 18.0994 94.4583 17.0751 94.8036 14.817C94.0882 15.8103 93.379 16.81 92.571 17.9452C92.0283 14.9591 94.4213 13.984 94.7913 11.7074L92.571 14.8727C92.0098 11.8742 94.4829 10.8623 94.7913 8.59182C94.0882 9.60365 93.379 10.6094 92.5895 11.7384C91.9419 8.69059 94.4398 7.68504 94.8098 5.37138L92.4168 8.77679V4.23595H91.9728V8.70298L89.6353 5.39579C89.9497 6.46197 90.4418 7.46757 91.0908 8.36979C92.0653 9.8567 92.0653 9.85044 91.7076 11.5224L89.6538 8.59182C89.919 10.8561 92.4168 11.7939 91.8247 14.7616L89.6168 11.7879C90.0855 13.9719 92.3367 15.0147 91.8556 17.9946L89.6785 14.8604L89.3639 15.1625C89.919 16.014 90.4618 16.8901 91.0477 17.7045C91.7014 18.6115 92.2812 19.5063 91.7446 20.95L89.6476 17.9452L89.3701 18.2537C89.9375 19.1298 90.4988 20.0059 91.0723 20.8759C92.0776 22.3998 92.0776 22.3998 91.6891 23.9607L89.6661 21.0485L89.3639 21.3446C89.9611 22.1708 90.5149 23.0276 91.023 23.9113C91.455 24.8394 91.8399 25.7886 92.1763 26.7555L91.6829 27.064L85.2256 17.2725L86.7181 14.8046L86.4714 14.5766L84.8802 16.6989L84.1956 15.6439C85.0714 14.2681 85.8978 12.9787 86.7181 11.683L86.4529 11.436L84.2943 14.4654C83.6775 11.5225 86.1445 10.5415 86.4837 8.29568L84.282 11.3806C83.6961 8.46227 86.1322 7.48128 86.4406 5.21081L84.0969 8.56711V4.2483H83.622V8.47463L81.2969 5.18611C81.704 7.45657 84.0661 8.44365 83.5234 11.4236L81.2846 8.28333L81.007 8.58579C81.5806 9.4619 82.148 10.3503 82.7339 11.2203C83.7269 12.701 83.733 12.6948 83.4062 14.3853L81.2969 11.3869L81.0194 11.683L83.585 15.6129L82.8881 16.6619L81.2661 14.5642C81.1982 14.6568 81.1242 14.7431 81.0502 14.8357C81.5374 15.6316 82.0308 16.4213 82.5551 17.2665L75.7277 27.3972C75.185 24.3123 77.6273 23.3623 77.985 21.0425L75.7277 24.2752C75.148 21.2212 77.6889 20.2402 77.9973 17.9389L75.7092 21.1596C75.222 18.1488 77.6211 17.106 78.0035 14.8417L75.7339 17.9883C75.1788 15.0083 77.6705 14.0273 77.9665 11.7692L75.7215 14.9158C75.1603 11.9111 77.6766 10.9117 77.9911 8.60417L75.7339 11.8126C75.1664 8.77087 77.5841 7.70962 77.985 5.42681L75.5673 8.80149V4.2977H75.2528C75.1973 5.58101 75.1418 6.86435 75.0739 8.49933L72.8352 5.41446C73.236 7.59238 75.5735 8.61028 75.0246 11.6273L72.8413 8.61652C73.236 10.8191 75.5427 11.7939 75.0308 14.7863L72.8968 11.7321C73.1929 13.9471 75.5673 14.9404 75.0246 17.9019L72.8537 14.7863C73.1805 17.032 75.6167 18.0007 75.0123 20.956L72.8475 17.8711C73.1312 20.0737 75.555 21.0485 74.9999 24.0409C74.4572 23.245 74.1241 22.7391 73.7664 22.2517C73.4087 21.7643 73.1497 21.425 72.8167 21.0178C75.0986 25.9535 75.0986 25.9535 74.8519 26.9468C72.681 23.6645 70.5347 20.4315 68.3884 17.1677L69.8871 14.7432L69.5911 14.5025L67.9012 16.8345C67.0439 14.052 69.6034 13.3425 69.8439 11.0474C68.9373 12.3183 68.2219 13.3056 67.414 14.4347C66.8836 11.4362 69.2642 10.4365 69.6651 8.17217L67.4078 11.3682C66.865 8.3512 69.3012 7.38245 69.6651 5.09965C68.962 6.08064 68.2527 7.05571 67.2413 8.4439V4.12508H66.7787V8.35744L64.5029 5.08127L64.1884 5.38976C64.7434 6.23501 65.2862 7.09884 65.8659 7.91941C66.4457 8.73999 67.1426 9.69627 66.5567 11.1338L64.4721 8.16614L64.2007 8.48065C64.7743 9.35676 65.4342 10.1898 65.8968 11.1215C66.3056 12.0013 66.6699 12.9013 66.9884 13.8177L66.5135 14.1322C65.8351 13.1821 65.1628 12.232 64.3426 11.0474C64.4289 13.324 67.0994 13.9595 66.1928 16.7544L64.4721 14.4654C64.4246 14.6385 64.4201 14.8204 64.4587 14.9956C64.4974 15.1709 64.5782 15.334 64.6941 15.471C65.6871 16.5569 65.6377 17.4516 64.6941 18.7041C62.9117 21.0795 61.413 23.7695 59.6121 26.1078C58.317 27.786 58.4095 29.532 58.6685 31.5063H176.263C176.492 29.4703 176.603 27.6501 175.252 26.0337C174.141 24.5718 173.112 23.0496 172.168 21.4742C171.2 20.0058 170.244 18.5253 169.307 17.0939L170.799 14.6938L170.528 14.4594C170.028 15.1442 169.522 15.8227 168.832 16.7544C167.919 13.9718 170.577 13.3239 170.682 11.1275L168.314 14.3482C167.808 11.4053 170.164 10.3935 170.552 8.09836L168.332 11.3064C167.796 8.30178 170.182 7.30235 170.565 5.05657L168.289 8.17849C168.233 6.60521 168.19 5.34651 168.141 4.09406H167.654V8.26495L165.409 5.03187C165.76 7.27148 168.141 8.27087 167.567 11.2447C166.759 10.0848 166.075 9.09787 165.396 8.11071C165.705 10.3997 168.178 11.3436 167.573 14.3606L165.384 11.2203L165.1 11.5164C165.939 12.7936 166.778 14.0704 167.666 15.434C167.45 15.7733 167.222 16.125 166.988 16.5013L165.341 14.416L165.131 14.6751L166.642 17.0939C164.366 20.4687 162.146 23.7632 159.809 27.2429C159.235 24.1889 161.745 23.1956 162.047 20.9066L159.796 24.1026C159.241 21.0671 161.764 20.0738 162.078 17.7663L159.784 20.9931C159.291 17.9082 161.727 16.9704 162.078 14.6567L159.784 17.9142C159.266 14.8725 161.665 13.8854 162.06 11.5779L159.79 14.7863C159.229 11.7507 161.764 10.7636 162.066 8.44993L159.815 11.6396C159.198 8.59178 161.764 7.58621 162.035 5.26022L159.932 8.28966L159.605 8.12909V4.2977H159.229V8.61652L156.916 5.33433" fill="white"/>
<path d="M190.635 24.7191H198.036L194.305 31.5058L190.635 24.7191Z" fill="white"/>
<path d="M179.268 8.41241H186.669L182.968 15.0142C181.642 12.6388 180.575 10.7386 179.268 8.41874" fill="white"/>
<path d="M190.641 8.49249H197.999C196.765 10.7383 195.754 12.6017 194.378 15.1066L190.641 8.49249Z" fill="white"/>
<path d="M206.515 15.1374C205.103 12.5584 204.085 10.7137 202.815 8.41241H210.142C208.908 10.652 207.934 12.5092 206.515 15.1437" fill="white"/>
<path d="M188.037 23.4237L184.373 16.637H191.774C190.504 18.9383 189.48 20.7954 188.024 23.4237" fill="white"/>
<path d="M197.174 16.5628H204.618C203.384 18.8765 202.311 20.8014 200.917 23.3001L197.143 16.5691" fill="white"/>
<path d="M393.451 21.5293H406.187C405.081 22.5691 404.051 23.6866 403.104 24.8732C402.368 25.9751 401.812 27.1871 401.457 28.4639C401.204 29.3523 400.908 29.6978 399.97 29.6978C399.033 29.6978 398.681 29.4079 398.496 28.4639C397.935 25.5456 396.029 23.4851 393.451 21.5169" fill="white"/>
<path d="M399.932 20.4869C396.688 20.4869 393.438 20.5176 390.194 20.4435C389.725 20.4435 389.275 19.9254 388.819 19.6416C389.293 19.3886 389.768 18.9136 390.249 18.9074C396.742 18.8581 403.236 18.8581 409.732 18.9074C410.195 18.9074 410.651 19.4257 411.114 19.7034C410.633 19.9625 410.164 20.4374 409.677 20.4435C406.433 20.5114 403.183 20.4806 399.932 20.4806" fill="white"/>
<path d="M400.099 16.353C403.757 16.353 407.408 16.3222 411.065 16.39C411.682 16.39 412.299 16.8467 412.878 17.0935C412.299 17.3711 411.719 17.8829 411.139 17.8891C403.652 17.9385 396.169 17.9385 388.69 17.8891C388.141 17.8891 387.598 17.4202 387.049 17.1673C387.573 16.8958 388.091 16.3962 388.616 16.39C392.446 16.3222 396.276 16.353 400.099 16.353Z" fill="white"/>
<path d="M400.21 31.179V35.794H399.76V31.179H400.21Z" fill="white"/>
<path d="M693.875 5.34015C693.061 8.51756 695.343 10.1278 697.311 11.9232C696.281 12.935 695.072 13.7248 694.474 14.8415C693.875 15.9582 694.017 17.2724 693.857 18.2472C691.809 16.1865 689.595 13.9285 687.424 11.7753L693.863 5.34015" fill="white"/>
<path d="M678.309 18.2042C678.148 17.2479 678.222 15.8658 677.692 14.8232C677.161 13.7805 675.916 12.9724 674.873 12.0037C676.835 10.1096 679.246 8.5362 678.062 5.26007L684.63 11.8431L678.339 18.2042" fill="white"/>
<path d="M677.05 22.3743C675.878 25.7492 678.203 27.3101 680.134 29.161C678.16 31.012 675.884 32.6163 676.933 35.6826L670.389 29.161L677.037 22.3743" fill="white"/>
<path d="M660.86 35.7633C661.964 32.6229 659.669 31.0312 657.69 29.1803C659.46 27.2615 662.056 25.8116 660.817 22.5355L667.484 29.3222L660.86 35.7633Z" fill="white"/>
<path d="M675.663 37.1755C672.375 36.0711 670.796 38.3414 668.952 40.396C668.239 39.723 667.56 39.0147 666.917 38.2736C666.586 37.7946 666.125 37.4203 665.589 37.1951C665.052 36.9699 664.462 36.903 663.889 37.0026C663.382 37.0365 662.873 37.0365 662.365 37.0026L668.995 30.3948L675.663 37.1815" fill="white"/>
<path d="M668.915 17.9695C670.766 19.8205 672.283 22.2881 675.391 21.1282L668.749 27.7423L662.483 21.4614C663.543 21.2948 664.95 21.3812 666.004 20.8444C667.059 20.3077 667.898 19.0493 668.915 18.0189" fill="white"/>
<path d="M679.492 19.6598L685.944 13.1693L692.45 19.6598C691.445 19.8449 690.057 19.8017 689.009 20.3816C687.96 20.9616 687.208 22.1709 686.203 23.2321C684.248 21.3195 682.7 18.827 679.375 20.0177L679.492 19.6598Z" fill="white"/>
<path d="M685.994 10.6892L679.475 4.24804C680.708 4.03827 682.133 4.11221 683.175 3.53226C684.218 2.9523 684.97 1.72459 685.951 0.663391C686.814 1.50865 687.573 2.15053 688.208 2.90323C688.525 3.33993 688.957 3.68029 689.455 3.88714C689.954 4.09399 690.5 4.15924 691.033 4.07542C691.567 4.03854 692.102 4.03854 692.636 4.07542L685.988 10.7016" fill="white"/>
<path d="M661.112 19.7589C660.057 15.0205 663.394 11.7383 668.026 12.7254C669.173 16.7111 666.564 20.7769 661.112 19.7589Z" fill="white"/>
<path d="M693.887 21.3567C694.924 25.8852 691.71 29.4513 686.967 28.3901C685.833 24.2317 688.627 20.314 693.887 21.3567Z" fill="white"/>
<path d="M686.918 29.9446C691.519 28.7106 695.041 32.4557 693.869 36.8979C689.157 37.9653 685.851 34.6891 686.918 29.9446Z" fill="white"/>
<path d="M661.096 4.14298C665.783 3.14349 669.046 6.27153 668.139 11.0716C664.173 12.2253 660.023 9.52916 661.096 4.14298Z" fill="white"/>
<path d="M669.766 12.7682C673.899 11.6762 677.821 14.7054 676.754 19.635C672.597 20.9245 668.558 17.8521 669.766 12.7682Z" fill="white"/>
<path d="M676.721 4.13717C677.819 8.84468 674.255 12.1576 669.808 11.1396C668.661 7.07989 671.461 3.11916 676.721 4.13717Z" fill="white"/>
<path d="M685.271 29.9138C686.307 34.9483 682.736 37.9343 678.29 36.8854C677.18 32.4679 680.491 28.9451 685.271 29.9138Z" fill="white"/>
<path d="M678.233 21.4C683.074 20.2956 686.355 23.7937 685.245 28.3593C681.014 29.4267 677.271 26.4098 678.233 21.4Z" fill="white"/>
<path d="M366.055 18.3148C366.402 19.3203 366.668 20.3518 366.851 21.3996C367.085 23.6578 367.165 25.928 367.27 27.6432C367.319 29.7039 366.4 30.321 365.025 29.667C364.454 29.406 363.916 29.0788 363.422 28.6921C362.638 28.0752 362.244 27.2298 362.959 26.3044C363.314 25.8725 363.514 25.3346 363.529 24.7758C363.543 24.217 363.371 23.6693 363.039 23.2195C362.287 21.9856 362.484 21.0539 363.594 20.2148C364.427 19.5978 365.235 18.9809 366.061 18.3208" fill="white"/>
<path d="M366.272 28.6371C366.354 28.3306 366.404 28.0163 366.42 27.6993C366.303 25.7373 366.204 23.769 365.994 21.8194C365.844 21.2611 365.602 20.7316 365.279 20.2523C364.729 20.5958 364.238 21.0249 363.823 21.5233C363.632 21.8503 363.959 22.4734 364.014 22.9609C364.125 23.9172 364.533 24.9906 364.23 25.805C363.515 27.7547 363.922 28.5076 366.272 28.6371Z" fill="white"/>
<path d="M382.035 25.3172C381.99 26.0825 381.889 26.8434 381.733 27.5938C381.356 28.9388 380.16 29.6853 379.185 29.3028C377.736 28.7352 376.996 27.341 377.755 26.0577C378.513 24.7744 378.285 24.1513 377.403 23.1765C376.318 21.9795 376.546 20.7086 377.761 19.6289C378.976 18.5492 380.111 18.654 380.74 20.0298C381.474 21.6587 381.782 23.4787 382.275 25.2124L382.035 25.3172ZM381.054 24.7683L381.264 24.6942C380.9 23.4171 380.61 22.1151 380.135 20.8812C380.006 20.6688 379.825 20.4927 379.61 20.3697C379.394 20.2466 379.15 20.1808 378.902 20.1781C378.662 20.2435 378.443 20.3671 378.263 20.5384C378.083 20.7096 377.949 20.9229 377.872 21.159C377.834 21.4742 377.863 21.7936 377.955 22.0974C378.047 22.4011 378.202 22.6824 378.408 22.9234C379.691 23.9352 380.209 24.8238 378.809 26.1565C378.684 26.3723 378.613 26.6151 378.602 26.8645C378.591 27.1138 378.641 27.362 378.748 27.5878C378.896 27.7638 379.088 27.8973 379.305 27.9743C379.522 28.0513 379.755 28.0689 379.981 28.0258C380.206 27.9182 380.406 27.7642 380.568 27.5739C380.729 27.3836 380.849 27.1612 380.918 26.9214C381.037 26.2102 381.085 25.489 381.06 24.7683" fill="white"/>
<path d="M317.641 26.7182C317.024 26.2184 316.222 25.8359 315.791 25.2004C315.452 24.6894 315.29 24.0813 315.33 23.4694C315.371 22.8576 315.61 22.2759 316.013 21.8134C316.712 21.0365 317.549 20.3943 318.48 19.9191C319.399 19.4194 320.25 19.7895 320.83 20.678C320.912 20.7961 320.979 20.9248 321.027 21.0606C321.348 22.0724 322.223 23.4853 321.853 24.0159C321.4 24.7611 320.782 25.3923 320.046 25.8608C319.31 26.3293 318.477 26.6226 317.61 26.7182M315.76 23.7752C316.376 24.3217 317.041 24.8112 317.746 25.2375C317.894 25.3054 318.689 24.6205 318.64 24.3922C318.388 23.48 318.071 22.5875 317.69 21.7209L315.76 23.7752ZM321.15 22.819C320.626 22.202 320.133 21.184 319.738 21.2272C318.578 21.3382 319.411 22.307 319.337 22.9055C319.32 23.0023 319.335 23.102 319.38 23.1893C319.621 23.578 319.88 23.9666 320.133 24.3491C320.429 23.911 320.749 23.4668 321.15 22.819Z" fill="white"/>
<path d="M353.048 27.2486C352.839 25.811 352.598 24.3735 352.432 22.9298C352.358 22.3128 352.432 21.6958 353.382 21.6958C355.232 21.7452 355.232 21.6526 354.942 19.8449C354.904 19.5276 354.887 19.2079 354.893 18.8884L355.349 18.7034C355.601 19.1474 355.794 19.6224 355.923 20.1163C356.071 21.2454 356.36 22.0413 357.773 21.9672C358.118 21.9672 358.679 22.51 358.815 22.9111C359.063 23.6097 359.112 24.3632 358.959 25.0883C358.805 25.8134 358.455 26.4819 357.945 27.0202C357.827 27.1067 357.692 27.1671 357.548 27.198C357.405 27.2288 357.256 27.2293 357.113 27.1992C356.846 26.8449 356.711 26.4085 356.73 25.9652C357.013 25.4137 357.332 24.8818 357.686 24.3734C358.081 23.5528 357.791 23.0715 356.848 23.0653C356.41 23.0653 355.978 23.0653 355.546 23.0653C353.486 23.0283 353.382 23.2382 353.819 25.194C353.967 25.8542 353.61 26.6252 353.486 27.3471L353.061 27.2239" fill="white"/>
<path d="M334.721 23.4856C335.393 23.0044 336.053 22.4983 336.75 22.054C337.447 21.6098 338.026 21.363 338.6 20.962C340.388 19.7959 340.37 19.7962 342.023 21.2214C343.084 22.1345 344.188 22.9981 345.255 23.8989C345.557 24.1642 345.81 24.5159 346.087 24.7873C345.995 24.9354 345.908 25.0896 345.822 25.2377C345.143 24.9711 344.485 24.6534 343.855 24.2876C343.238 23.868 342.695 23.2696 342.091 22.7945C341.486 22.3195 340.987 22.5353 340.956 23.3374C340.925 24.1395 341.061 24.7813 341.036 25.5031C341.036 25.7684 340.758 26.0274 340.604 26.2927C340.432 26.0089 340.148 25.7499 340.111 25.4537C340.025 24.738 340.08 24.0038 340.031 23.282C339.914 21.6285 339.753 21.5606 338.359 22.3812C337.492 22.8912 336.604 23.3705 335.695 23.8188C335.434 23.8893 335.162 23.9122 334.893 23.8866L334.69 23.4856" fill="white"/>
<path d="M329.274 28.3596C329.274 27.0824 329.336 25.7991 329.244 24.5282C329.166 23.9765 328.94 23.4563 328.59 23.0228C328.357 22.7442 328.185 22.4203 328.083 22.0717C327.982 21.7232 327.954 21.3574 328.001 20.9974C328.048 20.6375 328.169 20.2913 328.356 19.9804C328.543 19.6695 328.793 19.401 329.089 19.1914C330.045 18.4819 331.353 18.8766 332.173 20.1105C332.882 21.2026 332.512 23.1399 331.341 23.6581C330.169 24.1764 330.206 24.8551 330.218 25.867C330.132 26.7622 329.942 27.6445 329.651 28.4954L329.293 28.3596M332.21 21.5358C331.334 20.8016 330.847 20.0858 330.317 20.0488C329.891 20.0179 329.404 20.8016 328.941 21.2273C329.397 21.6971 329.924 22.0926 330.502 22.3995C330.816 22.5044 331.347 21.9985 332.21 21.5358Z" fill="white"/>
<path d="M370.276 27.4897C370.609 27.0999 370.988 26.7521 371.404 26.4534C372.317 25.9474 372.736 25.4785 372.021 24.4235C371.929 24.1564 371.9 23.8719 371.935 23.5917C371.971 23.3115 372.07 23.043 372.225 22.8069C373.285 21.246 373.329 21.2893 371.805 20.2713C371.472 19.9883 371.168 19.6718 370.899 19.3271C371.922 19.2037 374.321 20.3205 374.377 20.9066C374.371 21.3649 374.195 21.8045 373.884 22.1406C373.076 23.0599 372.65 23.9423 373.544 25.0775C373.638 25.2499 373.687 25.4427 373.687 25.6388C373.687 25.8348 373.638 26.0279 373.544 26.2003C372.662 26.8728 371.694 27.4342 370.738 28.0018L370.319 27.496" fill="white"/>
<path d="M348.399 26.8291V20.1165C349.268 21.079 349.305 25.8111 348.399 26.8291Z" fill="white"/>
<path d="M304.998 13.9156C304.005 18.0247 305.171 20.8937 308.698 22.9976C305.362 25.2434 303.838 28.0691 305.078 32.2522C300.94 31.2651 297.979 32.3694 295.827 36.0218C293.65 32.4064 290.659 31.2837 286.613 32.1968C287.649 28.1309 286.44 25.231 282.875 23.0777C286.391 20.9368 287.717 18.0865 286.539 13.9343C290.77 15.0757 293.625 13.6379 295.79 10.1644C297.961 13.6009 300.761 15.051 304.973 13.9219" fill="white"/>
<path d="M814.152 16.526H817.859L819.715 14.6691L816.009 10.9609L819.617 7.35187L823.434 11.1709L819.722 14.8788L821.578 16.736H825.285V20.4502L827.141 22.3072L830.854 18.593L834.561 22.3072L841.98 14.8851L849.399 22.3072L853.112 18.5993L856.825 22.3072L858.675 20.4562V16.742H862.388L864.245 14.8851L860.532 11.1709L864.349 7.35789L867.951 10.9609L864.245 14.6751L866.095 16.5324H869.808V20.2402L871.664 22.0975L875.371 18.3893L879.188 22.2023L875.377 26.0153L871.664 22.3072L869.808 24.1644V27.8723H866.101L864.245 29.7295L867.951 33.4437L864.238 37.1576L860.532 33.4497L864.245 29.7355L862.388 27.8786H858.675V24.1704L856.819 22.3135L853.106 26.0277L849.399 22.3135L841.98 29.7355L834.561 22.3072L830.848 26.0213L827.135 22.3072L825.285 24.1644V27.8786H821.572L819.715 29.7355L823.428 33.4437L819.722 37.1516L816.009 33.4374L819.722 29.7232L817.865 27.8723H814.152V24.1581L812.296 22.3011L808.589 26.0153L804.772 22.196L808.583 18.3833L812.296 22.0975L814.152 20.2402V16.526Z" fill="white"/>
<path d="M580.535 5.24716H575.256L577.883 0.45929C578.87 2.24851 579.629 3.61218 580.535 5.24716Z" fill="white"/>
<path d="M545.529 0.514954L548.212 5.12358H542.951L545.529 0.514954Z" fill="white"/>
<path d="M510.553 5.22883C511.497 3.53215 512.218 2.24887 513.211 0.471985C514.173 2.21802 514.92 3.55697 515.838 5.2228H510.553" fill="white"/>
<path d="M607.627 5.09922L610.162 0.410461L612.826 5.09922H607.627Z" fill="white"/>
<path d="M605.531 6.14825L608.152 10.8927H602.959L605.531 6.14825Z" fill="white"/>
<path d="M552.609 10.9854H547.379L549.963 6.25323L552.628 10.9854" fill="white"/>
<path d="M538.233 10.9916L540.872 6.26544L543.456 10.9852H538.233" fill="white"/>
<path d="M610.194 11.886L612.79 16.5998H607.647L610.194 11.886Z" fill="white"/>
<path d="M604.237 16.637H599.074L601.609 11.9666L604.237 16.637Z" fill="white"/>
<path d="M580.472 16.5997H575.323L577.851 11.9046L580.472 16.5997Z" fill="white"/>
<path d="M545.529 12.0526L548.187 16.575H543.037L545.504 12.0526" fill="white"/>
<path d="M521.174 12.0901C522.118 13.7436 522.852 15.0392 523.783 16.6804H518.627C519.497 15.1195 520.243 13.7745 521.174 12.0901Z" fill="white"/>
<path d="M515.846 16.7169H510.573L513.2 11.9417C514.131 13.6199 514.865 14.9525 515.846 16.7109" fill="white"/>
<path d="M614.605 6.2036C615.561 7.88793 616.295 9.18989 617.226 10.8249H612.119C612.933 9.31329 613.655 7.95595 614.586 6.19757" fill="white"/>
<path d="M579.758 10.8005C580.548 9.33832 581.263 8.03025 582.225 6.24103C583.175 7.88218 583.909 9.1469 584.871 10.7942H579.752" fill="white"/>
<path d="M573.215 6.14793L575.793 10.9111H570.588L573.215 6.14191" fill="white"/>
<path d="M517.597 6.22833L520.219 10.9421H515.026C515.858 9.412 516.58 8.08542 517.597 6.22833Z" fill="white"/>
<path d="M508.525 6.21613L511.14 10.9239H505.959C506.786 9.40611 507.507 8.09173 508.525 6.21613Z" fill="white"/>
<path d="M534.385 16.7109L536.975 12.0218L539.553 16.7109H534.385Z" fill="white"/>
<path d="M566.764 16.5319L569.299 12.0526C570.224 13.669 570.915 14.8906 571.846 16.5256H566.764" fill="white"/>
<path d="M585.85 11.9974C586.8 13.7187 587.491 14.9526 588.379 16.5629H583.346C584.185 15.0267 584.931 13.6694 585.85 11.9974Z" fill="white"/>
<path d="M618.192 12.0091C619.123 13.6934 619.851 15.0074 620.746 16.6424H615.639C616.515 15.0568 617.261 13.7058 618.192 12.0091Z" fill="white"/>
<path d="M556.132 16.6364H550.951L553.523 12.0091L556.132 16.6304" fill="white"/>
<path d="M653.119 18.636V23.1028L650.93 23.4296V26.5145L648.703 26.8787C648.654 27.9584 648.598 29.0011 648.543 30.2103H646.057C646.002 29.1059 645.946 28.0757 645.885 26.9158L643.96 26.5392C643.917 25.5459 643.874 24.5772 643.825 23.4543L641.123 23.1582C641.062 21.9675 641 20.8693 640.932 19.6477H636.886C636.788 20.7706 636.683 21.9243 636.578 23.1459L634.561 23.4296C634.499 24.46 634.444 25.4225 634.376 26.5145L632.236 26.8971V30.2287H629.609C629.559 29.1305 629.51 28.1002 629.461 26.9342L627.432 26.5516C627.37 25.5767 627.302 24.5587 627.234 23.4296L624.804 23.1645C624.699 22.9733 624.588 22.8623 624.576 22.7389C624.317 18.6422 624.317 18.6421 627.993 18.6421H653.144L653.119 18.636ZM652.274 19.6106H641.956V22.2885L644.565 22.4921C644.633 23.6459 644.694 24.6762 644.756 25.6818L646.686 26.0027C646.804 27.2366 646.902 28.341 647.007 29.4331L647.673 29.365C647.759 28.2236 647.852 27.0822 647.945 25.9346L650.023 25.7002C650.078 24.5588 650.122 23.5284 650.171 22.5042L652.274 22.2451V19.6106ZM628.098 22.5105C628.184 23.6334 628.264 24.6513 628.338 25.6385L630.188 26.0518C630.262 27.2857 630.324 28.3225 630.392 29.3713H631.064C631.218 28.2299 631.366 27.0886 631.527 25.8855L633.482 25.7126C633.543 24.5588 633.593 23.5346 633.648 22.4735L635.751 22.2391V19.623H625.421V22.2575L628.079 22.4858" fill="white"/>
<path d="M652.275 19.6107V22.2391L650.172 22.5042C650.123 23.5284 650.08 24.5589 650.024 25.7003L647.946 25.9346C647.853 27.0822 647.761 28.2236 647.675 29.365L647.008 29.4331C646.904 28.3411 646.805 27.2428 646.688 26.0027L644.757 25.6819C644.696 24.6762 644.634 23.6459 644.566 22.4922L641.957 22.2885V19.6107H652.275Z" fill="white"/>
<path d="M624.922 18.784V23.251L622.732 23.5779V26.6628L620.512 27.033C620.457 28.1127 620.407 29.1492 620.346 30.3646H617.835C617.78 29.2602 617.724 28.2238 617.669 27.0701L615.739 26.6875C615.695 25.7003 615.652 24.7317 615.603 23.6026L612.908 23.3001C612.84 22.1155 612.778 21.0174 612.71 19.7896H608.664C608.566 20.9187 608.467 22.0725 608.356 23.2941L606.339 23.5779C606.278 24.6082 606.222 25.5707 606.154 26.6628L604.014 27.0454V30.377H601.387C601.338 29.2787 601.288 28.2422 601.239 27.0761L599.21 26.6935C599.148 25.7248 599.086 24.707 599.012 23.5779L596.582 23.3125C596.478 23.1212 596.367 23.004 596.36 22.8868C596.095 18.7901 596.095 18.7903 599.771 18.7903H624.922M624.077 19.7649H613.759V22.4428L616.368 22.6524C616.435 23.8062 616.497 24.8303 616.559 25.8421L618.489 26.163C618.606 27.3969 618.705 28.4952 618.81 29.5934L619.476 29.5193C619.562 28.3779 619.655 27.2366 619.747 26.0952L621.826 25.8608C621.881 24.7194 621.931 23.689 621.974 22.6648L624.077 22.3994V19.7649ZM599.901 22.6648C599.987 23.7938 600.067 24.8119 600.141 25.7991L601.991 26.2124C602.065 27.4463 602.133 28.4766 602.195 29.5316H602.867C603.021 28.3964 603.169 27.2549 603.33 26.0518L605.285 25.8732C605.346 24.7194 605.402 23.7013 605.457 22.6401L607.554 22.4057V19.7896H597.224V22.4181L599.882 22.6464" fill="white"/>
<path d="M624.078 19.7586V22.3931L621.975 22.6582C621.932 23.6824 621.883 24.7128 621.827 25.8542L619.749 26.0886C619.656 27.23 619.564 28.3716 619.477 29.513L618.811 29.5871C618.706 28.4889 618.608 27.3968 618.49 26.1567L616.56 25.8359C616.498 24.824 616.437 23.7999 616.369 22.6462L613.76 22.4362V19.7586H624.078Z" fill="white"/>
<path d="M596.613 18.8089V23.2756L594.423 23.6028V26.6877L592.203 27.0516C592.147 28.1313 592.098 29.1739 592.036 30.3832H589.526C589.471 29.2788 589.415 28.2485 589.36 27.0886L587.429 26.7124C587.386 25.719 587.343 24.7504 587.294 23.6275L584.598 23.3314C584.531 22.1406 584.469 21.0424 584.401 19.8208H580.355C580.257 20.9437 580.158 22.0974 580.047 23.319L578.03 23.6028C577.968 24.6331 577.913 25.5956 577.845 26.6877L575.705 27.0703V30.4019H573.078C573.028 29.3036 572.979 28.2734 572.93 27.1073L570.901 26.7247C570.839 25.7499 570.777 24.7319 570.703 23.6028L568.273 23.3374C568.168 23.1461 568.057 23.0351 568.051 22.9117C567.786 18.815 567.792 18.8149 571.462 18.8149H596.613M595.768 19.7898H585.45V22.4677L588.058 22.671C588.126 23.8248 588.188 24.8554 588.25 25.861L590.18 26.1819C590.297 27.4158 590.396 28.5199 590.501 29.612L591.167 29.5442C591.259 28.4028 591.346 27.2613 591.438 26.1138L593.517 25.8794C593.572 24.738 593.621 23.7075 593.665 22.6834L595.768 22.4243V19.7898ZM571.591 22.6897C571.678 23.8126 571.758 24.8305 571.832 25.8176L573.682 26.231C573.756 27.4649 573.824 28.5017 573.886 29.5505H574.558C574.712 28.4091 574.86 27.2675 575.02 26.0644L576.975 25.8917C577.037 24.738 577.093 23.7138 577.148 22.6526L579.245 22.4183V19.8021H568.964V22.4366L571.622 22.665" fill="white"/>
<path d="M595.77 19.7835V22.4117L593.667 22.6771C593.623 23.7013 593.574 24.7317 593.518 25.8731L591.44 26.1075C591.347 27.2551 591.261 28.3965 591.169 29.5379L590.503 29.6057C590.398 28.5136 590.299 27.4154 590.182 26.1753L588.251 25.8544C588.19 24.8488 588.128 23.8185 588.06 22.6647L585.451 22.4611V19.7835H595.77Z" fill="white"/>
<path d="M568.418 18.9564V23.4234L566.234 23.7503V26.8351L564.008 27.2054C563.953 28.2851 563.903 29.3215 563.841 30.537H561.331C561.276 29.4326 561.22 28.3962 561.165 27.2424L559.241 26.8598C559.191 25.8727 559.148 24.904 559.099 23.775L556.404 23.4728C556.336 22.2882 556.274 21.19 556.206 19.9623H552.16C552.062 21.0913 551.963 22.2449 551.852 23.4665L549.835 23.7503C549.774 24.7806 549.718 25.7431 549.656 26.8351L547.516 27.2177V30.5493H544.914C544.864 29.4511 544.815 28.4148 544.766 27.2488L542.736 26.8662C542.675 25.8975 542.613 24.8795 542.539 23.7813L540.115 23.5159C540.004 23.3246 539.893 23.2074 539.887 23.0902C539.622 18.9935 539.628 18.9934 543.298 18.9934H568.449L568.418 18.9564ZM567.573 19.9312H557.249V22.6091L559.857 22.8188C559.925 23.9725 559.987 24.9966 560.049 26.0085L561.979 26.3293C562.096 27.5633 562.201 28.6615 562.3 29.7597L562.966 29.6856C563.058 28.5442 563.145 27.4029 563.237 26.2615L565.316 26.0272C565.371 24.8858 565.42 23.8553 565.464 22.8311L567.567 22.5657L567.573 19.9312ZM543.403 22.8311C543.489 23.9602 543.563 24.9782 543.643 25.9654L545.493 26.3787C545.561 27.6127 545.629 28.6429 545.691 29.698H546.363C546.517 28.5627 546.665 27.4213 546.826 26.2182L548.781 26.0395C548.842 24.8858 548.898 23.8676 548.953 22.8064L551.05 22.572V19.9559H540.726V22.5844L543.384 22.8124" fill="white"/>
<path d="M567.57 19.9315V22.5659L565.467 22.8314C565.424 23.8555 565.375 24.886 565.319 26.0274L563.241 26.2618C563.148 27.4032 563.062 28.5444 562.969 29.6858L562.303 29.76C562.205 28.6617 562.1 27.5697 561.983 26.3295L560.052 26.0087C559.991 24.9969 559.929 23.9727 559.861 22.819L557.252 22.6093V19.9315H567.57Z" fill="white"/>
<path d="M539.98 19.1048V23.5718L537.79 23.8987V26.9836L535.564 27.3538C535.514 28.4335 535.459 29.4698 535.397 30.6791H532.893C532.838 29.5809 532.782 28.5446 532.721 27.3909L530.796 27.0083C530.753 26.0149 530.71 25.0525 530.661 23.9234L527.959 23.6273C527.898 22.4427 527.836 21.3383 527.768 20.1167H523.722C523.624 21.2396 523.519 22.3932 523.414 23.6209L521.397 23.8987C521.335 24.929 521.28 25.8915 521.212 26.9836L519.072 27.3598V30.6914H516.438C516.389 29.5932 516.346 28.563 516.29 27.3969L514.268 27.0143C514.206 26.0456 514.138 25.0214 514.07 23.8924L511.64 23.6333C511.535 23.4359 511.418 23.325 511.412 23.2016C511.153 19.1049 511.153 19.1108 514.829 19.1108H539.98V19.1048ZM539.135 20.0797H528.817V22.8066L531.432 23.0163C531.499 24.1639 531.561 25.1942 531.623 26.206L533.553 26.5269C533.664 27.7608 533.769 28.8592 533.874 29.9512L534.54 29.8835C534.626 28.7421 534.719 27.6006 534.811 26.4531L536.89 26.2247C536.945 25.0771 536.988 24.0468 537.038 23.0226L539.141 22.7636L539.135 20.0797ZM514.958 22.9793C515.045 24.1022 515.125 25.1204 515.199 26.1075L517.049 26.5208C517.123 27.7548 517.185 28.7912 517.246 29.8401H517.925C518.073 28.6987 518.227 27.5573 518.387 26.3542L520.342 26.1816C520.398 25.0279 520.453 24.0037 520.509 22.9425L522.612 22.7078V20.092H512.282V22.8066L514.94 23.035" fill="white"/>
<path d="M539.139 20.1043V22.7388L537.036 22.9979C536.987 24.0221 536.943 25.0524 536.888 26.1999L534.809 26.4283C534.717 27.5759 534.624 28.7173 534.538 29.8587L533.872 29.9265C533.767 28.8344 533.662 27.7363 533.551 26.5024L531.621 26.1816C531.559 25.1697 531.498 24.1391 531.43 22.9916L528.815 22.7819V20.1043H539.139Z" fill="white"/>
<path d="M509.543 19.2776H511.788V23.7507L509.598 24.0715V27.1564L507.372 27.5206C507.322 28.6003 507.267 29.643 507.211 30.8522H504.701C504.646 29.7479 504.59 28.7114 504.529 27.5577L502.604 27.1811C502.561 26.1878 502.518 25.2191 502.469 24.0963L499.767 23.7941C499.706 22.6095 499.644 21.5113 499.576 20.2835C499.478 19.9619 499.478 19.618 499.576 19.2963M510.943 20.2772H500.625V22.9488L503.233 23.1584C503.301 24.3122 503.363 25.3428 503.425 26.3484L505.355 26.669C505.472 27.9029 505.571 29.0012 505.676 30.0994L506.342 30.0316C506.428 28.8902 506.521 27.7426 506.613 26.6012L508.692 26.3668C508.747 25.2254 508.79 24.195 508.84 23.1708L510.943 22.9057V20.2772Z" fill="white"/>
<path d="M510.941 20.2586V22.8868L508.838 23.1522C508.789 24.1764 508.746 25.2068 508.69 26.3482L506.612 26.5826C506.519 27.724 506.427 28.8716 506.341 30.013L505.674 30.0808C505.57 28.9826 505.471 27.8905 505.354 26.6504L503.423 26.3295C503.362 25.3239 503.3 24.2936 503.232 23.1398L500.623 22.9302V20.2586H510.941Z" fill="white"/>
<path d="M49.9992 31.0119L46.7859 28.3406V34.467L46.1692 34.7448L39.1814 27.1251L32.2184 34.8866L31.4475 34.5288C31.3549 32.6778 31.2686 30.8268 31.1638 28.5563L28.2897 30.8022V25.0398L26.1311 26.3662V18.4627L28.2095 19.5488V13.7984L31.2193 16.2663V10.2571L31.947 9.89288C34.1303 12.4163 36.3074 14.9336 38.9101 17.9135L46.1815 9.92391L46.7983 10.189V16.322L49.7895 13.8047V19.5548L51.9913 18.3208V26.2614L50.0177 25.2124L49.9992 31.0119Z" fill="white"/>
<path d="M44.4716 6.76544L39.2725 13.435L33.9006 6.76544H44.4716Z" fill="white"/>
<path d="M30.3616 26.8725L38.9652 17.8709L48.2164 26.8601L30.3616 26.8725Z" fill="white"/>
<path d="M484.792 30.3089C484.792 32.0241 484.792 33.3938 484.749 35.0904L482.282 32.8138L479.815 35.0471C479.815 33.3936 479.815 31.9993 479.852 30.3149L482.282 32.6226L484.786 30.3089" fill="white"/>
<path d="M484.792 25.0526C484.792 26.7677 484.792 28.1374 484.749 29.8341L482.282 27.5575L479.815 29.7907C479.815 28.1372 479.815 26.7431 479.852 25.0526L482.282 27.3662L484.786 25.0526" fill="white"/>
<path d="M484.754 20.1844C484.754 21.8996 484.754 23.2691 484.717 24.972L482.25 22.6893L479.783 24.9289C479.783 23.2692 479.783 21.8749 479.82 20.1844L482.257 22.498L484.761 20.1844" fill="white"/>
<path d="M484.792 15.0023C484.792 16.7113 484.792 18.0871 484.749 19.7838L482.282 17.5009L479.815 19.7404C479.815 18.0808 479.815 16.6866 479.852 15.0023L482.282 17.3159L484.786 15.0023" fill="white"/>
<path d="M484.792 9.9798C484.792 11.695 484.792 13.0647 484.749 14.7613L482.282 12.4847L479.815 14.7183C479.815 13.0648 479.815 11.6703 479.852 9.9798L482.282 12.2934L484.786 9.9798" fill="white"/>
</svg>
