<?xml version="1.0" standalone="no"?>
<!DOCTYPE svg PUBLIC "-//W3C//DTD SVG 20010904//EN"
 "http://www.w3.org/TR/2001/REC-SVG-20010904/DTD/svg10.dtd">
<svg version="1.0" xmlns="http://www.w3.org/2000/svg"
 width="150px" height="150px" viewBox="0 0 400.000000 400.000000"
 preserveAspectRatio="xMidYMid meet">

<g transform="translate(0.000000,400.000000) scale(0.100000,-0.100000)"
fill="#EF1515" stroke="none">
<path d="M1725 3651 c-269 -50 -479 -137 -698 -291 -118 -83 -303 -268 -390
-390 -80 -113 -185 -319 -226 -445 -63 -191 -75 -278 -75 -525 0 -247 12 -334
75 -525 41 -126 146 -332 226 -445 87 -122 271 -306 393 -393 113 -80 319
-185 445 -226 191 -63 278 -76 525 -76 247 0 334 13 525 76 126 41 332 146
445 226 122 87 306 271 393 393 80 113 185 319 226 445 63 190 75 278 75 525
1 198 -2 238 -22 330 -50 227 -152 460 -279 640 -87 122 -271 306 -393 393
-179 126 -414 230 -635 277 -144 32 -467 37 -610 11z m548 -953 l272 272 213
-212 212 -213 -272 -272 -273 -273 273 -273 272 -272 -212 -213 -213 -212
-272 272 -273 273 -273 -273 -272 -272 -213 212 -212 213 272 272 273 273
-273 273 -272 272 212 213 213 212 272 -272 273 -273 273 273z"/>
</g>
</svg>
