<svg width="10" height="10" viewBox="0 0 10 10" fill="none" xmlns="http://www.w3.org/2000/svg">
<path d="M5.58337 5.00001L9.91671 0.666677C10.0834 0.50001 10.0834 0.25001 9.91671 0.0833435C9.75004 -0.0833232 9.50004 -0.0833232 9.33337 0.0833435L5.00004 4.41668L0.666707 0.0833435C0.500041 1.01775e-05 0.250041 1.01775e-05 0.083374 0.0833435C4.06951e-05 0.25001 4.06951e-05 0.50001 0.083374 0.666677L4.41671 5.00001L0.083374 9.33334C-0.0832926 9.50001 -0.0832926 9.75001 0.083374 9.91668C0.166707 10 0.250041 10 0.416707 10C0.583374 10 0.583374 10 0.666707 9.91668L5.00004 5.58334L9.33337 9.91668C9.41671 10 9.50004 10 9.58337 10C9.66671 10 9.75004 10 9.83337 9.91668C10 9.75001 10 9.50001 9.83337 9.33334L5.58337 5.00001Z" fill="#4F489E"/>
</svg>
