<svg width="132" height="122" viewBox="0 0 168 156" fill="none" xmlns="http://www.w3.org/2000/svg">
<path d="M76.0943 88.5664C75.8007 88.8767 75.5539 89.1869 75.2821 89.4444C70.2298 94.4639 65.1763 99.4824 60.1219 104.5C52.9963 111.57 45.8489 118.622 38.7546 125.723C38.0392 126.436 37.7049 126.343 37.0583 125.704C29.9692 118.612 22.8561 111.536 15.7191 104.475C10.6365 99.4338 5.56646 94.3802 0.455787 89.3699C-0.168989 88.7495 -0.134626 88.4392 0.455787 87.8405C4.90211 83.4807 9.32136 79.0961 13.7135 74.6867C14.3383 74.0414 14.6257 74.3764 15.0693 74.8015C22.3584 82.0402 29.6412 89.2789 36.9177 96.5177C37.68 97.2808 38.0454 97.3708 38.8639 96.5518C46.1176 89.2768 53.4274 82.0578 60.7123 74.8139C61.1903 74.3361 61.487 73.9855 62.1743 74.6743C66.5852 79.123 71.0524 83.5159 75.4976 87.9273C75.6851 88.1135 75.86 88.312 76.0849 88.5478" fill="#5FBB46"/>
<path d="M138.84 88.6397C138.692 88.4513 138.534 88.271 138.366 88.0995C135.342 85.2683 132.489 82.2601 129.471 79.4071C127.753 77.7896 126.152 76.0294 124.475 74.3561C121.95 71.8332 119.409 69.329 116.852 66.8434C116.225 66.2473 116.225 65.8841 116.852 65.2756C118.917 63.3167 120.927 61.2926 122.945 59.2933C125.337 56.9246 127.741 54.5684 130.107 52.1748C130.606 51.6688 130.872 51.5695 131.439 52.1345C143.446 64.0556 155.473 75.956 167.52 87.8357C168.106 88.4131 168.203 88.6925 167.542 89.3444C155.23 101.464 142.945 113.609 130.687 125.778C130.101 126.362 129.835 126.377 129.248 125.778C124.921 121.451 120.564 117.153 116.178 112.885C115.404 112.134 115.466 111.734 116.2 111.023C123.491 103.88 130.764 96.7051 138.022 89.4965C138.294 89.2264 138.555 88.9439 138.852 88.6304" fill="#5FBB46"/>
<path d="M122.034 88.4406C122.034 88.8215 121.772 88.9547 121.587 89.1374C114.162 96.4975 106.733 103.856 99.2994 111.212C94.4127 116.055 89.5105 120.883 84.652 125.751C84.0275 126.371 83.6903 126.386 83.0907 125.751C78.8005 121.374 74.4873 117.023 70.1513 112.698C69.5268 112.063 69.4924 111.744 70.1513 111.097C82.4079 98.9946 94.6428 86.8725 106.856 74.7309C107.415 74.1765 107.702 74.1115 108.292 74.7154C112.664 79.0943 117.057 83.433 121.444 87.784C121.662 88.0008 121.862 88.2331 122.047 88.4282" fill="#5FBB46"/>
<path d="M37.8529 155.116C37.6126 154.939 37.3815 154.75 37.1606 154.55C32.8664 150.305 28.5941 146.042 24.275 141.824C23.5546 141.117 23.5141 140.681 24.2532 139.971C28.6003 135.724 32.9215 131.449 37.2167 127.146C37.7687 126.596 38.1959 126.546 38.7759 127.124C43.1418 131.468 47.5191 135.801 51.9078 140.122C52.3195 140.53 52.6407 140.897 52.0575 141.472C47.6168 145.822 43.1907 150.187 38.779 154.566C38.5087 154.814 38.1905 155.005 37.8435 155.128" fill="#4F499E"/>
<path d="M12.3332 6.03967C12.3332 4.39987 12.3704 2.76006 12.3332 1.1391C12.3042 0.27962 12.6143 0.00820387 13.5734 0.00820387C16.8806 -0.0294928 16.8806 -0.0634107 16.8806 2.98625C16.8806 7.97729 16.8476 12.9646 16.8806 17.9518C16.8806 18.9546 16.5706 19.3391 15.4957 19.1732C15.4448 19.1694 15.3937 19.1694 15.3427 19.1732C12.6019 19.1732 12.6019 19.1732 12.114 16.9491C11.7337 16.8699 11.5766 17.1753 11.374 17.3487C9.32768 19.1091 9.32767 19.1166 7.38879 17.3487C5.5946 15.7239 3.82935 14.0691 2.01449 12.4783C1.29103 11.8487 1.08433 11.4492 1.94422 10.7103C4.2345 8.7463 6.45449 6.70691 8.62901 4.62982C9.34834 3.93997 9.80722 3.95883 10.4108 4.65998C10.8779 5.20659 11.4113 5.70795 11.9156 6.23193L12.329 6.05098M11.9156 15.871L12.2298 15.6636V7.10272C10.6382 8.57666 9.2946 9.85081 7.90555 11.0835C7.42186 11.517 7.62442 11.762 7.99649 12.1126C9.31526 13.3491 10.6092 14.6081 11.9156 15.8597" fill="#4F499E"/>
<path d="M39.189 6.23782C39.3545 6.14263 39.5145 6.03821 39.6681 5.92508C40.3565 5.29209 41.1133 4.09015 41.718 4.16174C42.5129 4.25593 43.2126 5.326 43.9162 6.01175C45.5439 7.59801 47.1374 9.21441 48.7652 10.7931C49.2634 11.2754 49.347 11.6032 48.7652 12.1458C46.5784 14.2369 44.4296 16.3695 42.2999 18.521C41.8055 19.0221 41.4594 19.1653 40.9802 18.5511C40.501 17.937 40.0218 17.4208 39.3753 16.6898C38.995 19.1728 38.995 19.0786 36.6713 19.203C35.2451 19.2783 34.9447 18.7923 34.9637 17.466C35.0398 12.1458 35.0284 6.8256 34.9637 1.50918C34.9637 0.352448 35.2642 -0.0318714 36.485 0.00203912C39.1699 0.0773959 39.1699 0.00204153 39.1737 2.67721L39.189 6.23782ZM39.5693 7.3418L39.2574 7.53772V15.4502L39.5579 15.6687C40.7634 14.4065 41.95 13.1254 43.186 11.9009C43.6005 11.4864 43.361 11.2943 43.0833 11.0079C41.9044 9.8022 40.7406 8.58141 39.5693 7.3644" fill="#4F499E"/>
<path d="M19.4648 10.8294C19.4648 8.40365 19.4901 5.97412 19.4648 3.5484C19.4648 2.82106 19.675 2.50499 20.524 2.56973C21.3118 2.61923 22.1024 2.61923 22.8902 2.56973C23.7307 2.52403 24.2099 2.69159 24.1006 3.57506C23.9703 4.61465 24.5209 4.38998 25.1807 4.02822C26.985 3.05156 29.0514 2.54429 31.153 2.56212C32.1617 2.56212 32.4811 2.87818 32.355 3.70453C32.3424 3.89476 32.3424 4.08551 32.355 4.27574C32.355 6.35873 32.355 6.35873 30.0561 6.59102C28.4791 6.76862 27.0213 7.44313 25.9379 8.49646C24.8545 9.54979 24.2145 10.9148 24.13 12.3526C24.0628 14.2566 24.0628 16.1606 24.088 18.0647C24.088 18.8263 23.8947 19.1461 22.9574 19.1766C19.4606 19.287 19.4648 19.3175 19.4648 16.1111V10.8294Z" fill="#4F499E"/>
<path d="M8.41817 30.8811C8.36703 30.4493 8.15965 30.1141 7.79601 29.8754C7.43237 29.6368 6.98635 29.5175 6.45794 29.5175C6.07158 29.5175 5.73351 29.58 5.44374 29.705C5.1568 29.83 4.93237 30.0019 4.77044 30.2206C4.61135 30.4394 4.5318 30.6879 4.5318 30.9663C4.5318 31.1993 4.5872 31.3996 4.698 31.5672C4.81163 31.732 4.95652 31.8698 5.13266 31.9806C5.30879 32.0885 5.49345 32.178 5.68663 32.249C5.87982 32.3172 6.05737 32.3726 6.2193 32.4152L7.10567 32.6538C7.33294 32.7135 7.58578 32.7959 7.86419 32.901C8.14544 33.0061 8.41391 33.1496 8.66959 33.3314C8.92811 33.5104 9.14118 33.7405 9.30879 34.0217C9.47641 34.303 9.56021 34.6482 9.56021 35.0573C9.56021 35.5288 9.43663 35.955 9.18948 36.3357C8.94516 36.7163 8.5872 37.0189 8.11561 37.2433C7.64686 37.4678 7.07726 37.58 6.4068 37.58C5.7818 37.58 5.24061 37.4791 4.78323 37.2774C4.32868 37.0757 3.97073 36.7945 3.70936 36.4337C3.45084 36.0729 3.30453 35.6538 3.27044 35.1766H4.36135C4.38976 35.5061 4.50055 35.7788 4.69374 35.9948C4.88976 36.2078 5.13692 36.3669 5.43521 36.472C5.73635 36.5743 6.06021 36.6254 6.4068 36.6254C6.81021 36.6254 7.17243 36.5601 7.49345 36.4294C7.81448 36.2959 8.06874 36.1112 8.25624 35.8754C8.44374 35.6368 8.53749 35.3584 8.53749 35.0402C8.53749 34.7504 8.45652 34.5146 8.29459 34.3328C8.13266 34.151 7.91959 34.0033 7.65538 33.8896C7.39118 33.776 7.10567 33.6766 6.79885 33.5913L5.72499 33.2845C5.04317 33.0885 4.5034 32.8087 4.10567 32.445C3.70794 32.0814 3.50908 31.6056 3.50908 31.0175C3.50908 30.5288 3.64118 30.1027 3.90538 29.7391C4.17243 29.3726 4.53038 29.0885 4.97925 28.8868C5.43095 28.6823 5.93521 28.58 6.49203 28.58C7.05453 28.58 7.55453 28.6808 7.99203 28.8825C8.42953 29.0814 8.77612 29.3541 9.0318 29.7007C9.29033 30.0473 9.42669 30.4408 9.4409 30.8811H8.41817ZM11.6557 37.4266H10.5478L13.7523 28.6993H14.8432L18.0478 37.4266H16.9398L14.3319 30.08H14.2637L11.6557 37.4266ZM12.0648 34.0175H16.5307V34.955H12.0648V34.0175ZM25.1344 28.6993H26.1913V34.4777C26.1913 35.0743 26.0506 35.607 25.7694 36.0757C25.491 36.5416 25.0975 36.9095 24.589 37.1794C24.0805 37.4465 23.4839 37.58 22.7992 37.58C22.1145 37.58 21.518 37.4465 21.0094 37.1794C20.5009 36.9095 20.106 36.5416 19.8248 36.0757C19.5464 35.607 19.4072 35.0743 19.4072 34.4777V28.6993H20.464V34.3925C20.464 34.8186 20.5577 35.1979 20.7452 35.5303C20.9327 35.8598 21.1998 36.1198 21.5464 36.3101C21.8958 36.4976 22.3134 36.5913 22.7992 36.5913C23.285 36.5913 23.7026 36.4976 24.052 36.3101C24.4015 36.1198 24.6685 35.8598 24.8532 35.5303C25.0407 35.1979 25.1344 34.8186 25.1344 34.3925V28.6993ZM30.9949 37.4266H28.3017V28.6993H31.1142C31.9608 28.6993 32.6852 28.874 33.2875 29.2234C33.8898 29.57 34.3514 30.0686 34.6724 30.7192C34.9935 31.3669 35.154 32.1425 35.154 33.0459C35.154 33.955 34.992 34.7377 34.6682 35.3939C34.3443 36.0473 33.8727 36.5502 33.2534 36.9024C32.6341 37.2519 31.8812 37.4266 30.9949 37.4266ZM29.3585 36.4891H30.9267C31.6483 36.4891 32.2463 36.3499 32.7207 36.0715C33.1952 35.7931 33.5489 35.3967 33.7818 34.8825C34.0148 34.3683 34.1312 33.7561 34.1312 33.0459C34.1312 32.3413 34.0162 31.7348 33.7861 31.2263C33.556 30.7149 33.2122 30.3229 32.7548 30.0502C32.2974 29.7746 31.7278 29.6368 31.046 29.6368H29.3585V36.4891ZM37.9835 28.6993V37.4266H36.9267V28.6993H37.9835ZM40.4604 28.6993L43.0513 36.0459H43.1536L45.7445 28.6993H46.8525L43.6479 37.4266H42.557L39.3525 28.6993H40.4604ZM48.2118 37.4266V28.6993H53.4789V29.6368H49.2687V32.5857H53.2062V33.5232H49.2687V36.4891H53.5471V37.4266H48.2118ZM55.3837 37.4266V28.6993H58.3326C59.0144 28.6993 59.5741 28.8158 60.0116 29.0487C60.4491 29.2788 60.7729 29.5956 60.9832 29.999C61.1934 30.4024 61.2985 30.8612 61.2985 31.3754C61.2985 31.8896 61.1934 32.3456 60.9832 32.7433C60.7729 33.1411 60.4505 33.4536 60.0158 33.6808C59.5812 33.9053 59.0258 34.0175 58.3496 34.0175H55.9633V33.0629H58.3155C58.7814 33.0629 59.1564 32.9948 59.4405 32.8584C59.7275 32.722 59.9349 32.5288 60.0627 32.2788C60.1934 32.026 60.2587 31.7249 60.2587 31.3754C60.2587 31.026 60.1934 30.7206 60.0627 30.4592C59.932 30.1979 59.7232 29.9962 59.4363 29.8541C59.1493 29.7092 58.7701 29.6368 58.2985 29.6368H56.4405V37.4266H55.3837ZM59.4917 33.5061L61.6394 37.4266H60.4121L58.2985 33.5061H59.4917ZM67.8322 30.8811C67.7811 30.4493 67.5737 30.1141 67.2101 29.8754C66.8464 29.6368 66.4004 29.5175 65.872 29.5175C65.4856 29.5175 65.1476 29.58 64.8578 29.705C64.5709 29.83 64.3464 30.0019 64.1845 30.2206C64.0254 30.4394 63.9459 30.6879 63.9459 30.9663C63.9459 31.1993 64.0013 31.3996 64.1121 31.5672C64.2257 31.732 64.3706 31.8698 64.5467 31.9806C64.7229 32.0885 64.9075 32.178 65.1007 32.249C65.2939 32.3172 65.4714 32.3726 65.6334 32.4152L66.5197 32.6538C66.747 32.7135 66.9998 32.7959 67.2783 32.901C67.5595 33.0061 67.828 33.1496 68.0837 33.3314C68.3422 33.5104 68.5552 33.7405 68.7229 34.0217C68.8905 34.303 68.9743 34.6482 68.9743 35.0573C68.9743 35.5288 68.8507 35.955 68.6035 36.3357C68.3592 36.7163 68.0013 37.0189 67.5297 37.2433C67.0609 37.4678 66.4913 37.58 65.8209 37.58C65.1959 37.58 64.6547 37.4791 64.1973 37.2774C63.7427 37.0757 63.3848 36.7945 63.1234 36.4337C62.8649 36.0729 62.7186 35.6538 62.6845 35.1766H63.7754C63.8038 35.5061 63.9146 35.7788 64.1078 35.9948C64.3038 36.2078 64.551 36.3669 64.8493 36.472C65.1504 36.5743 65.4743 36.6254 65.8209 36.6254C66.2243 36.6254 66.5865 36.5601 66.9075 36.4294C67.2285 36.2959 67.4828 36.1112 67.6703 35.8754C67.8578 35.6368 67.9515 35.3584 67.9515 35.0402C67.9515 34.7504 67.8706 34.5146 67.7087 34.3328C67.5467 34.151 67.3337 34.0033 67.0694 33.8896C66.8052 33.776 66.5197 33.6766 66.2129 33.5913L65.139 33.2845C64.4572 33.0885 63.9175 32.8087 63.5197 32.445C63.122 32.0814 62.9231 31.6056 62.9231 31.0175C62.9231 30.5288 63.0552 30.1027 63.3194 29.7391C63.5865 29.3726 63.9444 29.0885 64.3933 28.8868C64.845 28.6823 65.3493 28.58 65.9061 28.58C66.4686 28.58 66.9686 28.6808 67.4061 28.8825C67.8436 29.0814 68.1902 29.3541 68.4459 29.7007C68.7044 30.0473 68.8408 30.4408 68.855 30.8811H67.8322ZM70.7118 37.4266V28.6993H75.9789V29.6368H71.7687V32.5857H75.7062V33.5232H71.7687V36.4891H76.0471V37.4266H70.7118Z" fill="#4F489E"/>
<path d="M6.98635 43.2326H8.04317V49.4712C8.04317 50.0281 7.9409 50.5011 7.73635 50.8903C7.5318 51.2795 7.24345 51.5749 6.87129 51.7766C6.49913 51.9783 6.06021 52.0792 5.55453 52.0792C5.07726 52.0792 4.65254 51.9925 4.28038 51.8192C3.90823 51.6431 3.61561 51.3931 3.40254 51.0692C3.18948 50.7454 3.08294 50.3604 3.08294 49.9144H4.12271C4.12271 50.1616 4.18379 50.3775 4.30595 50.5621C4.43095 50.744 4.60141 50.886 4.81732 50.9883C5.03323 51.0906 5.27896 51.1417 5.55453 51.1417C5.85851 51.1417 6.11703 51.0778 6.3301 50.9499C6.54317 50.8221 6.7051 50.6346 6.8159 50.3874C6.92953 50.1374 6.98635 49.832 6.98635 49.4712V43.2326ZM17.5247 47.5962C17.5247 48.5167 17.3585 49.3121 17.0261 49.9826C16.6937 50.6531 16.2378 51.1701 15.6582 51.5337C15.0787 51.8974 14.4167 52.0792 13.6724 52.0792C12.9281 52.0792 12.2662 51.8974 11.6866 51.5337C11.1071 51.1701 10.6511 50.6531 10.3187 49.9826C9.98635 49.3121 9.82016 48.5167 9.82016 47.5962C9.82016 46.6758 9.98635 45.8803 10.3187 45.2099C10.6511 44.5394 11.1071 44.0224 11.6866 43.6587C12.2662 43.2951 12.9281 43.1133 13.6724 43.1133C14.4167 43.1133 15.0787 43.2951 15.6582 43.6587C16.2378 44.0224 16.6937 44.5394 17.0261 45.2099C17.3585 45.8803 17.5247 46.6758 17.5247 47.5962ZM16.502 47.5962C16.502 46.8406 16.3756 46.2028 16.1227 45.6829C15.8727 45.163 15.5332 44.7695 15.1042 44.5025C14.6781 44.2354 14.2008 44.1019 13.6724 44.1019C13.144 44.1019 12.6653 44.2354 12.2364 44.5025C11.8102 44.7695 11.4707 45.163 11.2179 45.6829C10.9679 46.2028 10.8429 46.8406 10.8429 47.5962C10.8429 48.3519 10.9679 48.9897 11.2179 49.5096C11.4707 50.0295 11.8102 50.4229 12.2364 50.69C12.6653 50.957 13.144 51.0906 13.6724 51.0906C14.2008 51.0906 14.6781 50.957 15.1042 50.69C15.5332 50.4229 15.8727 50.0295 16.1227 49.5096C16.3756 48.9897 16.502 48.3519 16.502 47.5962ZM25.029 43.2326H26.0858V49.011C26.0858 49.6076 25.9452 50.1403 25.6639 50.609C25.3855 51.0749 24.992 51.4428 24.4835 51.7127C23.975 51.9798 23.3784 52.1133 22.6937 52.1133C22.0091 52.1133 21.4125 51.9798 20.904 51.7127C20.3954 51.4428 20.0006 51.0749 19.7193 50.609C19.4409 50.1403 19.3017 49.6076 19.3017 49.011V43.2326H20.3585V48.9258C20.3585 49.3519 20.4523 49.7312 20.6398 50.0636C20.8273 50.3931 21.0943 50.6531 21.4409 50.8434C21.7903 51.0309 22.2079 51.1246 22.6937 51.1246C23.1795 51.1246 23.5971 51.0309 23.9466 50.8434C24.296 50.6531 24.5631 50.3931 24.7477 50.0636C24.9352 49.7312 25.029 49.3519 25.029 48.9258V43.2326ZM28.1962 51.9599V43.2326H31.1451C31.8269 43.2326 32.3866 43.3491 32.8241 43.582C33.2616 43.8121 33.5854 44.1289 33.7957 44.5323C34.0059 44.9357 34.111 45.3945 34.111 45.9087C34.111 46.4229 34.0059 46.8789 33.7957 47.2766C33.5854 47.6744 33.263 47.9869 32.8283 48.2141C32.3937 48.4386 31.8383 48.5508 31.1621 48.5508H28.7758V47.5962H31.128C31.5939 47.5962 31.9689 47.5281 32.253 47.3917C32.54 47.2553 32.7474 47.0621 32.8752 46.8121C33.0059 46.5593 33.0712 46.2582 33.0712 45.9087C33.0712 45.5593 33.0059 45.2539 32.8752 44.9925C32.7445 44.7312 32.5357 44.5295 32.2488 44.3874C31.9618 44.2425 31.5826 44.1701 31.111 44.1701H29.253V51.9599H28.1962ZM32.3042 48.0394L34.4519 51.9599H33.2246L31.111 48.0394H32.3042ZM42.7925 43.2326V51.9599H41.7697L37.014 45.1076H36.9288V51.9599H35.872V43.2326H36.8947L41.6675 50.1019H41.7527V43.2326H42.7925ZM44.9072 51.9599V43.2326H50.1742V44.1701H45.964V47.119H49.9015V48.0565H45.964V51.0224H50.2424V51.9599H44.9072ZM51.329 43.2326H52.5393L54.9597 47.3065H55.062L57.4824 43.2326H58.6927L55.5393 48.3633V51.9599H54.4824V48.3633L51.329 43.2326Z" fill="#4F489E"/>
</svg>
