<svg width="121" height="124" viewBox="0 0 121 124" fill="none" xmlns="http://www.w3.org/2000/svg">
<path d="M118.39 15.3006C118.356 15.3038 118.328 15.3156 118.295 15.3198C117.714 14.5232 117.184 13.6776 116.752 12.9427C116.735 12.915 116.709 12.898 116.689 12.8735C117.435 12.2004 118.006 11.342 118.264 10.1503C118.747 7.91274 117.991 5.99254 116.645 4.66669L116.298 4.31524C114.988 2.95204 113.091 2.18949 110.88 2.67727C109.691 2.94032 108.839 3.52714 108.171 4.29075C107.416 3.79234 106.583 3.23002 105.867 2.71563C105.871 2.69007 105.88 2.66983 105.881 2.64321C106.004 1.08404 104.093 -0.705076 102.623 0.284251C101.32 1.15754 100.992 2.94887 102.674 3.96271C103.747 4.60916 104.827 4.50692 105.423 3.80935C106.102 4.29072 106.846 4.79022 107.491 5.21622C106.313 7.1343 105.801 9.67851 104.567 11.4752L81.4108 31.2361C69.2067 30.6951 54.2236 33.6526 42.8421 37.9542C25.6134 44.4657 0.0134832 58.9944 1.08841e-05 80.3552C-0.00419923 86.4928 1.21252 92.8519 4.45963 98.0958C8.09825 103.962 12.9545 109.51 18.3909 114.095C20.7506 116.083 23.2134 117.888 25.7355 119.464C32.678 123.798 41.6024 125.03 49.5384 123.145C72.8203 117.609 86.1105 85.6185 89.0178 64.1863C89.5494 60.266 89.7388 56.3223 89.8525 52.3701C89.922 49.9727 88.6442 41.5667 90.0083 39.9363L109.566 16.5373C111.332 15.2955 113.829 14.7769 115.722 13.5969C116.129 14.287 116.618 15.0719 117.159 15.8355C116.54 16.4511 116.469 17.5022 117.084 18.5481C118.083 20.2478 119.855 19.9166 120.719 18.597C121.697 17.1114 119.93 15.1762 118.389 15.3008L118.39 15.3006ZM58.1932 55.5968L76.2251 37.3523C76.4619 37.1127 76.8451 37.1127 77.0829 37.3523C77.3197 37.593 77.3197 37.9806 77.0829 38.2224L59.0499 56.4669C58.8131 56.7065 58.43 56.7065 58.1921 56.4669C57.9563 56.2262 57.9563 55.8385 58.1932 55.5968ZM41.0202 73.8424C41.257 74.0831 41.257 74.4707 41.0202 74.7114L28.1425 87.7439C27.9046 87.9835 27.5194 87.9835 27.2837 87.7439C27.0447 87.5032 27.0468 87.1155 27.2847 86.8748L40.1635 73.8424C40.3993 73.6028 40.7834 73.6028 41.0202 73.8424ZM43.5968 77.3164C43.8336 77.0767 44.2178 77.0767 44.4546 77.3164C44.6925 77.557 44.6914 77.9447 44.4546 78.1865L31.5769 91.2189C31.339 91.4585 30.9559 91.4596 30.717 91.2189C30.4802 90.9793 30.4802 90.5906 30.7181 90.3499L43.5968 77.3164ZM27.4709 68.265C28.9866 66.4694 30.4612 66.0913 32.4716 66.9774L32.6326 67.135C38.8614 71.41 31.8316 79.734 27.6489 75.0683C26.1165 73.3568 26.0269 69.9712 27.4709 68.265ZM39.0213 107.422C38.6614 108.63 38.2161 109.496 37.6457 110.071C37.4267 110.293 37.1899 110.472 36.9342 110.609C36.1142 111.054 35.0975 111.079 33.8261 110.689C32.6294 110.318 31.6579 109.397 31.1569 108.161C30.5801 106.74 30.6906 105.102 31.4579 103.664C32.3673 101.954 32.1263 100.71 30.6054 99.2254L30.5696 99.1892L29.0002 100.774C28.7634 101.016 28.3793 101.016 28.1424 100.774C27.9056 100.534 27.9056 100.146 28.1424 99.906L29.7086 98.3234L27.1204 95.7269L25.5637 97.2999C25.3269 97.5406 24.9438 97.5406 24.7059 97.2999C24.4691 97.0603 24.4691 96.6716 24.7059 96.4319L26.2595 94.8632L23.6734 92.2657L22.1304 93.8259C21.8935 94.0666 21.5094 94.0666 21.2726 93.8259C21.0357 93.5863 21.0357 93.1975 21.2726 92.9579L22.8113 91.4009L22.1535 90.7406C20.6684 89.2049 19.4369 88.9727 17.7529 89.9067C16.3352 90.6927 14.7154 90.8162 13.3092 90.2443C12.083 89.7438 11.1662 88.7661 10.7947 87.5616C10.3968 86.2815 10.4126 85.2527 10.8452 84.42C11.3336 83.4764 12.3303 82.798 13.9829 82.2804C14.304 82.1803 14.6418 82.3613 14.7418 82.6861C14.8397 83.0099 14.6608 83.355 14.3408 83.4551C13.0335 83.8651 12.2431 84.3656 11.921 84.9919C11.6421 85.5275 11.6526 86.2272 11.9536 87.1943C12.2189 88.0495 12.8767 88.7449 13.7619 89.1049C14.8313 89.5405 16.0743 89.4404 17.1698 88.8312C19.9581 87.2848 21.7599 88.5777 23.0155 89.877L31.4546 98.349C32.7408 99.6046 34.0322 101.416 32.5282 104.249C31.9324 105.364 31.8419 106.619 32.2787 107.697C32.6419 108.591 33.3344 109.254 34.1806 109.516C35.1395 109.812 35.8331 109.816 36.3604 109.53C36.9772 109.196 37.4666 108.393 37.8592 107.071C37.9539 106.746 38.2929 106.561 38.6149 106.659C38.936 106.754 39.117 107.097 39.0212 107.422L39.0213 107.422ZM35.0111 94.6947C34.7743 94.9343 34.3901 94.9343 34.1533 94.6947C33.9165 94.454 33.9165 94.0663 34.1533 93.8246L47.0332 80.7921C47.27 80.5525 47.6542 80.5525 47.891 80.7921C48.1278 81.0318 48.1278 81.4205 47.891 81.6601L35.0111 94.6947ZM53.2861 94.1845C51.6063 95.6585 48.2615 95.5946 46.5605 94.0557C41.9146 89.8576 50.0875 82.6836 54.3596 88.9565L54.5196 89.1152C55.41 91.1387 55.0459 92.6338 53.2861 94.1845ZM59.0057 75.678C52.6179 81.4885 42.661 75.6163 43.021 67.3871C43.202 63.2634 46.0628 59.5626 50.1139 58.7212C52.4232 58.242 54.7767 58.832 56.7545 60.0823C58.6995 61.3092 60.2804 63.1697 61.113 65.2731C62.5634 68.9368 61.9401 73.0135 59.0057 75.678ZM83.9527 45.1724L65.9208 63.4169C65.684 63.6565 65.2998 63.6565 65.0619 63.4169C64.8251 63.1773 64.8251 62.7885 65.0619 62.5489L83.0938 44.3044C83.3307 44.0637 83.7148 44.0648 83.9517 44.3044C84.1895 44.544 84.1895 44.9328 83.9527 45.1724ZM113.145 8.68229L62.4859 59.9413C62.248 60.1809 61.8628 60.1809 61.6259 59.9413C61.3891 59.7016 61.3891 59.3129 61.6259 59.0722L112.285 7.81325C112.522 7.57257 112.907 7.57257 113.143 7.81325C113.381 8.05181 113.38 8.44161 113.144 8.68123L113.145 8.68229Z" fill="#5FBB46"/>
</svg>
