<svg width="102" height="113" viewBox="0 0 102 113" fill="none" xmlns="http://www.w3.org/2000/svg">
<path d="M4.84296 85.8688L62.273 27.6588C62.1938 26.8698 62.1542 26.1247 62.1542 25.3356C62.1542 20.3386 63.9366 15.5608 67.1052 12.0541C75.7793 2.4548 95.4643 0.701477 97.6827 0.394501L102 0L101.644 4.77783C101.406 7.23248 99.782 29.0173 91.1077 38.617C87.9391 42.1236 83.5823 44.0962 79.1064 44.0962H77.0072L24.4079 107.652C21.9126 110.852 18.3481 112.824 14.5059 113H13.991H13.476C5.75256 112.693 -0.267839 105.505 0.00918952 97.001C0.167621 92.7052 1.94999 88.6728 4.84144 85.8675L4.84296 85.8688ZM65.1266 36.0306L54.2345 46.9889C54.6702 50.1011 56.8882 52.5118 59.7005 53.038L69.6025 40.984C68.7312 40.3265 67.8994 39.6252 67.1072 38.7923C66.3943 37.9157 65.7207 36.9949 65.1266 36.0306ZM7.57704 97.3946C7.57704 99.4109 8.32958 101.383 9.67626 102.742C12.33 105.46 16.4886 105.285 18.9446 102.304L54.2352 59.4349C51.7399 57.9884 49.7198 55.753 48.4128 52.9916L9.79541 92.0466C8.40914 93.4054 7.61698 95.334 7.57737 97.3943L7.57704 97.3946Z" fill="#5FBB46"/>
</svg>
