<svg width="128" height="124" viewBox="0 0 128 124" fill="none" xmlns="http://www.w3.org/2000/svg">
<path d="M66.2531 1.01719L74.2408 9.68745H75.521C79.0555 9.68745 81.9203 11.8559 81.9203 14.5312V19.375H90.88C94.4157 19.375 97.2806 21.5434 97.2806 24.2187V29.0625H103.68C107.215 29.0625 110.081 31.2309 110.081 33.9062V38.75H108.8C119.404 38.75 128 45.2562 128 53.2812V109.469C128 117.494 119.404 124 108.8 124H89.6007V94.9375H81.9199V124H46.0801V94.9375H38.3993V124H19.1996C8.59596 124 0 117.494 0 109.469V53.2812C0 45.2562 8.59596 38.75 19.1996 38.75H17.9195V33.9062C17.9195 31.2309 20.7855 29.0625 24.32 29.0625H30.7194V24.2187C30.7194 21.5434 33.5843 19.375 37.12 19.375H43.5194V14.5312C43.5194 11.8559 46.3842 9.68745 49.9188 9.68745H53.759L61.7456 1.01719C62.9945 -0.339063 65.0021 -0.339063 66.2513 1.01719H66.2531ZM66.0935 13.2996C64.8938 12.1605 63.1081 12.1605 61.9073 13.2996L61.7477 13.4622L56.3214 19.375V29.0625H43.5212V38.75H30.721V48.4375H19.201L18.8718 48.4436C15.5995 48.569 12.9755 50.555 12.8092 53.0323L12.8014 53.2814V109.469L12.8092 109.718C12.9755 112.195 15.5994 114.181 18.8718 114.307L19.201 114.313H25.6015V90.0929L25.6094 89.8438C25.7757 87.3664 28.3995 85.3806 31.6719 85.2551L32.0011 85.249H52.481L52.8103 85.2551C56.0825 85.3805 58.7065 87.3665 58.8728 89.8438L58.8806 90.0929V114.313H69.1217V90.0929L69.1295 89.8438C69.2958 87.3664 71.9197 85.3806 75.1921 85.2551L75.5213 85.249H96.0012L96.3304 85.2551C99.6027 85.3805 102.227 87.3665 102.393 89.8438L102.401 90.0929V114.313H108.801L109.131 114.307C112.403 114.181 115.027 112.195 115.193 109.718L115.201 109.469V53.2814L115.193 53.0323C115.027 50.5549 112.403 48.5692 109.131 48.4436L108.801 48.4375H97.2814V38.75H84.4812V29.0625H71.6809V19.375L66.2535 13.4622L66.0935 13.2996Z" fill="#5FBB46"/>
</svg>
