<svg width="117" height="129" viewBox="0 0 117 129" fill="none" xmlns="http://www.w3.org/2000/svg">
<path fill-rule="evenodd" clip-rule="evenodd" d="M67.6304 0.198907C69.3745 -0.294191 71.2469 0.143117 72.6003 1.35969L111.501 36.3414C119.157 43.226 118.774 55.8423 110.632 62.1757L30.1758 124.749C22.4404 130.765 11.809 130.35 4.51814 123.794C0.116422 119.835 -1.18093 113.382 1.12067 107.969L31.3939 36.769C33.8707 30.9436 39.4194 26.9852 45.7603 26.9852H53.3122C55.3199 26.9852 57.3747 25.5814 58.1342 23.0772L63.98 3.8002C64.5107 2.05004 65.8861 0.693018 67.6304 0.198907ZM71.7205 14.9577L68.3035 26.2272C66.2753 32.9137 60.3306 37.7341 53.3121 37.7341H45.7602C43.9359 37.7341 42.0723 38.8822 41.1661 41.0129C32.1728 62.1632 10.6581 113.096 10.6581 113.096L94.8975 35.7977L71.7205 14.9577ZM102.887 42.985L21.8115 117.38C21.8115 117.38 78.7726 73.3895 104.145 53.6573C106.959 51.469 107.144 46.8133 104.431 44.3738L102.887 42.985Z" fill="#5FBB46"/>
<path d="M64 121.5C64 119.567 65.4921 118 67.3331 118H100.667C102.508 118 104 119.567 104 121.5C104 123.433 102.508 125 100.667 125H67.3331C65.4921 125 64 123.433 64 121.5Z" fill="#5FBB46"/>
<path d="M83.3331 106C81.4921 106 80 107.567 80 109.5C80 111.433 81.4921 113 83.3331 113H96.6669C98.5079 113 100 111.433 100 109.5C100 107.567 98.5079 106 96.6669 106H83.3331Z" fill="#5FBB46"/>
</svg>
