<svg width="113" height="75" viewBox="0 0 113 75" fill="none" xmlns="http://www.w3.org/2000/svg">
<path d="M60.8446 13.2359V0H52.1531V13.2359H0V75H112.998L113 13.2359H60.8446ZM40.8525 46.3238H30.4223V56.9116H26.0766V46.3238H15.6463V41.9125H26.0766V31.3248H30.4223V41.9125H40.8525V46.3238ZM73.8832 48.5303C71.4928 48.5303 69.5375 46.5454 69.5375 44.119C69.5375 41.6925 71.4929 39.7077 73.8832 39.7077C76.2737 39.7077 78.2289 41.6926 78.2289 44.119C78.2289 46.5455 76.2736 48.5303 73.8832 48.5303ZM84.7485 59.5596C82.358 59.5596 80.4028 57.5747 80.4028 55.1483C80.4028 52.7218 82.3582 50.737 84.7485 50.737C87.1389 50.737 89.0942 52.7219 89.0942 55.1483C89.0942 57.5748 87.1388 59.5596 84.7485 59.5596ZM84.7485 37.501C82.358 37.501 80.4028 35.5161 80.4028 33.0897C80.4028 30.6632 82.3582 28.6784 84.7485 28.6784C87.1389 28.6784 89.0942 30.6633 89.0942 33.0897C89.0942 35.5162 87.1388 37.501 84.7485 37.501ZM95.6137 48.5303C93.2233 48.5303 91.268 46.5454 91.268 44.119C91.268 41.6925 93.2234 39.7077 95.6137 39.7077C98.0041 39.7077 99.9594 41.6926 99.9594 44.119C99.9594 46.5455 98.004 48.5303 95.6137 48.5303Z" fill="#5FBB46"/>
</svg>
