<svg xmlns="http://www.w3.org/2000/svg" width="214" height="265" viewBox="0 0 214 265" fill="none">
<path d="M93.0478 8.79376L95.1889 10.8959L99.4319 10.8518L99.4711 15.0954L101.617 17.1976L105.816 12.9148L110.225 17.2368L105.904 21.642L101.622 17.4377L99.5202 19.5791L99.5592 23.8275L95.3164 23.8667L93.2145 26.0081L97.4965 30.2125L93.3025 34.4903L89.0155 30.286L93.2193 26.0032L91.0784 23.901L86.8354 23.9402L86.7961 19.7016L84.6502 17.5994L80.4464 21.8822L76.0417 17.5602L80.3632 13.1549L84.6452 17.3593L86.7471 15.213L86.7079 10.9694L90.9509 10.9302L93.0478 8.79376Z" fill="#4F499E" fill-opacity="0.09"/>
<path d="M97.9869 81.128L93.7881 85.4059L89.5059 81.2064L93.7049 76.9236L91.5637 74.8215L87.3207 74.8607L87.2817 70.6171L85.1406 68.5149L80.9368 72.7977L76.5273 68.4757L80.8485 64.0705L85.1308 68.2748L87.2327 66.1334L87.1935 61.8899L91.4365 61.8507L93.5333 59.7093L95.6745 61.8115L99.9223 61.7723L99.9615 66.0158L102.103 68.118L106.306 63.8303L110.711 68.1572L106.39 72.5625L102.107 68.3581L100.006 70.4995L100.045 74.743L95.8017 74.7823L93.7049 76.9236L97.9869 81.128Z" fill="#4F499E" fill-opacity="0.09"/>
<path d="M125.262 49.0356L121.019 49.0748L118.918 51.221L123.2 55.4205L119.113 59.5857L114.709 55.2637L118.913 50.976L116.772 48.8739L112.529 48.918L112.485 44.6744L110.471 42.6947L112.45 40.6759L112.411 36.4323L116.654 36.3931L118.756 34.2468L114.474 30.0425L118.79 25.6421L122.95 29.7239L118.751 34.0067L120.892 36.1089L125.135 36.0697L125.174 40.3132L127.315 42.4154L131.519 38.1278L135.924 42.4497L131.607 46.855L127.32 42.6506L125.223 44.792L125.262 49.0356Z" fill="#4F499E" fill-opacity="0.09"/>
<path d="M126.232 150.877L121.989 150.916L119.892 153.057L124.174 157.262L120.088 161.427L115.684 157.1L119.882 152.817L117.741 150.715L113.498 150.759L113.459 146.516L111.441 144.536L113.425 142.517L113.386 138.273L117.629 138.234L119.731 136.088L115.444 131.884L119.765 127.483L123.924 131.565L119.721 135.848L121.862 137.95L126.105 137.911L126.149 142.154L128.29 144.257L132.494 139.969L136.898 144.291L132.577 148.696L128.295 144.492L126.193 146.633L126.232 150.877Z" fill="#4F499E" fill-opacity="0.09"/>
<path d="M125.748 99.9548L121.505 99.9989L119.403 102.14L123.69 106.345L119.604 110.51L115.194 106.183L119.398 101.9L117.257 99.798L113.014 99.8372L112.975 95.5936L110.956 93.6139L112.94 91.595L112.896 87.3515L117.139 87.3123L119.241 85.1709L114.959 80.9665L119.276 76.5613L123.44 80.6431L119.236 84.9308L121.377 87.0281L125.621 86.9889L125.66 91.2324L127.806 93.3346L132.004 89.0518L136.409 93.3738L132.093 97.7742L127.81 93.5698L125.709 95.7112L125.748 99.9548Z" fill="#4F499E" fill-opacity="0.09"/>
<path d="M98.4688 132.045L94.2698 136.328L89.9878 132.123L94.1916 127.841L92.0505 125.738L87.8027 125.778L87.7634 121.534L85.6223 119.437L81.4185 123.72L77.014 119.393L81.3305 114.992L85.6175 119.192L87.7194 117.05L87.6751 112.807L91.9182 112.768L94.0153 110.631L96.1562 112.733L100.404 112.689L100.443 116.933L102.584 119.035L106.788 114.752L111.193 119.074L106.871 123.479L102.589 119.275L100.487 121.417L100.531 125.66L96.2885 125.704L94.1866 127.846L98.4688 132.045Z" fill="#4F499E" fill-opacity="0.09"/>
<path d="M127.204 252.715L122.961 252.754L120.859 254.896L125.141 259.1L121.06 263.265L116.65 258.938L120.854 254.656L118.713 252.553L114.47 252.598L114.426 248.354L112.412 246.374L114.397 244.355L114.353 240.112L118.596 240.068L120.697 237.926L116.415 233.727L120.732 229.322L124.896 233.404L120.692 237.686L122.834 239.788L127.077 239.749L127.116 243.993L129.262 246.095L133.46 241.807L137.865 246.129L133.549 250.535L129.267 246.33L127.165 248.472L127.204 252.715Z" fill="#4F499E" fill-opacity="0.09"/>
<path d="M99.4469 233.885L95.2481 238.167L90.9658 233.963L95.1648 229.68L93.0237 227.578L88.7807 227.617L88.7417 223.374L86.6006 221.272L82.3968 225.559L77.9872 221.232L82.3085 216.832L86.5908 221.031L88.6926 218.89L88.6534 214.647L92.8964 214.607L94.9933 212.466L97.1344 214.568L101.382 214.529L101.421 218.772L103.563 220.875L107.766 216.592L112.171 220.914L107.85 225.319L103.567 221.115L101.465 223.256L101.505 227.5L97.2617 227.544L95.1598 229.685L99.4469 233.885Z" fill="#4F499E" fill-opacity="0.09"/>
<path d="M98.9565 182.969L94.7577 187.247L90.4755 183.048L94.6792 178.76L92.5384 176.663L88.2953 176.702L88.2561 172.458L86.1102 170.356L81.9112 174.639L77.5016 170.317L81.8231 165.912L86.1052 170.116L88.2071 167.975L88.1678 163.731L92.4108 163.687L94.5079 161.55L96.6488 163.653L100.892 163.613L100.931 167.857L103.077 169.959L107.276 165.671L111.685 169.998L107.364 174.404L103.077 170.199L100.98 172.341L101.019 176.584L96.7764 176.623L94.6745 178.765L98.9565 182.969Z" fill="#4F499E" fill-opacity="0.09"/>
<path d="M126.722 201.801L122.479 201.84L120.377 203.981L124.66 208.186L120.573 212.351L116.169 208.024L120.372 203.741L118.227 201.639L113.984 201.678L113.945 197.435L111.931 195.455L113.91 193.436L113.871 189.193L118.114 189.153L120.216 187.007L115.934 182.808L120.25 178.402L124.41 182.484L120.206 186.772L122.352 188.869L126.595 188.83L126.634 193.074L128.775 195.176L132.979 190.893L137.384 195.215L133.067 199.615L128.78 195.411L126.678 197.557L126.722 201.801Z" fill="#4F499E" fill-opacity="0.09"/>
<path d="M213.025 118.098L208.905 130.868L196.215 135.234L196.098 135.121L183.325 131L179.003 118.431L183.09 105.769L195.779 101.403L195.892 101.29L208.655 105.412L213.016 118.088L213.025 118.098Z" fill="#4F499E" fill-opacity="0.09"/>
<path d="M212.54 67.1762L208.42 79.9509L195.73 84.3121L195.73 84.317L195.607 84.1994L182.839 80.0783L178.518 67.5094L182.604 54.8522L195.289 50.4861L195.402 50.3685L208.17 54.4896L212.53 67.1713L212.54 67.1762Z" fill="#4F499E" fill-opacity="0.09"/>
<path d="M213.511 169.017L209.391 181.787L196.701 186.153L196.701 186.158L196.583 186.041L183.815 181.919L179.489 169.351L183.575 156.688L196.265 152.322L196.378 152.21L209.146 156.331L213.506 169.012L213.511 169.017Z" fill="#4F499E" fill-opacity="0.09"/>
<path d="M207.686 3.57452L212.046 16.2513L212.051 16.2611L207.931 29.031L195.246 33.397L195.241 33.4019L195.123 33.2843L182.355 29.1633L178.034 16.5943L182.115 3.93224" fill="#4F499E" fill-opacity="0.09"/>
<path d="M214 219.943L209.88 232.713L197.19 237.079L197.185 237.079L197.067 236.966L184.299 232.84L179.978 220.276L184.064 207.614L196.749 203.248L196.862 203.135L209.63 207.256L213.99 219.933L214 219.943Z" fill="#4F499E" fill-opacity="0.09"/>
<path d="M165.545 46.293L153.13 42.2847L165.472 38.0411L169.592 25.2712L169.646 25.2173L173.948 37.7324L186.721 41.8535L186.838 41.9662L186.725 42.0789L174.036 46.4449L169.969 59.0433L169.911 58.9845L165.545 46.293Z" fill="#4F499E" fill-opacity="0.09"/>
<path d="M144.69 84.6864L140.325 71.9949L127.919 67.9914L140.251 63.7479L144.372 50.978L144.426 50.9192L148.732 63.4294L161.5 67.5504L161.618 67.6729L161.505 67.7856L148.821 72.1517L144.754 84.7452L144.69 84.6864Z" fill="#4F499E" fill-opacity="0.09"/>
<path d="M166.031 97.2171L153.62 93.2088L165.957 88.9652L170.077 76.1904L170.131 76.1365L174.438 88.6516L187.206 92.7727L187.324 92.8854L187.211 93.003L174.521 97.369L170.46 109.967L170.396 109.904L166.031 97.2171Z" fill="#4F499E" fill-opacity="0.09"/>
<path d="M143.941 2.39093e-06L148.247 12.5102L161.015 16.6312L161.133 16.7488L161.02 16.8615L148.331 21.2276L144.264 33.826L144.205 33.7672L139.84 21.0757L127.434 17.0673L139.761 12.8287L143.882 0.0539047" fill="#4F499E" fill-opacity="0.09"/>
<path d="M146.154 237.441L141.789 224.754L129.383 220.746L141.715 216.507L145.836 203.733L145.889 203.679L150.196 216.189L162.964 220.31L163.082 220.427L162.969 220.54L150.279 224.906L146.218 237.505L146.154 237.441Z" fill="#4F499E" fill-opacity="0.09"/>
<path d="M167.491 249.972L155.075 245.963L167.417 241.72L171.537 228.95L171.591 228.896L175.893 241.406L188.666 245.532L188.784 245.645L188.671 245.758L175.981 250.124L171.915 262.722L171.856 262.663L167.491 249.972Z" fill="#4F499E" fill-opacity="0.09"/>
<path d="M145.178 135.603L140.817 122.917L128.407 118.909L140.739 114.67L144.86 101.895L144.918 101.841L149.22 114.351L161.988 118.472L162.111 118.59L161.998 118.703L149.308 123.069L145.242 135.667L145.178 135.603Z" fill="#4F499E" fill-opacity="0.09"/>
<path d="M166.521 148.133L154.106 144.124L166.443 139.881L170.563 127.111L170.617 127.052L174.924 139.572L187.696 143.693L187.809 143.806L187.696 143.918L175.012 148.285L170.945 160.883L170.881 160.824L166.521 148.133Z" fill="#4F499E" fill-opacity="0.09"/>
<path d="M167.005 199.055L154.59 195.046L166.932 190.803L171.052 178.028L171.106 177.974L175.408 190.489L188.181 194.61L188.298 194.723L188.185 194.84L175.496 199.206L171.429 211.8L171.371 211.741L167.005 199.055Z" fill="#4F499E" fill-opacity="0.09"/>
<path d="M145.669 186.524L141.303 173.832L128.898 169.829L141.225 165.585L145.35 152.815L145.404 152.757L149.706 165.267L162.479 169.393L162.596 169.505L162.484 169.623L149.794 173.989L145.727 186.583L145.669 186.524Z" fill="#4F499E" fill-opacity="0.09"/>
<path d="M43.0328 102.865L47.3933 115.556L59.8037 119.56L47.4718 123.803L43.3462 136.573L43.2924 136.632L38.9907 124.122L26.2177 119.996L26.1002 119.883L26.2129 119.765L38.9025 115.399L42.9689 102.801L43.0328 102.865Z" fill="#4F499E" fill-opacity="0.09"/>
<path d="M43.5182 153.787L47.8837 166.473L60.2891 170.482L47.9571 174.72L43.8366 187.49L43.778 187.549L39.4761 175.039L26.708 170.918L26.5855 170.8L26.7032 170.687L39.3881 166.321L43.4545 153.723L43.5182 153.787Z" fill="#4F499E" fill-opacity="0.09"/>
<path d="M1.00477 145.699L13.7728 149.825L18.0795 162.335L18.1333 162.281L22.2539 149.511L34.5908 145.263L22.1804 141.26L17.8149 128.568L17.756 128.509L13.6846 141.108L0.999987 145.474" fill="#4F499E" fill-opacity="0.09"/>
<path d="M0.514636 94.7784L13.2877 98.8994L17.5941 111.414L17.6482 111.356L21.7685 98.5858L34.1055 94.3422L21.6903 90.3339L17.3298 77.6473L17.2709 77.5836L13.1994 90.1869L0.514636 94.553" fill="#4F499E" fill-opacity="0.09"/>
<path d="M1.9746 247.537L14.7477 251.663L19.0493 264.178L19.1082 264.119L23.2285 251.344L35.5654 247.1L23.1502 243.097L18.7897 230.406L18.7259 230.347L14.6594 242.945L1.96981 247.311" fill="#4F499E" fill-opacity="0.09"/>
<path d="M1.48924 196.617L14.2621 200.738L18.564 213.253L18.6226 213.194L22.7431 200.424L35.0801 196.181L22.6646 192.172L18.3042 179.481L18.2405 179.422L14.1738 192.025L1.48422 196.386" fill="#4F499E" fill-opacity="0.09"/>
<path d="M42.5436 51.9455L46.9088 64.632L59.3145 68.6404L46.9873 72.8791L42.862 85.6538L42.8082 85.7077L38.5063 73.1976L25.7334 69.0765L25.6157 68.9589L25.7284 68.8462L38.418 64.4801L42.4847 51.8818L42.5436 51.9455Z" fill="#4F499E" fill-opacity="0.09"/>
<path d="M44.0035 204.704L48.3688 217.395L60.7744 221.399L48.4473 225.642L44.3219 238.412L44.2681 238.471L39.9662 225.961L27.1934 221.84L27.0757 221.722L27.1884 221.604L39.8782 217.238L43.9447 204.645L44.0035 204.704Z" fill="#4F499E" fill-opacity="0.09"/>
<path d="M0.0292802 43.8601L12.8021 47.9811L17.1038 60.4962L17.1626 60.4374L21.2832 47.6675L33.6201 43.4191L21.2047 39.4156L16.8442 26.7242L16.7806 26.6653L12.7139 39.2637L0.0242562 43.6298" fill="#4F499E" fill-opacity="0.09"/>
<path d="M42.0582 1.02231L46.4237 13.7138L58.8291 17.7172L46.4972 21.9608L42.3766 34.7307L42.318 34.7895L38.0161 22.2793L25.2481 18.1582L25.1306 18.0406L25.2433 17.923L37.9329 13.557L41.9946 0.963503" fill="#4F499E" fill-opacity="0.09"/>
<path d="M86.7663 246.651L82.6077 242.571L78.5248 246.733L82.6834 250.813L86.7663 246.651Z" fill="#4F499E" fill-opacity="0.09"/>
<path d="M112.018 246.252L107.861 242.171L103.776 246.332L107.934 250.413L112.018 246.252Z" fill="#4F499E" fill-opacity="0.09"/>
<path d="M99.8221 259.221L95.5376 255.017L91.3381 259.299L95.6226 263.502L99.8221 259.221Z" fill="#4F499E" fill-opacity="0.09"/>
<path d="M63.4349 240.354L67.678 240.314L69.7799 238.168L65.4976 233.969L69.5839 229.803L73.9884 234.125L69.7897 238.413L71.9308 240.515L76.1736 240.471L76.2128 244.715L78.2314 246.694L76.2473 248.713L76.2863 252.957L72.0435 252.996L69.9416 255.142L74.2286 259.342L69.9071 263.747L65.7476 259.665L69.9514 255.382L67.8103 253.28L63.5672 253.319L63.5232 249.076L61.3821 246.974L57.1783 251.261L52.7738 246.939L57.095 242.534L61.3773 246.738L63.4792 244.597L63.4349 240.354Z" fill="#4F499E" fill-opacity="0.09"/>
<path d="M103.771 246.53L95.3281 238.246L87.0456 246.69L95.4886 254.974L103.771 246.53Z" fill="#4F499E" fill-opacity="0.09"/>
<path d="M86.0588 195.552L81.9016 191.47L77.8173 195.632L81.9744 199.713L86.0588 195.552Z" fill="#4F499E" fill-opacity="0.09"/>
<path d="M110.78 93.6725L106.622 89.5924L102.539 93.7551L106.697 97.8351L110.78 93.6725Z" fill="#4F499E" fill-opacity="0.09"/>
<path d="M98.3658 106.476L94.0813 102.272L89.8818 106.554L94.1663 110.757L98.3658 106.476Z" fill="#4F499E" fill-opacity="0.09"/>
<path d="M102.203 93.678L93.7615 85.3928L85.4774 93.8357L93.9191 102.121L102.203 93.678Z" fill="#4F499E" fill-opacity="0.09"/>
<path d="M61.98 87.5904L66.2228 87.5512L68.3199 85.4098L64.0376 81.2054L68.124 77.0403L72.5285 81.3671L68.3297 85.6499L70.4708 87.7521L74.7136 87.7129L74.7528 91.9564L76.7715 93.9361L74.7873 95.955L74.8263 100.199L70.5835 100.238L68.4816 102.379L72.7687 106.583L68.4472 110.989L64.2876 106.907L68.4914 102.619L66.3503 100.517L62.1073 100.561L62.0633 96.3176L59.9221 94.2154L55.7183 98.4982L51.3138 94.1762L55.6351 89.7759L59.9173 93.9802L62.0192 91.8339L61.98 87.5904Z" fill="#4F499E" fill-opacity="0.09"/>
<path d="M101.829 42.8603L93.3862 34.5765L85.1037 43.0209L93.5467 51.3046L101.829 42.8603Z" fill="#4F499E" fill-opacity="0.09"/>
<path d="M84.8209 42.985L80.6624 38.9049L76.5795 43.0676L80.738 47.1476L84.8209 42.985Z" fill="#4F499E" fill-opacity="0.09"/>
<path d="M85.0988 93.708L80.9417 89.6265L76.8573 93.7877L81.0145 97.8692L85.0988 93.708Z" fill="#4F499E" fill-opacity="0.09"/>
<path d="M110.087 42.5635L105.93 38.482L101.846 42.6432L106.003 46.7248L110.087 42.5635Z" fill="#4F499E" fill-opacity="0.09"/>
<path d="M62.4653 138.515L66.7084 138.476L68.8103 136.335L64.528 132.13L68.6093 127.965L73.0188 132.287L68.815 136.57L70.9562 138.672L75.1992 138.633L75.2384 142.876L77.2568 144.856L75.2726 146.875L75.3167 151.118L71.0739 151.158L68.972 153.304L73.254 157.503L68.9375 161.909L64.773 157.827L68.9768 153.544L66.8356 151.442L62.5929 151.481L62.5536 147.237L60.4125 145.135L56.2039 149.423L51.8042 145.101L56.1207 140.696L60.4027 144.9L62.5046 142.759L62.4653 138.515Z" fill="#4F499E" fill-opacity="0.09"/>
<path d="M85.5771 144.634L81.4199 140.552L77.3356 144.713L81.4927 148.795L85.5771 144.634Z" fill="#4F499E" fill-opacity="0.09"/>
<path d="M62.9509 189.431L67.194 189.391L69.2956 187.25L65.0136 183.046L69.0997 178.88L73.5044 183.207L69.3006 187.49L71.4418 189.592L75.6846 189.553L75.7288 193.797L77.7424 195.776L75.763 197.795L75.8023 202.039L71.5592 202.078L69.4573 204.219L73.7396 208.424L69.4231 212.829L65.2634 208.742L69.4624 204.459L67.3212 202.357L63.0782 202.401L63.039 198.158L60.8981 196.056L56.6943 200.338L52.2896 196.016L56.606 191.616L60.8931 195.816L62.9902 193.674L62.9509 189.431Z" fill="#4F499E" fill-opacity="0.09"/>
<path d="M99.3367 208.301L95.0522 204.098L90.8526 208.38L95.1371 212.583L99.3367 208.301Z" fill="#4F499E" fill-opacity="0.09"/>
<path d="M103.286 195.611L94.8425 187.328L86.56 195.772L95.003 204.056L103.286 195.611Z" fill="#4F499E" fill-opacity="0.09"/>
<path d="M111.054 144.408L106.897 140.327L102.813 144.488L106.97 148.57L111.054 144.408Z" fill="#4F499E" fill-opacity="0.09"/>
<path d="M98.8438 157.38L94.5593 153.176L90.3598 157.457L94.6443 161.661L98.8438 157.38Z" fill="#4F499E" fill-opacity="0.09"/>
<path d="M102.688 144.603L94.2468 136.317L85.9663 144.757L94.4079 153.042L102.688 144.603Z" fill="#4F499E" fill-opacity="0.09"/>
<path d="M111.536 195.33L107.379 191.249L103.295 195.41L107.452 199.492L111.536 195.33Z" fill="#4F499E" fill-opacity="0.09"/>
<path d="M97.8695 55.554L93.585 51.3504L89.3853 55.6321L93.6698 59.8357L97.8695 55.554Z" fill="#4F499E" fill-opacity="0.09"/>
<path d="M61.491 36.6712L65.7338 36.632L67.8357 34.4906L63.5536 30.2863L67.6397 26.1211L72.0445 30.4431L67.8407 34.7307L69.9866 36.8329L74.2296 36.7888L74.2689 41.0324L76.2825 43.012L74.3031 45.0309L74.3423 49.2745L70.0993 49.3186L67.9974 51.4599L72.2796 55.6643L67.9632 60.0647L63.8034 55.9828L68.0072 51.7001L65.8613 49.5979L61.6183 49.6371L61.579 45.3935L59.4381 43.2962L55.2343 47.579L50.8296 43.257L55.1461 38.8567L59.4331 43.0561L61.535 40.9147L61.491 36.6712Z" fill="#4F499E" fill-opacity="0.09"/>
</svg>