<svg xmlns="http://www.w3.org/2000/svg" width="339" height="60" viewBox="0 0 339 60" fill="none">
<path d="M3.17478 28.5787C8.05682 32.4814 8.16151 32.8569 6.14398 39.7639L3.17478 28.5787ZM0.538663 41.3849C13.8192 51.8428 -8.88759 42.9583 4.26919 53.6064C7.30025 56.0593 9.30826 56.1496 12.4583 53.6302C25.9957 42.8205 39.7758 32.3673 53.4846 21.8095C54.8122 20.7828 56.2682 19.9461 57.7052 18.9954C59.4325 25.0372 57.1628 28.3315 52.9469 31.0933C48.8167 33.7934 45.0719 37.1732 41.1558 40.2535L42.1074 41.594L57.6909 29.9477C60.6411 41.8317 49.0498 41.808 46.4994 49.0905L58.3428 40.3438V59.0873H60.0987V40.7954L71.3378 49.119C68.6779 42.0742 57.6386 41.7604 60.7839 30.2282C63.7102 32.4766 66.2464 34.4351 68.7921 36.3793C71.2189 38.2333 73.6488 40.0824 76.0819 41.9268L76.9574 40.5007C73.1888 37.4964 69.4202 34.4858 65.6516 31.4689C59.266 26.3873 59.266 26.3873 61.2026 19.1095C75.4776 30.3946 89.8573 41.3944 103.813 52.9599C107.958 56.392 110.565 55.9642 114.477 52.8458C128.752 41.4372 143.298 30.4564 158.077 19.0525C159.61 24.2814 158.901 27.6898 154.789 30.4373C150.236 33.4844 146.067 37.1874 141.728 40.6053L142.599 41.9648L158.301 30.1759C161.266 42.0123 149.688 42.0979 145.73 50.2931L159.001 40.7146V59.1016L160.471 59.1443V40.8144L172 49.1903L172.833 47.8498C169.869 45.4967 166.885 43.1675 163.944 40.7764C159.947 37.525 159.895 37.2207 161.599 30.5276L176.606 41.8983C172.942 32.9472 159.001 33.0994 160.904 18.5533L209.834 57.0575L258.778 19.2949C260.277 24.7283 259.377 28.2412 255.057 31.022C250.736 33.8029 246.792 37.4584 242.685 40.7289C242.985 41.171 243.285 41.6083 243.58 42.0504L258.873 30.4563C262.137 42.1027 250.517 42.2785 246.53 50.3739L259.934 40.8667V59.4914H261.619V41.2185C265.982 44.4937 269.303 46.9846 272.62 49.4803C269.941 42.3499 258.745 42.0694 262.118 30.5134L278.606 43.2578C273.848 33.2229 259.906 33.3513 261.885 18.9764L310.572 57.319L338.875 35.343C338.57 34.8677 338.261 34.3923 337.952 33.917L312.166 53.4733C310.263 46.3049 312.428 42.0646 317.81 38.6848C323.263 35.2622 328.169 30.8319 333.317 26.8483L332.342 25.4223L312.166 40.6576C310.663 35.2527 311.691 31.7351 315.973 28.9875C320.384 26.1353 324.4 22.5891 328.587 19.3424L327.636 17.8926L312.242 29.4438C308.75 17.6834 320.769 17.8545 324.138 9.92553L311.215 19.1855V0.171123H309.597V19.0144L298.339 10.4579C301.022 17.4505 311.976 17.8498 308.893 29.3725L293.609 17.807L292.767 19.1285C297.006 22.5083 301.056 26.2209 305.543 29.1681C309.92 32.0488 310.206 35.6235 308.721 40.6908C293.794 28.9352 279.144 17.6311 264.783 5.91824C261.39 3.15165 259.325 3.43687 256.089 6.01332C242.7 16.6757 229.086 27.0147 215.539 37.4442C214.178 38.4899 212.684 39.3456 211.185 40.3628C209.691 34.6965 211.38 31.331 215.529 28.6119C219.845 25.7931 223.761 22.2611 227.854 19.0382L226.864 17.7167L211.247 29.4343C208.421 17.5503 219.812 17.4838 222.581 10.1917L210.471 18.9859V0.44684L209.087 0.399316V18.6579L196.192 9.50721C200.36 17.5646 211.504 17.6977 208.468 29.4723L192.946 17.5028C196.568 26.6249 210.438 26.5346 208.806 41.1187L159.767 2.53844L110.889 40.2535C109.771 32.3673 109.771 32.3673 114.877 28.4171L127.153 18.9099L126.082 17.4362C121.039 21.2866 116 25.1418 110.808 29.1111C107.349 17.3269 119.221 17.3079 122.885 9.34557L110.513 18.2871C110.232 11.518 109.999 5.78513 109.761 0.0522827L107.934 0.194885V18.3965L96.9662 10.0634L96.0145 11.4895C98.9171 13.8235 101.663 16.4427 104.76 18.4155C108.848 21.0157 108.443 24.5952 107.863 29.325L91.1182 16.5853C95.6814 26.5679 109.942 26.1876 107.891 40.7764L59.0614 2.33877L9.91257 40.1917C8.36611 34.1499 9.96967 30.7701 14.157 28.0795C18.3443 25.389 22.1891 21.8666 26.1908 18.7054L25.3058 17.3649L9.94588 28.997C6.39617 17.2223 18.6441 17.2556 22.1462 8.97481L8.89905 18.7577V0H7.25266V18.2063C2.81314 14.8455 3.89804 12.1692 0.538663 9.62129C3.10816 16.8658 10.0553 17.132 6.69594 28.7878" fill="#5FBB46"/>
</svg>