<svg width="23" height="16" viewBox="0 0 23 16" fill="none" xmlns="http://www.w3.org/2000/svg">
<path d="M11.0643 0.84375C6.06433 0.84375 1.79433 3.95375 0.0643311 8.34375C1.79433 12.7337 6.06433 15.8438 11.0643 15.8438C16.0643 15.8438 20.3343 12.7337 22.0643 8.34375C20.3343 3.95375 16.0643 0.84375 11.0643 0.84375ZM11.0643 13.3438C8.30433 13.3438 6.06433 11.1038 6.06433 8.34375C6.06433 5.58375 8.30433 3.34375 11.0643 3.34375C13.8243 3.34375 16.0643 5.58375 16.0643 8.34375C16.0643 11.1038 13.8243 13.3438 11.0643 13.3438ZM11.0643 5.34375C9.40433 5.34375 8.06433 6.68375 8.06433 8.34375C8.06433 10.0037 9.40433 11.3438 11.0643 11.3438C12.7243 11.3438 14.0643 10.0037 14.0643 8.34375C14.0643 6.68375 12.7243 5.34375 11.0643 5.34375Z" fill="#4F489E"/>
</svg>
