<svg width="81" height="49" viewBox="0 0 81 49" fill="none" xmlns="http://www.w3.org/2000/svg">
<g clip-path="url(#clip0_607_973)">
<path d="M40.5178 19.2162C40.3885 19.3529 40.2798 19.4895 40.16 19.6029C37.9346 21.8139 35.7087 24.0245 33.4823 26.2345C30.3437 29.3488 27.1954 32.4548 24.0705 35.5828C23.7554 35.8971 23.6082 35.8561 23.3233 35.5746C20.2007 32.4507 17.0676 29.3338 13.9239 26.2236C11.6851 24.0031 9.4519 21.777 7.20076 19.5701C6.92556 19.2968 6.9407 19.1602 7.20076 18.8964C9.15927 16.9761 11.1058 15.0447 13.0405 13.1025C13.3157 12.8183 13.4423 12.9658 13.6377 13.153C16.8483 16.3415 20.0563 19.53 23.2614 22.7185C23.5972 23.0547 23.7582 23.0943 24.1187 22.7336C27.3137 19.5291 30.5336 16.3493 33.7424 13.1585C33.9529 12.9481 34.0836 12.7937 34.3864 13.097C36.3293 15.0566 38.2969 16.9915 40.255 18.9347C40.3375 19.0167 40.4146 19.1041 40.5137 19.208" fill="#5FBB46"/>
<path d="M68.1558 19.2485C68.0907 19.1655 68.0211 19.0861 67.9473 19.0106C66.615 17.7635 65.3586 16.4384 64.0291 15.1817C63.2725 14.4693 62.567 13.6939 61.8283 12.9569C60.7165 11.8456 59.5972 10.7426 58.4706 9.6477C58.1945 9.38516 58.1945 9.22516 58.4706 8.95714C59.3805 8.09429 60.2655 7.20272 61.1546 6.32209C62.208 5.27873 63.267 4.24085 64.3094 3.18655C64.5289 2.96366 64.6462 2.9199 64.8961 3.16877C70.1849 8.41974 75.4824 13.6616 80.7887 18.8943C81.0469 19.1487 81.0897 19.2717 80.7984 19.5589C75.3752 24.8974 69.964 30.2468 64.5648 35.6072C64.3066 35.8642 64.1892 35.8711 63.9311 35.6072C62.0249 33.701 60.1058 31.808 58.1738 29.9282C57.8328 29.5973 57.8604 29.4209 58.1834 29.1077C61.3948 25.9617 64.5988 22.8011 67.7955 19.6259C67.9156 19.5069 68.0302 19.3825 68.1614 19.2444" fill="#5FBB46"/>
<path d="M60.7532 19.1608C60.7532 19.3286 60.6376 19.3872 60.5565 19.4677C57.2859 22.7097 54.0134 25.9507 50.7391 29.1909C48.5866 31.3243 46.4273 33.4509 44.2872 35.5953C44.0122 35.8681 43.8636 35.8749 43.5996 35.5953C41.7098 33.6674 39.8099 31.7508 37.9 29.8457C37.6249 29.566 37.6098 29.4255 37.9 29.1404C43.2988 23.8096 48.688 18.4701 54.0675 13.122C54.3137 12.8778 54.4402 12.8491 54.7002 13.1151C56.6257 15.044 58.5608 16.955 60.4932 18.8716C60.5895 18.9671 60.6775 19.0694 60.7587 19.1553" fill="#5FBB46"/>
<path d="M23.6733 48.5296C23.5675 48.4518 23.4657 48.3687 23.3684 48.2806C21.4769 46.4107 19.595 44.5327 17.6926 42.6751C17.3753 42.3635 17.3574 42.1716 17.683 41.8586C19.5978 39.9878 21.5012 38.1048 23.3931 36.2095C23.6362 35.9673 23.8244 35.9455 24.0799 36.2C26.003 38.1134 27.9311 40.0218 29.8642 41.9252C30.0455 42.1049 30.187 42.2668 29.9301 42.52C27.9741 44.4361 26.0245 46.3586 24.0813 48.2874C23.9622 48.3967 23.822 48.4809 23.6692 48.5351" fill="white"/>
</g>
<defs>
<clipPath id="clip0_607_973">
<rect width="81" height="49" fill="white"/>
</clipPath>
</defs>
</svg>
