<svg xmlns="http://www.w3.org/2000/svg" width="173" height="30" viewBox="0 0 173 30" fill="none">
<path d="M1.62077 14.4115C4.11311 16.3795 4.16655 16.5689 3.13658 20.0519L1.62077 14.4115ZM0.274995 20.8694C7.05486 26.143 -4.53723 21.6628 2.17948 27.0324C3.72687 28.2693 4.75199 28.3148 6.36011 27.0443C13.2712 21.5933 20.3061 16.322 27.3046 10.998C27.9823 10.4802 28.7256 10.0583 29.4593 9.57891C30.3411 12.6257 29.1823 14.2868 27.0301 15.6796C24.9215 17.0411 23.0098 18.7455 21.0105 20.2988L21.4964 20.9748L29.452 15.1019C30.9581 21.0947 25.0406 21.0827 23.7385 24.7551L29.7848 20.3444V29.7962H30.6811V20.5721L36.4189 24.7695C35.061 21.2169 29.4253 21.0587 31.0309 15.2433C32.5249 16.3772 33.8197 17.3648 35.1193 18.3452C36.3582 19.2801 37.5987 20.2125 38.8408 21.1426L39.2878 20.4235C37.3638 18.9085 35.4399 17.3903 33.516 15.869C30.256 13.3064 30.256 13.3064 31.2447 9.63644C38.5323 15.3272 45.8733 20.8741 52.9981 26.7063C55.1139 28.4371 56.4451 28.2213 58.4419 26.6488C65.7295 20.8957 73.1555 15.3584 80.7006 9.60767C81.4828 12.2445 81.1208 13.9632 79.022 15.3488C76.6973 16.8853 74.5693 18.7527 72.3539 20.4762L72.7984 21.1618L80.8147 15.2169C82.3281 21.1858 76.4179 21.2289 74.3968 25.3616L81.1718 20.5314V29.8034L81.9224 29.825V20.5817L87.8084 24.8054L88.2335 24.1294C86.7201 22.9429 85.197 21.7683 83.6957 20.5625C81.6552 18.9229 81.6285 18.7695 82.4982 15.3943L90.1598 21.1282C88.2893 16.6145 81.1718 16.6912 82.1435 9.35598L107.123 28.7727L132.109 9.72993C132.875 12.4698 132.416 14.2413 130.21 15.6436C128.004 17.0459 125.99 18.8893 123.894 20.5385C124.047 20.7615 124.2 20.982 124.351 21.205L132.158 15.3584C133.824 21.2313 127.892 21.32 125.857 25.4023L132.7 20.6081V30H133.56V20.7855C135.787 22.4371 137.483 23.6932 139.176 24.9517C137.808 21.356 132.092 21.2145 133.815 15.3871L142.232 21.8138C139.803 16.7535 132.685 16.8182 133.696 9.56931L158.551 28.9045L173 17.8226C172.845 17.5829 172.687 17.3432 172.529 17.1035L159.365 26.9652C158.393 23.3504 159.499 21.2121 162.246 19.5078C165.03 17.7819 167.534 15.5477 170.163 13.5389L169.665 12.8198L159.365 20.5026C158.597 17.7771 159.122 16.0032 161.308 14.6177C163.56 13.1794 165.61 11.3911 167.748 9.75389L167.262 9.02277L159.404 14.8478C157.621 8.9173 163.757 9.0036 165.477 5.00519L158.879 9.67478V0.0862929H158.053V9.58849L152.306 5.27367C153.676 8.79984 159.268 9.00119 157.694 14.8118L149.891 8.97963L149.461 9.64602C151.626 11.3504 153.693 13.2225 155.984 14.7087C158.218 16.1614 158.364 17.964 157.606 20.5194C149.986 14.5913 142.506 8.89093 135.175 2.98442C133.443 1.5893 132.389 1.73313 130.737 3.03237C123.901 8.40911 116.951 13.6229 110.035 18.8821C109.341 19.4095 108.578 19.841 107.813 20.354C107.05 17.4966 107.912 15.7994 110.031 14.4283C112.234 13.0068 114.233 11.2257 116.322 9.60047L115.817 8.93408L107.844 14.843C106.401 8.85017 112.217 8.81662 113.631 5.13943L107.448 9.57411V0.22533L106.741 0.201365V9.40871L100.158 4.79425C102.286 8.85737 107.975 8.92449 106.426 14.8622L98.5017 8.82621C100.35 13.4263 107.431 13.3807 106.598 20.7351L81.5629 1.28007L56.6103 20.2988C56.0394 16.322 56.0394 16.322 58.646 14.33L64.9133 9.53576L64.3667 8.79265C61.7918 10.7343 59.2192 12.6784 56.569 14.68C54.803 8.73751 60.8638 8.72792 62.7343 4.71274L56.4184 9.22173C56.2751 5.80822 56.156 2.9173 56.0346 0.0263648L55.1018 0.0982756V9.27687L49.5025 5.07471L49.0167 5.79384C50.4985 6.97083 51.9001 8.29165 53.4815 9.28645C55.5682 10.5977 55.3617 12.4027 55.0653 14.7879L46.517 8.36357C48.8466 13.3975 56.1269 13.2058 55.0799 20.5625L30.1516 1.17938L5.0605 20.2677C4.27101 17.2209 5.08965 15.5166 7.22733 14.1598C9.36502 12.803 11.3278 11.0268 13.3707 9.43267L12.9189 8.7567L5.0775 14.6224C3.26533 8.68478 9.51805 8.70156 11.3059 4.52577L4.54308 9.45905V0H3.70258V9.18098C1.43615 7.48621 1.99 6.13663 0.274995 4.85177C1.58676 8.50499 5.13337 8.63923 3.41836 14.517" fill="#5FBB46"/>
</svg>