<svg width="171" height="49" viewBox="0 0 171 49" fill="none" xmlns="http://www.w3.org/2000/svg">
<g clip-path="url(#clip0_701_187)">
<path d="M40.5178 19.2162C40.3885 19.3529 40.2798 19.4895 40.16 19.6029C37.9346 21.8139 35.7087 24.0245 33.4823 26.2345C30.3437 29.3488 27.1954 32.4548 24.0705 35.5828C23.7554 35.8971 23.6082 35.8561 23.3233 35.5746C20.2007 32.4507 17.0676 29.3338 13.9239 26.2236C11.6851 24.0031 9.4519 21.777 7.20076 19.5701C6.92556 19.2968 6.9407 19.1602 7.20076 18.8964C9.15927 16.9761 11.1058 15.0447 13.0405 13.1025C13.3157 12.8183 13.4423 12.9658 13.6377 13.153C16.8483 16.3415 20.0563 19.53 23.2614 22.7185C23.5972 23.0547 23.7582 23.0943 24.1187 22.7336C27.3137 19.5291 30.5336 16.3493 33.7424 13.1585C33.9529 12.9481 34.0836 12.7937 34.3864 13.097C36.3293 15.0566 38.2969 16.9915 40.255 18.9347C40.3375 19.0167 40.4146 19.1041 40.5137 19.208" fill="#5FBB46"/>
<path d="M68.1559 19.2485C68.0908 19.1655 68.0212 19.0861 67.9474 19.0106C66.6151 17.7635 65.3587 16.4384 64.0291 15.1817C63.2725 14.4693 62.567 13.6939 61.8284 12.9569C60.7165 11.8456 59.5973 10.7426 58.4707 9.6477C58.1945 9.38516 58.1945 9.22516 58.4707 8.95714C59.3805 8.09429 60.2655 7.20272 61.1546 6.32209C62.2081 5.27873 63.267 4.24085 64.3094 3.18655C64.5289 2.96366 64.6463 2.9199 64.8962 3.16877C70.185 8.41974 75.4825 13.6616 80.7888 18.8943C81.047 19.1487 81.0898 19.2717 80.7984 19.5589C75.3753 24.8974 69.9641 30.2468 64.5648 35.6072C64.3067 35.8642 64.1893 35.8711 63.9311 35.6072C62.0249 33.701 60.1058 31.808 58.1738 29.9282C57.8328 29.5973 57.8604 29.4209 58.1835 29.1077C61.3949 25.9617 64.5989 22.8011 67.7955 19.6259C67.9157 19.5069 68.0303 19.3825 68.1614 19.2444" fill="#5FBB46"/>
<path d="M60.7532 19.1608C60.7532 19.3286 60.6376 19.3872 60.5565 19.4677C57.2859 22.7097 54.0134 25.9507 50.7391 29.1909C48.5866 31.3243 46.4273 33.4509 44.2872 35.5953C44.0122 35.8681 43.8636 35.8749 43.5996 35.5953C41.7098 33.6674 39.8099 31.7508 37.9 29.8457C37.6249 29.566 37.6098 29.4255 37.9 29.1404C43.2988 23.8096 48.688 18.4701 54.0675 13.122C54.3137 12.8778 54.4402 12.8491 54.7002 13.1151C56.6257 15.044 58.5608 16.955 60.4932 18.8716C60.5895 18.9671 60.6775 19.0694 60.7587 19.1553" fill="#5FBB46"/>
<path d="M23.6733 48.5296C23.5674 48.4518 23.4656 48.3687 23.3683 48.2806C21.4768 46.4107 19.595 44.5327 17.6925 42.6751C17.3752 42.3635 17.3574 42.1716 17.6829 41.8586C19.5977 39.9878 21.5011 38.1048 23.393 36.2095C23.6362 35.9673 23.8244 35.9455 24.0798 36.2C26.0029 38.1134 27.931 40.0218 29.8641 41.9252C30.0455 42.1049 30.187 42.2668 29.9301 42.52C27.9741 44.4361 26.0244 46.3586 24.0812 48.2874C23.9621 48.3967 23.822 48.4809 23.6691 48.5351" fill="#4F499E"/>
</g>
<path d="M95.4096 4.63761C95.4096 3.37847 95.4382 2.11934 95.4096 0.874671C95.3874 0.214708 95.6255 0.00629941 96.3619 0.00629941C98.9014 -0.0226463 98.9014 -0.0486904 98.9014 2.29302C98.9014 6.12543 98.876 9.95494 98.9014 13.7845C98.9014 14.5544 98.6634 14.8497 97.838 14.7223C97.7989 14.7194 97.7597 14.7194 97.7206 14.7223C95.6159 14.7223 95.6159 14.7223 95.2414 13.0145C94.9493 12.9537 94.8287 13.1882 94.6732 13.3213C93.1018 14.6731 93.1018 14.6789 91.6131 13.3213C90.2354 12.0738 88.8799 10.8031 87.4864 9.58154C86.9308 9.09815 86.7721 8.79132 87.4324 8.22399C89.191 6.71592 90.8956 5.14995 92.5654 3.55505C93.1177 3.02534 93.4701 3.03982 93.9335 3.57821C94.2922 3.99792 94.7017 4.38289 95.089 4.78524L95.4064 4.6463M95.089 12.1867L95.3303 12.0274V5.45388C94.1081 6.58566 93.0764 7.56402 92.0099 8.51055C91.6384 8.84342 91.794 9.03157 92.0797 9.30077C93.0923 10.2502 94.0859 11.217 95.089 12.178" fill="#4F499E"/>
<path d="M116.031 4.78976C116.158 4.71667 116.281 4.63649 116.399 4.54962C116.928 4.06357 117.509 3.14065 117.973 3.19562C118.583 3.26795 119.121 4.08961 119.661 4.61617C120.911 5.83419 122.134 7.07536 123.384 8.2876C123.767 8.65793 123.831 8.90963 123.384 9.32625C121.705 10.932 120.055 12.5695 118.42 14.2215C118.04 14.6063 117.775 14.7162 117.407 14.2446C117.039 13.773 116.671 13.3767 116.174 12.8154C115.882 14.722 115.882 14.6497 114.098 14.7452C113.003 14.803 112.772 14.4298 112.787 13.4114C112.845 9.32625 112.836 5.24109 112.787 1.15883C112.787 0.27063 113.017 -0.0244728 113.955 0.00156575C116.017 0.0594291 116.017 0.0015676 116.019 2.05572L116.031 4.78976ZM116.323 5.63746L116.084 5.7879V11.8636L116.314 12.0314C117.24 11.0621 118.151 10.0785 119.1 9.13819C119.419 8.81994 119.235 8.67239 119.021 8.45251C118.116 7.5267 117.223 6.58931 116.323 5.65482" fill="#4F499E"/>
<path d="M100.886 8.31542C100.886 6.45281 100.905 4.58727 100.886 2.72466C100.886 2.16617 101.047 1.92347 101.699 1.97318C102.304 2.01119 102.911 2.01119 103.516 1.97318C104.161 1.93809 104.529 2.06675 104.445 2.74513C104.345 3.54339 104.768 3.37088 105.275 3.09309C106.66 2.34316 108.247 1.95365 109.861 1.96734C110.635 1.96734 110.88 2.21003 110.784 2.84455C110.774 2.99062 110.774 3.13708 110.784 3.28315C110.784 4.8826 110.784 4.8826 109.018 5.06096C107.807 5.19734 106.688 5.71527 105.856 6.52407C105.024 7.33288 104.533 8.38102 104.468 9.48503C104.416 10.9471 104.416 12.4091 104.436 13.8711C104.436 14.4559 104.287 14.7015 103.568 14.7249C100.883 14.8097 100.886 14.8331 100.886 12.3711V8.31542Z" fill="#4F499E"/>
<path d="M93.7568 24.9785C93.7057 24.5467 93.4983 24.2115 93.1346 23.9729C92.771 23.7342 92.325 23.6149 91.7966 23.6149C91.4102 23.6149 91.0721 23.6774 90.7824 23.8024C90.4954 23.9274 90.271 24.0993 90.1091 24.318C89.95 24.5368 89.8704 24.7854 89.8704 25.0638C89.8704 25.2967 89.9258 25.497 90.0366 25.6646C90.1503 25.8294 90.2951 25.9672 90.4713 26.078C90.6474 26.1859 90.8321 26.2754 91.0253 26.3464C91.2184 26.4146 91.396 26.47 91.5579 26.5126L92.4443 26.7513C92.6716 26.8109 92.9244 26.8933 93.2028 26.9984C93.4841 27.1035 93.7525 27.247 94.0082 27.4288C94.2667 27.6078 94.4798 27.8379 94.6474 28.1192C94.815 28.4004 94.8988 28.7456 94.8988 29.1547C94.8988 29.6263 94.7753 30.0524 94.5281 30.4331C94.2838 30.8138 93.9258 31.1163 93.4542 31.3407C92.9855 31.5652 92.4159 31.6774 91.7454 31.6774C91.1204 31.6774 90.5792 31.5765 90.1218 31.3748C89.6673 31.1731 89.3093 30.8919 89.048 30.5311C88.7895 30.1703 88.6432 29.7513 88.6091 29.274H89.7C89.7284 29.6035 89.8392 29.8763 90.0324 30.0922C90.2284 30.3052 90.4755 30.4643 90.7738 30.5694C91.075 30.6717 91.3988 30.7229 91.7454 30.7229C92.1488 30.7229 92.5111 30.6575 92.8321 30.5268C93.1531 30.3933 93.4074 30.2086 93.5949 29.9729C93.7824 29.7342 93.8761 29.4558 93.8761 29.1376C93.8761 28.8479 93.7951 28.6121 93.6332 28.4302C93.4713 28.2484 93.2582 28.1007 92.994 27.9871C92.7298 27.8734 92.4443 27.774 92.1375 27.6888L91.0636 27.3819C90.3818 27.1859 89.842 26.9061 89.4443 26.5425C89.0466 26.1788 88.8477 25.703 88.8477 25.1149C88.8477 24.6263 88.9798 24.2001 89.244 23.8365C89.5111 23.47 89.869 23.1859 90.3179 22.9842C90.7696 22.7797 91.2738 22.6774 91.8307 22.6774C92.3932 22.6774 92.8932 22.7782 93.3307 22.98C93.7682 23.1788 94.1147 23.4515 94.3704 23.7981C94.629 24.1447 94.7653 24.5382 94.7795 24.9785H93.7568ZM96.9944 31.524H95.8864L99.091 22.7967H100.182L103.386 31.524H102.278L99.6705 24.1774H99.6023L96.9944 31.524ZM97.4035 28.1149H101.869V29.0524H97.4035V28.1149ZM110.473 22.7967H111.53V28.5751C111.53 29.1717 111.389 29.7044 111.108 30.1731C110.83 30.639 110.436 31.0069 109.928 31.2768C109.419 31.5439 108.822 31.6774 108.138 31.6774C107.453 31.6774 106.857 31.5439 106.348 31.2768C105.84 31.0069 105.445 30.639 105.163 30.1731C104.885 29.7044 104.746 29.1717 104.746 28.5751V22.7967H105.803V28.4899C105.803 28.916 105.896 29.2953 106.084 29.6277C106.271 29.9572 106.538 30.2172 106.885 30.4075C107.234 30.595 107.652 30.6888 108.138 30.6888C108.624 30.6888 109.041 30.595 109.391 30.4075C109.74 30.2172 110.007 29.9572 110.192 29.6277C110.379 29.2953 110.473 28.916 110.473 28.4899V22.7967ZM116.333 31.524H113.64V22.7967H116.453C117.299 22.7967 118.024 22.9714 118.626 23.3209C119.228 23.6675 119.69 24.166 120.011 24.8166C120.332 25.4643 120.493 26.2399 120.493 27.1433C120.493 28.0524 120.331 28.8351 120.007 29.4913C119.683 30.1447 119.211 30.6476 118.592 30.9998C117.973 31.3493 117.22 31.524 116.333 31.524ZM114.697 30.5865H116.265C116.987 30.5865 117.585 30.4473 118.059 30.1689C118.534 29.8905 118.887 29.4942 119.12 28.98C119.353 28.4657 119.47 27.8535 119.47 27.1433C119.47 26.4388 119.355 25.8322 119.125 25.3237C118.895 24.8123 118.551 24.4203 118.093 24.1476C117.636 23.872 117.066 23.7342 116.385 23.7342H114.697V30.5865ZM123.322 22.7967V31.524H122.265V22.7967H123.322ZM125.799 22.7967L128.39 30.1433H128.492L131.083 22.7967H132.191L128.987 31.524H127.896L124.691 22.7967H125.799ZM133.55 31.524V22.7967H138.818V23.7342H134.607V26.6831H138.545V27.6206H134.607V30.5865H138.886V31.524H133.55ZM140.722 31.524V22.7967H143.671C144.353 22.7967 144.913 22.9132 145.35 23.1461C145.788 23.3763 146.112 23.693 146.322 24.0964C146.532 24.4998 146.637 24.9586 146.637 25.4729C146.637 25.9871 146.532 26.443 146.322 26.8407C146.112 27.2385 145.789 27.551 145.354 27.7782C144.92 28.0027 144.364 28.1149 143.688 28.1149H141.302V27.1604H143.654C144.12 27.1604 144.495 27.0922 144.779 26.9558C145.066 26.8194 145.273 26.6263 145.401 26.3763C145.532 26.1234 145.597 25.8223 145.597 25.4729C145.597 25.1234 145.532 24.818 145.401 24.5567C145.271 24.2953 145.062 24.0936 144.775 23.9515C144.488 23.8067 144.109 23.7342 143.637 23.7342H141.779V31.524H140.722ZM144.83 27.6035L146.978 31.524H145.751L143.637 27.6035H144.83ZM153.171 24.9785C153.12 24.5467 152.912 24.2115 152.549 23.9729C152.185 23.7342 151.739 23.6149 151.211 23.6149C150.824 23.6149 150.486 23.6774 150.196 23.8024C149.909 23.9274 149.685 24.0993 149.523 24.318C149.364 24.5368 149.284 24.7854 149.284 25.0638C149.284 25.2967 149.34 25.497 149.451 25.6646C149.564 25.8294 149.709 25.9672 149.885 26.078C150.061 26.1859 150.246 26.2754 150.439 26.3464C150.633 26.4146 150.81 26.47 150.972 26.5126L151.858 26.7513C152.086 26.8109 152.338 26.8933 152.617 26.9984C152.898 27.1035 153.167 27.247 153.422 27.4288C153.681 27.6078 153.894 27.8379 154.061 28.1192C154.229 28.4004 154.313 28.7456 154.313 29.1547C154.313 29.6263 154.189 30.0524 153.942 30.4331C153.698 30.8138 153.34 31.1163 152.868 31.3407C152.4 31.5652 151.83 31.6774 151.159 31.6774C150.534 31.6774 149.993 31.5765 149.536 31.3748C149.081 31.1731 148.723 30.8919 148.462 30.5311C148.204 30.1703 148.057 29.7513 148.023 29.274H149.114C149.142 29.6035 149.253 29.8763 149.446 30.0922C149.642 30.3052 149.89 30.4643 150.188 30.5694C150.489 30.6717 150.813 30.7229 151.159 30.7229C151.563 30.7229 151.925 30.6575 152.246 30.5268C152.567 30.3933 152.821 30.2086 153.009 29.9729C153.196 29.7342 153.29 29.4558 153.29 29.1376C153.29 28.8479 153.209 28.6121 153.047 28.4302C152.885 28.2484 152.672 28.1007 152.408 27.9871C152.144 27.8734 151.858 27.774 151.552 27.6888L150.478 27.3819C149.796 27.1859 149.256 26.9061 148.858 26.5425C148.461 26.1788 148.262 25.703 148.262 25.1149C148.262 24.6263 148.394 24.2001 148.658 23.8365C148.925 23.47 149.283 23.1859 149.732 22.9842C150.184 22.7797 150.688 22.6774 151.245 22.6774C151.807 22.6774 152.307 22.7782 152.745 22.98C153.182 23.1788 153.529 23.4515 153.784 23.7981C154.043 24.1447 154.179 24.5382 154.194 24.9785H153.171ZM156.05 31.524V22.7967H161.318V23.7342H157.107V26.6831H161.045V27.6206H157.107V30.5865H161.386V31.524H156.05Z" fill="white"/>
<path d="M92.325 33.9563H93.3818V40.1949C93.3818 40.7517 93.2795 41.2247 93.075 41.6139C92.8704 42.0031 92.5821 42.2986 92.2099 42.5003C91.8378 42.702 91.3988 42.8029 90.8932 42.8029C90.4159 42.8029 89.9912 42.7162 89.619 42.5429C89.2468 42.3668 88.9542 42.1168 88.7412 41.7929C88.5281 41.469 88.4216 41.0841 88.4216 40.6381H89.4613C89.4613 40.8852 89.5224 41.1011 89.6446 41.2858C89.7696 41.4676 89.94 41.6097 90.1559 41.7119C90.3718 41.8142 90.6176 41.8654 90.8932 41.8654C91.1971 41.8654 91.4557 41.8014 91.6687 41.6736C91.8818 41.5457 92.0437 41.3582 92.1545 41.1111C92.2682 40.8611 92.325 40.5557 92.325 40.1949V33.9563ZM102.863 38.3199C102.863 39.2404 102.697 40.0358 102.365 40.7063C102.032 41.3767 101.576 41.8938 100.997 42.2574C100.417 42.621 99.7554 42.8029 99.0111 42.8029C98.2667 42.8029 97.6048 42.621 97.0253 42.2574C96.4457 41.8938 95.9897 41.3767 95.6574 40.7063C95.325 40.0358 95.1588 39.2404 95.1588 38.3199C95.1588 37.3994 95.325 36.604 95.6574 35.9335C95.9897 35.2631 96.4457 34.746 97.0253 34.3824C97.6048 34.0188 98.2667 33.8369 99.0111 33.8369C99.7554 33.8369 100.417 34.0188 100.997 34.3824C101.576 34.746 102.032 35.2631 102.365 35.9335C102.697 36.604 102.863 37.3994 102.863 38.3199ZM101.841 38.3199C101.841 37.5642 101.714 36.9264 101.461 36.4065C101.211 35.8867 100.872 35.4932 100.443 35.2261C100.017 34.9591 99.5395 34.8256 99.0111 34.8256C98.4826 34.8256 98.004 34.9591 97.575 35.2261C97.1488 35.4932 96.8093 35.8867 96.5565 36.4065C96.3065 36.9264 96.1815 37.5642 96.1815 38.3199C96.1815 39.0756 96.3065 39.7134 96.5565 40.2332C96.8093 40.7531 97.1488 41.1466 97.575 41.4136C98.004 41.6807 98.4826 41.8142 99.0111 41.8142C99.5395 41.8142 100.017 41.6807 100.443 41.4136C100.872 41.1466 101.211 40.7531 101.461 40.2332C101.714 39.7134 101.841 39.0756 101.841 38.3199ZM110.368 33.9563H111.424V39.7347C111.424 40.3313 111.284 40.8639 111.003 41.3327C110.724 41.7986 110.331 42.1665 109.822 42.4364C109.314 42.7034 108.717 42.8369 108.032 42.8369C107.348 42.8369 106.751 42.7034 106.243 42.4364C105.734 42.1665 105.339 41.7986 105.058 41.3327C104.78 40.8639 104.64 40.3313 104.64 39.7347V33.9563H105.697V39.6494C105.697 40.0756 105.791 40.4548 105.978 40.7872C106.166 41.1168 106.433 41.3767 106.78 41.5671C107.129 41.7546 107.547 41.8483 108.032 41.8483C108.518 41.8483 108.936 41.7546 109.285 41.5671C109.635 41.3767 109.902 41.1168 110.086 40.7872C110.274 40.4548 110.368 40.0756 110.368 39.6494V33.9563ZM113.535 42.6835V33.9563H116.484C117.166 33.9563 117.725 34.0727 118.163 34.3057C118.6 34.5358 118.924 34.8526 119.134 35.256C119.345 35.6594 119.45 36.1182 119.45 36.6324C119.45 37.1466 119.345 37.6026 119.134 38.0003C118.924 38.398 118.602 38.7105 118.167 38.9378C117.732 39.1622 117.177 39.2744 116.501 39.2744H114.114V38.3199H116.467C116.933 38.3199 117.308 38.2517 117.592 38.1154C117.879 37.979 118.086 37.7858 118.214 37.5358C118.345 37.283 118.41 36.9818 118.41 36.6324C118.41 36.283 118.345 35.9776 118.214 35.7162C118.083 35.4548 117.874 35.2531 117.587 35.1111C117.3 34.9662 116.921 34.8938 116.45 34.8938H114.592V42.6835H113.535ZM117.643 38.7631L119.791 42.6835H118.563L116.45 38.7631H117.643ZM128.131 33.9563V42.6835H127.108L122.353 35.8313H122.267V42.6835H121.211V33.9563H122.233L127.006 40.8256H127.091V33.9563H128.131ZM130.246 42.6835V33.9563H135.513V34.8938H131.303V37.8426H135.24V38.7801H131.303V41.746H135.581V42.6835H130.246ZM136.668 33.9563H137.878L140.298 38.0301H140.401L142.821 33.9563H144.031L140.878 39.0869V42.6835H139.821V39.0869L136.668 33.9563Z" fill="white"/>
<defs>
<clipPath id="clip0_701_187">
<rect width="81" height="49" fill="white"/>
</clipPath>
</defs>
</svg>
