<svg width="23" height="14" viewBox="0 0 23 14" fill="none" xmlns="http://www.w3.org/2000/svg">
<path fill-rule="evenodd" clip-rule="evenodd" d="M14.3105 3.725V0.975841C14.3105 0.0855262 15.3976 -0.311625 15.991 0.281734L22.0577 6.34851C22.2505 6.5409 22.2505 6.85368 22.0577 7.04608L15.991 13.1129C15.3976 13.7062 14.3105 13.309 14.3105 12.4187V9.63306C12.7322 9.57229 10.7336 9.65618 8.49565 10.1391H8.49417C5.30588 10.8153 2.84256 12.0721 1.24871 13.0379C1.06474 13.1493 0.829404 13.1285 0.667736 12.987C0.505895 12.845 0.455196 12.6146 0.541894 12.4172C1.10321 11.1413 2.53205 8.43492 5.64602 6.29084L5.64701 6.29034C9.1076 3.92231 12.6489 3.7078 14.3109 3.72496L14.3105 3.725Z" fill="#27E12F"/>
</svg>
