<svg width="269" height="47" viewBox="0 0 269 47" fill="none" xmlns="http://www.w3.org/2000/svg">
<path d="M2.52015 22.578C6.39553 25.6613 6.47863 25.958 4.87711 31.4147L2.52015 22.578ZM0.427593 32.6953C10.9697 40.9574 -7.055 33.9384 3.3889 42.3507C5.79496 44.2885 7.38893 44.3599 9.88942 42.3695C20.6355 33.8295 31.5742 25.5711 42.4562 17.2302C43.5101 16.419 44.6659 15.7581 45.8066 15.007C47.1777 19.7802 45.376 22.3827 42.0294 24.5647C38.7508 26.6978 35.7782 29.3679 32.6696 31.8015L33.425 32.8606L45.7953 23.6596C48.1371 33.0483 38.9359 33.0296 36.9113 38.783L46.3127 31.8729V46.6808H47.7065V32.2296L56.6282 38.8055C54.5168 33.2399 45.7537 32.992 48.2504 23.8812C50.5734 25.6575 52.5866 27.2048 54.6074 28.7408C56.5338 30.2054 58.4627 31.6663 60.3941 33.1234L61.0891 31.9968C58.0975 29.6233 55.106 27.2449 52.1145 24.8614C47.0455 20.8467 47.0455 20.8467 48.5828 15.0971C59.9144 24.0126 71.329 32.7028 82.4074 41.8399C85.6974 44.5514 87.7673 44.2134 90.8721 41.7498C102.204 32.7366 113.75 24.0614 125.482 15.052C126.699 19.1831 126.136 21.8758 122.872 24.0464C119.258 26.4537 115.949 29.3792 112.504 32.0794L113.195 33.1535L125.66 23.8399C128.013 33.191 118.823 33.2586 115.681 39.7331L126.215 32.1658V46.692L127.382 46.7258V32.2447L136.534 38.8618L137.195 37.8028C134.842 35.9438 132.474 34.1036 130.14 32.2146C126.967 29.6459 126.925 29.4055 128.277 24.1178L140.191 33.1009C137.282 26.0293 126.215 26.1495 127.726 14.6577L166.567 45.0772L205.419 15.2436C206.609 19.5361 205.895 22.3114 202.465 24.5083C199.035 26.7053 195.904 29.5933 192.644 32.1771C192.882 32.5263 193.12 32.8718 193.354 33.2211L205.494 24.0614C208.085 33.2624 198.862 33.4013 195.696 39.7969L206.337 32.286V47H207.674V32.5639C211.137 35.1514 213.774 37.1193 216.407 39.0909C214.28 33.4577 205.392 33.2361 208.07 24.1065L221.158 34.175C217.381 26.2471 206.314 26.3485 207.885 14.9919L246.533 45.2837L269 27.9221C268.758 27.5465 268.513 27.171 268.267 26.7954L247.799 42.2455C246.288 36.5822 248.006 33.2324 252.278 30.5622C256.607 27.8582 260.501 24.3581 264.588 21.211L263.814 20.0844L247.799 32.1207C246.605 27.8507 247.421 25.0717 250.82 22.901C254.322 20.6477 257.51 17.8461 260.834 15.2811L260.078 14.1357L247.859 23.2615C245.087 13.9704 254.628 14.1056 257.302 7.84147L247.043 15.1572V0.135192H245.759V15.022L236.822 8.26208C238.953 13.7864 247.648 14.1019 245.2 23.2052L233.068 14.0681L232.399 15.1121C235.765 17.7823 238.979 20.7153 242.541 23.0437C246.016 25.3195 246.243 28.1437 245.064 32.147C233.215 22.8597 221.585 13.9291 210.186 4.67559C207.492 2.4899 205.853 2.71523 203.285 4.75071C192.656 13.1743 181.849 21.3425 171.096 29.582C170.015 30.4082 168.829 31.0842 167.639 31.8879C166.453 27.4113 167.794 24.7525 171.088 22.6043C174.514 20.3773 177.623 17.587 180.871 15.0407L180.085 13.9967L167.689 23.254C165.445 13.8653 174.487 13.8127 176.686 8.05178L167.073 14.9994V0.353017L165.974 0.315471V14.7403L155.738 7.51099C159.046 13.8765 167.893 13.9817 165.483 23.2841L153.162 13.8277C156.036 21.0345 167.046 20.9632 165.751 32.485L126.823 2.00544L88.0241 31.8015C87.1365 25.5711 87.1365 25.5712 91.1894 22.4503L100.934 14.9394L100.085 13.7751C96.0808 16.8171 92.0808 19.8628 87.9599 22.9986C85.2139 13.6888 94.6379 13.6737 97.5464 7.38329L87.7257 14.4474C87.5029 9.09955 87.3178 4.57043 87.1289 0.0413049L85.6785 0.153965V14.5338L76.9721 7.95037L76.2167 9.07702C78.5207 10.921 80.7002 12.9902 83.1591 14.5488C86.4037 16.603 86.0826 19.4309 85.6218 23.1676L72.3299 13.1029C75.9522 20.9895 87.2725 20.689 85.6445 32.2146L46.8831 1.8477L7.86863 31.7527C6.64105 26.9795 7.91396 24.3093 11.2379 22.1837C14.5618 20.0581 17.6137 17.2753 20.7904 14.7779L20.0878 13.7188L7.89507 22.9085C5.0773 13.6061 14.7998 13.6324 17.5798 7.09037L7.06409 14.8192V0H5.75719V14.3835C2.23308 11.7284 3.09428 9.61406 0.427593 7.60111C2.46727 13.3245 7.98195 13.5348 5.31526 22.7433" fill="#5FBB46"/>
</svg>
