<svg xmlns="http://www.w3.org/2000/svg" width="87" height="120" viewBox="0 0 87 120" fill="none">
<path d="M62.3967 52.7136C61.9217 49.8207 62.1449 45.6341 60.4539 42.4787C58.7059 39.2182 55.0959 36.965 51.9609 33.948C57.8557 28.2196 65.1326 23.4458 61.5607 13.5547L81.3301 33.4707L62.3967 52.7136Z" fill="#5FBB46"/>
<path d="M58.4454 65.5156C54.9216 75.6285 61.9311 80.3276 67.7754 85.8644C61.8359 91.4011 54.9692 96.228 58.1363 105.428L38.4062 85.8644L58.4454 65.5156Z" fill="#5FBB46"/>
<path d="M9.51555 105.428C12.8245 95.9367 5.9419 91.1342 0 85.5454C5.32266 79.7852 13.0939 75.4114 9.39265 65.5156L29.3692 86.0028L9.51555 105.428Z" fill="#5FBB46"/>
<path d="M54.2225 110.018C44.3475 106.683 39.6135 113.543 34.0795 119.736C31.8924 117.473 29.7196 115.572 27.9727 113.333C25.6058 110.265 22.7038 108.979 18.8788 109.522C17.3781 109.727 15.8301 109.556 14.3105 109.556L34.1931 89.6138L54.2083 110.041" fill="#5FBB46"/>
<path d="M33.823 51.9609C39.4247 57.5637 44.0313 64.9642 53.4694 61.4732C46.5746 68.2586 39.8568 74.8776 33.3159 81.3301L14.3105 62.4007C17.5299 61.8965 21.7826 62.1724 24.9924 60.4982C28.341 58.7242 30.7328 55.0715 33.823 51.9657" fill="#5FBB46"/>
<path d="M65.8606 57.0807L85.1801 37.6523L104.674 57.0902C101.674 57.6426 97.51 57.5103 94.3815 59.2384C91.1679 61.0089 88.9656 64.6018 85.9646 67.7746C80.0998 62.0428 75.4731 54.5878 65.5156 58.1477C65.629 57.7936 65.7425 57.4395 65.8606 57.0807Z" fill="#5FBB46"/>
<path d="M85.2827 30.1175L65.5156 10.7457C69.3083 10.115 73.565 10.3426 76.7503 8.61176C79.9356 6.88087 82.1882 3.18199 85.1535 0C87.7649 2.5418 90.0798 4.47186 91.9928 6.73387C94.3077 9.4701 96.9765 10.7125 100.568 10.2431C102.209 10.0297 103.916 10.2051 105.428 10.2051L85.2731 30.1222" fill="#5FBB46"/>
<path d="M10.3743 57.5043C7.23898 42.968 17.1263 32.9014 30.8452 35.9345C34.2328 48.1633 26.5089 60.6051 10.3743 57.5043Z" fill="#4F499E"/>
<path d="M109.349 62.2546C112.529 75.6366 102.676 86.1614 88.1201 83.0338C84.6456 70.7471 93.2351 59.1689 109.349 62.2546Z" fill="#4F499E"/>
<path d="M87.9649 88.0758C102.047 84.3274 112.848 95.7509 109.249 109.331C94.8197 112.582 84.7187 102.577 87.9649 88.0758Z" fill="#4F499E"/>
<path d="M10.2956 10.3371C24.1944 7.39012 33.8717 16.6514 31.1789 30.8447C19.4259 34.2727 7.13068 26.2817 10.2956 10.3371Z" fill="#4F499E"/>
<path d="M36.0616 36.0698C48.7043 32.7436 60.7005 41.9933 57.4433 57.0843C44.7136 61.0332 32.3508 51.6339 36.0616 36.0698Z" fill="#4F499E"/>
<path d="M57.3636 10.2901C60.7472 24.259 49.8183 34.1566 36.1729 31.0586C32.6589 19.0224 41.2386 7.1921 57.3636 10.2901Z" fill="#4F499E"/>
<path d="M83.0568 87.8516C86.1159 103.337 75.5469 112.567 62.3812 109.286C59.112 95.6985 68.9197 84.8721 83.0568 87.8516Z" fill="#4F499E"/>
<path d="M62.2025 62.3575C76.5306 59.089 86.2368 69.4455 82.9453 82.9586C70.4287 86.1057 59.3499 77.1873 62.2025 62.3575Z" fill="#4F499E"/>
</svg>