<svg xmlns="http://www.w3.org/2000/svg" width="285" height="57" viewBox="0 0 285 57" fill="none">
<path d="M150.434 8.75694H140.112L145.262 0L150.461 8.752" fill="#5FBB46"/>
<path d="M85.0867 0L89.9568 8.75694H80.4038L85.0867 0Z" fill="#5FBB46"/>
<path d="M20.6976 8.75694L25.5011 0C27.2479 3.21255 28.5873 5.68453 30.2507 8.75196H20.6976" fill="#5FBB46"/>
<path d="M200.614 8.75694C202.112 5.93932 203.404 3.51189 205.271 0L210.167 8.75187H200.614" fill="#5FBB46"/>
<path d="M196.586 10.3542L201.41 19.1061H191.857C193.397 16.2706 194.721 13.8159 196.601 10.3492" fill="#5FBB46"/>
<path d="M98.7137 19.1061H88.3646C90.1207 16.0917 91.577 13.5797 93.4669 10.3492L98.7137 19.1011" fill="#5FBB46"/>
<path d="M71.6481 19.1061C73.4495 15.833 74.7745 13.436 76.4717 10.3492L81.2011 19.1011H71.6481" fill="#5FBB46"/>
<path d="M205.351 20.7034C207.196 24.0497 208.518 26.4572 210.167 29.4553H200.614L205.331 20.6983" fill="#5FBB46"/>
<path d="M194.236 30.2514H184.693C186.24 27.3681 187.531 24.9484 189.384 21.4945L194.246 30.2463" fill="#5FBB46"/>
<path d="M150.461 29.4553H140.908C142.416 26.6326 143.709 24.2204 145.594 20.6983L150.451 29.4502" fill="#5FBB46"/>
<path d="M85.0266 21.4993L89.9568 29.4554H80.4038L85.0266 21.4945" fill="#5FBB46"/>
<path d="M40.5453 21.4997L45.3771 30.2514H35.8241C37.423 27.272 38.8107 24.7019 40.5352 21.4945" fill="#5FBB46"/>
<path d="M30.2507 30.2514H20.6976L25.4643 21.4945C27.1467 24.5729 28.4798 27.0137 30.2507 30.2465" fill="#5FBB46"/>
<path d="M213.227 10.3492L218.128 19.1061H208.575L213.227 10.3492Z" fill="#5FBB46"/>
<path d="M148.867 19.1061C150.352 16.2985 151.675 13.7831 153.489 10.3492L158.42 19.1009H148.867" fill="#5FBB46"/>
<path d="M136.98 10.3542L141.704 19.1061H132.151L136.98 10.3492" fill="#5FBB46"/>
<path d="M33.3899 10.3542L38.2114 19.1061H28.6583L33.3899 10.3492" fill="#5FBB46"/>
<path d="M16.6768 10.3542L21.4933 19.1061H11.9403L16.6768 10.3492" fill="#5FBB46"/>
<path d="M64.4824 30.2514L69.284 21.4945L74.0354 30.2464H64.5125" fill="#5FBB46"/>
<path d="M124.987 29.4554C126.554 26.5956 127.817 24.3011 129.36 21.4945L133.744 29.4505H124.987" fill="#5FBB46"/>
<path d="M159.99 21.4945L164.79 29.4554H155.237L159.99 21.4945Z" fill="#5FBB46"/>
<path d="M219.719 21.5225C221.46 24.4157 222.811 26.6555 224.496 29.4554H214.943C216.582 26.7302 217.988 24.411 219.719 21.4945" fill="#5FBB46"/>
<path d="M105.083 30.2514H95.5303C97.2285 27.1144 98.5359 24.6934 100.274 21.4945C101.967 24.5852 103.305 27.0165 105.083 30.2514Z" fill="#5FBB46"/>
<path d="M285 33.446V41.7401L280.933 42.3451V48.0678L276.791 48.7484C276.69 50.7652 276.594 52.6812 276.483 54.9299H271.815C271.709 52.8829 271.613 50.9619 271.502 48.819L267.921 48.1132C267.835 46.2728 267.754 44.4779 267.658 42.3451L262.642 41.7905C262.52 39.5871 262.409 37.5451 262.283 35.2712H254.756C254.569 37.3636 254.382 39.5014 254.18 41.7754L250.427 42.2796C250.316 44.1955 250.21 45.9854 250.088 48.0375L246.108 48.7434V54.9299H241.198C241.107 52.9131 241.016 50.9719 240.92 48.8089L237.156 48.1232C237.045 46.3232 236.924 44.4274 236.793 42.33L232.277 41.8258C232.074 41.4678 231.867 41.261 231.852 41.0342C231.347 33.4308 231.372 33.4308 238.202 33.4359H284.995L285 33.446ZM283.429 35.256H264.233V40.2275L269.087 40.6157C269.219 42.7484 269.335 44.6493 269.446 46.535L273.033 47.13C273.25 49.4241 273.442 51.461 273.634 53.493L274.872 53.3619C275.04 51.2442 275.208 49.1232 275.377 46.9989L279.246 46.5653C279.347 44.4426 279.433 42.5316 279.524 40.6308L283.434 40.1266L283.429 35.256ZM238.47 40.6359C238.631 42.7232 238.773 44.619 238.914 46.4493L242.395 47.2157C242.531 49.4745 242.647 51.4257 242.764 53.382L244.021 53.4224C244.299 51.3047 244.582 49.1871 244.88 46.9535L248.517 46.6308C248.629 44.488 248.73 42.5972 248.831 40.6207L252.741 40.1821V35.3317H233.545V40.2123L238.49 40.6359" fill="#5FBB46"/>
<path d="M232.457 33.4809V41.7534L228.385 42.3576V48.0773L224.248 48.7621C224.147 50.7761 224.051 52.6843 223.935 54.9299H219.273C219.166 52.8857 219.065 50.9674 218.954 48.8275L215.373 48.1227C215.292 46.2849 215.211 44.4924 215.115 42.3626L210.099 41.8088C209.978 39.6135 209.862 37.5744 209.741 35.3036H202.214C202.027 37.3931 201.835 39.5229 201.633 41.7937L197.885 42.2972C197.769 44.2054 197.663 45.9928 197.547 48.0421L193.561 48.747V54.9249H188.666C188.576 52.8857 188.49 50.9724 188.389 48.8124L184.62 48.1025C184.504 46.305 184.388 44.4119 184.257 42.3173L179.736 41.8138C179.539 41.4563 179.327 41.2499 179.311 41.0233C178.806 33.4306 178.806 33.4356 185.666 33.4356H232.457V33.4809ZM230.881 35.2885H211.685V40.2429L216.54 40.6306C216.666 42.7654 216.782 44.6586 216.893 46.5417L220.485 47.1358C220.702 49.4267 220.894 51.4608 221.086 53.4899L222.318 53.359C222.49 51.2443 222.659 49.128 222.824 47.0099L226.698 46.5769C226.794 44.4572 226.885 42.5489 226.971 40.6457L230.881 40.1422V35.2885ZM185.924 40.6608L186.373 46.4661L189.848 47.2315C189.985 49.4871 190.101 51.4356 190.222 53.3892L191.475 53.4295C191.758 51.3148 192.041 49.2001 192.334 46.9696L195.971 46.6474C196.082 44.5075 196.183 42.6194 196.289 40.6457L200.194 40.2077V35.364H180.999V40.2429L185.944 40.6659" fill="#5FBB46"/>
<path d="M230.864 35.8244V40.7293L226.978 41.235C226.887 43.1464 226.797 45.0629 226.701 47.1917L222.845 47.6265C222.68 49.7537 222.513 51.8791 222.342 54.0029L221.115 54.1344C220.924 52.1117 220.733 50.0537 220.517 47.753L216.942 47.1563C216.831 45.2752 216.716 43.3638 216.59 41.2198L211.758 40.8305V35.8447L230.864 35.8244Z" fill="#5FBB46"/>
<path d="M179.914 33.4809V41.7565L175.843 42.3605V48.0839L171.705 48.7585C171.604 50.772 171.508 52.6848 171.397 54.9299H166.729C166.623 52.8862 166.527 50.9683 166.416 48.829L162.834 48.1192C162.748 46.2818 162.668 44.4949 162.572 42.3656L157.555 41.8068C157.434 39.6121 157.323 37.5734 157.196 35.3032H149.669C149.482 37.3922 149.295 39.5265 149.093 41.7967L145.34 42.3001C145.229 44.2079 145.123 45.9949 145.001 48.0437L141.021 48.7484V54.9249H136.125C136.029 52.9114 135.943 50.9733 135.847 48.8138L132.074 48.1091C131.963 46.307 131.841 44.4194 131.71 42.3203L127.189 41.8169C126.992 41.4595 126.785 41.2481 126.769 41.0266C126.264 33.4356 126.264 33.4356 133.119 33.4356H179.914V33.4809ZM178.343 35.288H159.146V40.2463L164.001 40.6339C164.133 42.7683 164.244 44.661 164.36 46.5486L167.947 47.1376L168.548 53.4953L169.786 53.3644C169.951 51.2469 170.119 49.1293 170.291 47.0118L174.16 46.5788C174.261 44.4596 174.347 42.5518 174.438 40.6541L178.348 40.1507L178.343 35.288ZM133.382 40.6591C133.539 42.7431 133.685 44.6308 133.827 46.458L137.302 47.2282C137.439 49.4834 137.56 51.4314 137.676 53.3795L138.934 53.4198C139.212 51.3056 139.495 49.1964 139.793 46.9614L143.425 46.6392C143.541 44.5049 143.642 42.6122 143.743 40.639L147.654 40.2061V35.3585H128.457V40.2363L133.402 40.6591" fill="#5FBB46"/>
<path d="M178.324 35.8244V40.7256L174.433 41.2314C174.343 43.1383 174.257 45.0553 174.157 47.1847L170.306 47.6197C170.135 49.7508 169.968 51.8785 169.804 54.0029L168.572 54.1344L167.974 47.7461L164.405 47.1544C164.289 45.2728 164.179 43.3558 164.048 41.2112L159.218 40.8217V35.8396L178.324 35.8244Z" fill="#5FBB46"/>
<path d="M127.373 34.267V42.5495L123.367 43.1537V48.8734L119.286 49.5532C119.191 51.5672 119.097 53.4805 118.982 55.7261H114.389C114.284 53.6819 114.185 51.7635 114.075 49.6237L110.547 48.9188C110.467 47.076 110.387 45.2885 110.293 43.1588L105.351 42.6049C105.232 40.4046 105.117 38.3655 104.998 36.0947H97.5825C97.3984 38.1842 97.2093 40.319 97.0102 42.5898L93.3125 43.0933C93.203 45.0016 93.0985 46.789 92.9841 48.8432L89.0575 49.5481V55.7261H84.2351C84.1455 53.6869 84.0609 51.7686 83.9614 49.6136L80.2488 48.9037C80.1343 47.1012 80.0199 45.213 79.8905 43.1185L75.4363 42.615C75.2422 42.2575 75.0332 42.046 75.0183 41.8245C74.5206 34.2317 74.5455 34.2318 81.2789 34.2318H127.373M125.825 36.0393H106.914V40.9988L111.696 41.3864C111.821 43.5213 111.935 45.4144 112.045 47.3025L115.583 47.8916L116.175 54.3012L117.39 54.1702C117.559 52.0556 117.725 49.9375 117.887 47.8161L121.704 47.3831C121.799 45.2634 121.889 43.3551 121.973 41.4569L125.825 40.9534V36.0393ZM81.5328 41.4116C81.692 43.4961 81.8363 45.3842 81.9757 47.2169L85.3996 47.9823C85.534 50.2379 85.6485 52.1865 85.7679 54.135L87.0021 54.1753C87.2808 52.0606 87.5545 49.9509 87.8481 47.7154L91.4313 47.3932C91.5408 45.2584 91.6404 43.3652 91.7449 41.3915L95.5918 40.9585V36.1752H76.6805V41.0491L81.5527 41.472" fill="#5FBB46"/>
<path d="M126.578 35.8244V40.7256L122.683 41.2314C122.597 43.1383 122.506 45.0553 122.411 47.1847L118.55 47.6197C118.386 49.7474 118.218 51.8751 118.047 54.0029L116.819 54.1344L116.22 47.7461L112.661 47.1392C112.551 45.2576 112.435 43.3406 112.309 41.196L107.472 40.8066V35.8244H126.578Z" fill="#5FBB46"/>
<path d="M74.8323 34.267V42.5495L70.8497 43.1537V48.8735L66.7675 49.5532C66.6729 51.5672 66.5733 53.4805 66.4638 55.7261H61.8887C61.7842 53.6819 61.6846 51.7635 61.5751 49.6237L58.0455 48.9188C57.9658 47.081 57.8862 45.2885 57.7916 43.1588L52.8431 42.6049C52.7237 40.4046 52.6141 38.3705 52.4897 36.0947H45.072C44.8928 38.1892 44.7036 40.319 44.5045 42.5898L40.8056 43.0933C40.6961 45.0016 40.5915 46.789 40.4721 48.8382L36.5492 49.5431V55.721H31.7003C31.6107 53.6819 31.5261 51.7686 31.4265 49.6086L27.7127 48.8986C27.5982 47.1012 27.4837 45.208 27.3493 43.1135L22.8987 42.61C22.7045 42.2525 22.4954 42.046 22.4805 41.8195C21.9827 34.2267 21.9827 34.2318 28.7432 34.2318H74.8323V34.267ZM73.284 36.0745H54.3665V41.039L59.1556 41.4267C59.2801 43.5615 59.3946 45.4547 59.5041 47.3378L63.0437 47.9319C63.2578 50.2228 63.4469 52.257 63.6361 54.2861L64.8508 54.1552C65.0168 52.0405 65.1827 49.9224 65.3486 47.801L69.162 47.368C69.2616 45.2533 69.3512 43.34 69.4358 41.4418L73.289 40.9383L73.284 36.0745ZM28.9772 41.4469L29.4202 47.2522L32.8453 48.0175C32.9797 50.2732 33.0942 52.2217 33.2087 54.1753L34.4483 54.2156C34.7271 52.1009 35.0009 49.9862 35.2946 47.7557L38.879 47.4334C38.9885 45.2936 39.0881 43.4055 39.1926 41.4318L43.0409 40.9937V36.1501H24.1233V41.0239L28.9971 41.4469" fill="#5FBB46"/>
<path d="M73.2396 36.6202V41.3118L69.349 41.7955C69.2636 43.6238 69.1731 45.457 69.0726 47.4932L65.2222 47.9043C65.058 49.939 64.8904 51.9737 64.7195 54.0083L63.493 54.1341C63.302 52.1994 63.111 50.2308 62.8949 48.0301L59.321 47.4594C59.2104 45.6601 59.0948 43.8318 58.9691 41.781L54.1335 41.4086V36.6396L73.2396 36.6202Z" fill="#5FBB46"/>
<path d="M18.8668 35.0283H23.0865V43.3244L18.9739 43.9094V49.6587L14.8205 50.3446C14.7185 52.3619 14.6215 54.2733 14.5093 56.5226H9.76911C9.66195 54.475 9.56501 52.5536 9.45275 50.4102L5.83512 49.7041C5.74838 47.8633 5.66674 46.0679 5.5698 43.9346L0.503071 43.4051C0.380612 41.2062 0.268358 39.1637 0.140797 36.8892C-0.0469323 36.2914 -0.0469323 35.6513 0.140797 35.0535M21.4996 36.8489H2.11034V41.8215L7.01379 42.2099C7.14645 44.3482 7.25871 46.2444 7.37606 48.1306L10.9988 48.7257C11.2182 51.0204 11.4121 53.0579 11.606 55.0953L12.8561 54.9592C13.0228 52.841 13.1928 50.7212 13.3663 48.5996L17.2748 48.1659C17.3769 46.0427 17.4636 44.1313 17.5554 42.225L21.5047 41.7206L21.4996 36.8489Z" fill="#5FBB46"/>
<path d="M21.4956 36.6202V41.5238L17.605 42.0293C17.5145 43.9401 17.4291 45.8561 17.3285 47.9843L13.4782 48.4191C13.3073 50.549 13.1397 52.6739 12.9755 54.7937L11.744 54.9302C11.553 52.9081 11.362 50.8456 11.1458 48.5455L7.57696 47.9489C7.46135 46.0684 7.35077 44.1575 7.22008 42.0141L2.38953 41.6249V36.6202H21.4956Z" fill="#5FBB46"/>
</svg>