<svg xmlns="http://www.w3.org/2000/svg" width="113" height="136" viewBox="0 0 113 136" fill="none">
<path d="M31.6852 14.2459L56.0876 0L80.5377 14.2032C80.3949 13.6998 80.8235 14.4026 80.7377 15.039C78.5375 31.5072 81.8474 43.0559 99.7158 51.0242C117.089 58.7929 116.198 78.1246 97.9109 85.7177C81.333 92.6032 79.0328 102.813 80.8949 117.367C80.9761 118.424 80.912 119.486 80.7044 120.525C80.6044 121.2 80.2568 121.836 80.5568 121L56.121 135.55L31.6947 121.138C32.1186 122.325 31.3518 121.285 31.4756 120.369C33.6949 103.829 30.2231 92.3041 12.3594 84.4308C-4.23272 77.1132 -4.08985 57.9619 12.6118 50.8532C30.3612 43.3029 33.4282 31.9536 31.3709 15.851C31.247 14.8727 31.7852 13.8138 31.6852 14.2554" fill="#4F499E" fill-opacity="0.7"/>
</svg>